<?xml version="1.0" encoding="utf-8"?>
<!-- Generator: Adobe Illustrator 15.0.0, SVG Export Plug-In . SVG Version: 6.00 Build 0)  -->
<!DOCTYPE svg PUBLIC "-//W3C//DTD SVG 1.1//EN" "http://www.w3.org/Graphics/SVG/1.1/DTD/svg11.dtd">
<svg version="1.1" id="Layer_1" xmlns="http://www.w3.org/2000/svg" xmlns:xlink="http://www.w3.org/1999/xlink" x="0px" y="0px"
	 width="545.399px" height="264px" viewBox="0 0 545.399 264" enable-background="new 0 0 545.399 264" xml:space="preserve">
<path fill="#FFFFFF" d="M22.492,172.468L0.694,111.104c-2.216-6.239,1.046-13.092,7.285-15.309l0,0
	c6.238-2.216,13.091,1.045,15.308,7.284l12.008,33.802"/>
<path fill="#FFFFFF" d="M62.139,153.941l-11.781,33.88c-2.173,6.253-9.005,9.559-15.258,7.384l0,0
	c-6.255-2.173-9.561-9.006-7.387-15.261l21.539-61.943"/>
<path fill="#FFFFFF" d="M163.84,183.707c0,6.72-5.479,12.167-12.239,12.167l0,0c-6.759,0-12.238-5.447-12.238-12.167v-73.166
	c0-6.72,5.479-12.167,12.238-12.167l0,0c6.759,0,12.239,5.447,12.239,12.167V183.707z"/>
<path fill="#FFFFFF" d="M115.889,153.941l-11.781,33.881c-2.173,6.252-9.005,9.559-15.258,7.383l0,0
	c-6.255-2.172-9.561-9.006-7.387-15.26l26.703-76.792c2.175-6.254,9.006-9.559,15.261-7.386l0,0
	c6.252,2.174,9.558,9.006,7.385,15.26L115.889,153.941"/>
<path fill="#FFFFFF" d="M76.242,172.469l-21.797-61.366c-2.216-6.239,1.046-13.092,7.285-15.309l0,0
	c6.238-2.216,13.091,1.045,15.308,7.284l12.008,33.803"/>
<path fill="#FFFFFF" d="M198.933,172.29v11.817c0,6.628-5.373,12-12,12l0,0c-6.627,0-12-5.372-12-12v-32.902"/>
<polygon fill="#FFFFFF" points="138.137,65.538 151.601,57.955 165.065,65.538 165.065,80.703 151.601,88.286 138.137,80.703 "/>
<path fill="#FFFFFF" d="M284.617,183.707c0,6.72-5.479,12.167-12.239,12.167l0,0c-6.759,0-12.238-5.447-12.238-12.167v-73.166
	c0-6.72,5.479-12.167,12.238-12.167l0,0c6.759,0,12.239,5.447,12.239,12.167V183.707z"/>
<path fill="#FFFFFF" d="M179.053,144.571c-5.048-4.436-5.523-12.146-1.063-17.226l0,0c4.461-5.078,12.17-5.599,17.218-1.164
	l54.967,48.29c5.048,4.436,5.524,12.147,1.063,17.226l0,0c-4.461,5.077-12.17,5.599-17.218,1.164L179.053,144.571z"/>
<path fill="#FFFFFF" d="M195.461,116.212l34.955-21.414c5.73-3.509,13.238-1.683,16.769,4.081l0,0
	c3.53,5.763,1.748,13.281-3.982,16.791l-28.518,17.47"/>
<polygon fill="#FFFFFF" points="258.914,65.538 272.378,57.955 285.842,65.538 285.842,80.703 272.378,88.286 258.914,80.703 "/>
<path fill="#FFFFFF" d="M174.933,119.998V76.444c0-6.628,5.373-12.001,12.001-12.001l0,0c6.628,0,12.001,5.373,12.001,12.001v28.879
	"/>
<g>
	<g>
		<path fill="#FFFFFF" d="M446.035,185.607c-0.027-2.107-0.1-2.428-2.367-10.537c-1.749-6.254-1.682-4.883-1.773-35.889
			c-0.057-18.66-0.173-28.48-0.352-29.59c-0.744-4.603-3.173-7.772-6.995-9.129c-1.672-0.593-5.394-0.614-7.278-0.041
			c-2.077,0.632-4.271,2.244-5.503,4.044c-1.514,2.213-2.069,4.194-2.222,7.935l-0.128,3.108l-4.194-4.244
			c-5.781-5.85-9.229-8.071-15.216-9.806c-3.76-1.089-6.477-1.439-11.149-1.438c-4.631,0.001-7.038,0.317-10.902,1.435
			c-15.669,4.531-26.152,19.281-28.291,39.808c-0.369,3.543-0.306,12.883,0.111,16.451c1.374,11.744,5.623,21.385,12.386,28.1
			c5.359,5.32,12.853,8.867,20.938,9.914c2.126,0.273,10.181,0.139,12.54-0.213c7.772-1.152,13.382-4.16,21.618-11.584
			c2.57-2.318,2.826-2.488,3.003-2.01c0.358,0.971,4.088,6.244,5.764,8.15c3.765,4.285,7.075,5.828,10.974,5.115
			c3.378-0.617,6.974-3.24,8.387-6.117C445.974,187.869,446.059,187.418,446.035,185.607z M410.415,171.719
			c-2.54,2.779-6.434,5.145-10.012,6.082c-2.432,0.639-7.146,0.816-9.341,0.352c-3.918-0.826-6.955-2.438-9.677-5.137
			c-3.867-3.834-6.326-8.949-7.643-15.893c-0.34-1.791-0.431-3.617-0.437-8.756c-0.007-7.307,0.251-9.367,1.745-13.955
			c1.466-4.5,3.355-7.469,6.866-10.788c4.165-3.938,8.693-5.62,14.289-5.307c5.967,0.335,10.334,2.226,14.302,6.194
			c5.23,5.229,7.751,12.713,7.745,22.992C418.248,157.803,415.568,166.08,410.415,171.719z"/>
	</g>
	<g>
		<path fill="none" stroke="#FFFFFF" stroke-miterlimit="10" d="M446.035,185.607c-0.027-2.107-0.1-2.428-2.367-10.537
			c-1.749-6.254-1.682-4.883-1.773-35.889c-0.057-18.66-0.173-28.48-0.352-29.59c-0.744-4.603-3.173-7.772-6.995-9.129
			c-1.672-0.593-5.394-0.614-7.278-0.041c-2.077,0.632-4.271,2.244-5.503,4.044c-1.514,2.213-2.069,4.194-2.222,7.935l-0.128,3.108
			l-4.194-4.244c-5.781-5.85-9.229-8.071-15.216-9.806c-3.76-1.089-6.477-1.439-11.149-1.438c-4.631,0.001-7.038,0.317-10.902,1.435
			c-15.669,4.531-26.152,19.281-28.291,39.808c-0.369,3.543-0.306,12.883,0.111,16.451c1.374,11.744,5.623,21.385,12.386,28.1
			c5.359,5.32,12.853,8.867,20.938,9.914c2.126,0.273,10.181,0.139,12.54-0.213c7.772-1.152,13.382-4.16,21.618-11.584
			c2.57-2.318,2.826-2.488,3.003-2.01c0.358,0.971,4.088,6.244,5.764,8.15c3.765,4.285,7.075,5.828,10.974,5.115
			c3.378-0.617,6.974-3.24,8.387-6.117C445.974,187.869,446.059,187.418,446.035,185.607z M410.415,171.719
			c-2.54,2.779-6.434,5.145-10.012,6.082c-2.432,0.639-7.146,0.816-9.341,0.352c-3.918-0.826-6.955-2.438-9.677-5.137
			c-3.867-3.834-6.326-8.949-7.643-15.893c-0.34-1.791-0.431-3.617-0.437-8.756c-0.007-7.307,0.251-9.367,1.745-13.955
			c1.466-4.5,3.355-7.469,6.866-10.788c4.165-3.938,8.693-5.62,14.289-5.307c5.967,0.335,10.334,2.226,14.302,6.194
			c5.23,5.229,7.751,12.713,7.745,22.992C418.248,157.803,415.568,166.08,410.415,171.719z"/>
	</g>
</g>
<path fill="#FFFFFF" stroke="#FFFFFF" stroke-miterlimit="10" d="M319.769,195.643c-2.956-0.576-6.045-2.934-7.516-5.732
	c-1.772-3.375-1.648-0.66-1.731-37.791l-0.074-33.381l-4.466-0.004c-6.168-0.005-8.22-0.533-10.603-2.729
	c-1.893-1.745-2.689-4.304-2.277-7.318c0.352-2.565,1.629-4.35,3.973-5.547c1.955-0.999,4.001-1.298,8.913-1.303l4.472-0.005v-5.328
	c0.002-12.951,1.765-19.984,6.194-24.72c4.123-4.407,9.725-6.464,19.651-7.215c6.178-0.467,13.824,0.089,17.714,1.289
	c3.735,1.152,5.966,2.778,7.172,5.229c0.737,1.497,0.77,1.685,0.668,3.849c-0.08,1.71-0.239,2.53-0.644,3.309
	c-0.752,1.45-1.883,2.672-3.172,3.427c-1.441,0.845-3.896,0.994-7.406,0.45c-8.98-1.393-13.261-0.284-14.918,3.861
	c-1.081,2.706-1.298,4.244-1.428,10.153l-0.126,5.695h4.784c6.771,0,9.984,0.708,12.245,2.698c1.95,1.717,2.665,4.21,2.142,7.47
	c-0.557,3.467-2.054,5.034-5.762,6.029c-1.651,0.443-2.856,0.545-7.649,0.646l-5.689,0.119l-0.07,33.107l-0.07,33.107l-0.544,1.916
	c-0.716,2.527-1.599,4.098-3.207,5.705C327.717,195.258,323.684,196.406,319.769,195.643L319.769,195.643z"/>
<g>
	<g>
		<path fill="#FFFFFF" d="M545.045,138.126c-0.927-7.922-3.319-15.348-6.736-20.91c-5.423-8.826-13.255-14.362-23.442-16.572
			c-3.408-0.738-11.562-0.923-15.473-0.35c-7.907,1.159-13.8,4.282-21.666,11.482l-2.389,2.186V94.693
			c0-21.243-0.016-21.499-1.517-24.564c-2.01-4.105-6.61-6.285-11.62-5.507c-4.379,0.681-7.18,3.412-8.584,8.372
			c-0.433,1.526-0.451,3.948-0.451,57.574v55.981l0.549,1.744c1.24,3.943,3.918,6.521,7.658,7.371v0.002
			c1.624,0.369,4.543,0.23,6.306-0.297c1.96-0.588,4.163-2.227,5.373-3.994c1.515-2.213,2.069-4.195,2.223-7.936l0.127-3.107
			l4.194,4.242c5.782,5.852,9.229,8.072,15.216,9.807c3.76,1.09,6.478,1.438,11.15,1.438c4.631,0,7.037-0.318,10.902-1.436
			c15.669-4.529,26.152-19.279,28.29-39.807C545.526,151.032,545.462,141.694,545.045,138.126z M519.769,161.429
			c-1.466,4.5-3.355,7.469-6.866,10.789c-2.958,2.797-5.868,4.332-9.543,5.035c-1.717,0.328-4.859,0.414-6.584,0.182
			c-4.999-0.68-8.996-2.637-12.465-6.105c-5.229-5.23-7.751-12.713-7.745-22.992c0.006-10.299,2.686-18.577,7.839-24.216
			c5.514-6.032,14.354-8.3,22.118-5.673c6.139,2.076,11.26,8.091,13.505,15.859c1.279,4.426,1.479,6.189,1.485,13.166
			C521.521,154.78,521.263,156.841,519.769,161.429z"/>
	</g>
	<g>
		<path fill="none" stroke="#FFFFFF" stroke-miterlimit="10" d="M545.045,138.126c-0.927-7.922-3.319-15.348-6.736-20.91
			c-5.423-8.826-13.255-14.362-23.442-16.572c-3.408-0.738-11.562-0.923-15.473-0.35c-7.907,1.159-13.8,4.282-21.666,11.482
			l-2.389,2.186V94.693c0-21.243-0.016-21.499-1.517-24.564c-2.01-4.105-6.61-6.285-11.62-5.507
			c-4.379,0.681-7.18,3.412-8.584,8.372c-0.433,1.526-0.451,3.948-0.451,57.574v55.981l0.549,1.744
			c1.24,3.943,3.918,6.521,7.658,7.371v0.002c1.624,0.369,4.543,0.23,6.306-0.297c1.96-0.588,4.163-2.227,5.373-3.994
			c1.515-2.213,2.069-4.195,2.223-7.936l0.127-3.107l4.194,4.242c5.782,5.852,9.229,8.072,15.216,9.807
			c3.76,1.09,6.478,1.438,11.15,1.438c4.631,0,7.037-0.318,10.902-1.436c15.669-4.529,26.152-19.279,28.29-39.807
			C545.526,151.032,545.462,141.694,545.045,138.126z M519.769,161.429c-1.466,4.5-3.355,7.469-6.866,10.789
			c-2.958,2.797-5.868,4.332-9.543,5.035c-1.717,0.328-4.859,0.414-6.584,0.182c-4.999-0.68-8.996-2.637-12.465-6.105
			c-5.229-5.23-7.751-12.713-7.745-22.992c0.006-10.299,2.686-18.577,7.839-24.216c5.514-6.032,14.354-8.3,22.118-5.673
			c6.139,2.076,11.26,8.091,13.505,15.859c1.279,4.426,1.479,6.189,1.485,13.166C521.521,154.78,521.263,156.841,519.769,161.429z"
			/>
	</g>
</g>
</svg>
