<?xml version="1.0" standalone="no"?>
<!DOCTYPE svg PUBLIC "-//W3C//DTD SVG 1.1//EN" "http://www.w3.org/Graphics/SVG/1.1/DTD/svg11.dtd" >
<svg xmlns="http://www.w3.org/2000/svg" xmlns:xlink="http://www.w3.org/1999/xlink" version="1.1">
<metadata></metadata>
<defs>
<font id="edo_szregular" horiz-adv-x="1200" >
<font-face units-per-em="2048" ascent="1638" descent="-410" />
<missing-glyph horiz-adv-x="569" />
<glyph horiz-adv-x="0" />
<glyph unicode="&#xd;" horiz-adv-x="569" />
<glyph unicode=" "  horiz-adv-x="569" />
<glyph unicode="&#x09;" horiz-adv-x="569" />
<glyph unicode="&#xa0;" horiz-adv-x="569" />
<glyph unicode="!" horiz-adv-x="552" d="M82 110v17q51 119 238 119v-17l-17 -17v-17l17 17h34l51 -102l17 -51l-51 -51h34l34 -34v-34l-255 -51l-17 17v34q68 0 68 34v17h-102v102l17 17v17h-17zM82 805v40l37 407h19l18 -122h-37v-41l37 -41h19l37 244l-19 -20h-18v60l37 41v-61h19v82l-38 39l56 62l223 -81 v-20q-92 -388 -92 -629v-21q0 -121 73 -344l-18 -61q-46 0 -55 80h-19v-40h-75l-37 102l-18 -21h-19q-130 103 -130 345zM101 866l18 -101h19v61l-19 142h-18v-102zM138 684q55 -183 93 -183zM138 947h18v81h-18v-81zM138 1252v80h18l19 -80h-37z" />
<glyph unicode="&#x22;" horiz-adv-x="577" d="M45 1097l19 -17l39 246v81l-27 40l41 62l163 -81v-21q-47 -270 -61 -470l-2 1q3 -22 8 -45l-10 -61q-24 0 -29 81h-10v-40h-40l-19 101l-10 -20h-10q-35 53 -52 143zM296 1064l15 236l43 11v81l-27 32l41 74l163 -32v-20q-84 -344 -61 -489h-2q3 -21 8 -42l-10 -65 q-24 -7 -29 72l-10 -3v-40l-40 -11l-28 33l-10 -24l-10 -3q-35 43 -43 190z" />
<glyph unicode="#" horiz-adv-x="1139" />
<glyph unicode="$" horiz-adv-x="1139" />
<glyph unicode="%" horiz-adv-x="1103" d="M62 181q49 181 49 232q46 94 181 286l29 41l334 394l19 -14l-71 -140l-5 4l-36 -104l166 241l45 146l67 14l-45 -63l19 -15l60 85l-10 70l101 22l96 -170l-14 -20q-379 -425 -554 -675l-16 -21q-88 -126 -328 -495l-62 -50q-22 17 -22 46q0 32 26 79l-19 14l4 26l76 130 l24 63l-95 -141zM70 1125v20q0 41 55 110q96 75 151 89l46 18l23 -5l49 7q-8 4 5 -27l5 -16q0 -10 -7 -12l-29 2l21 -14v-2l5 -4l-31 10q10 -1 10 -4l7 2q30 0 66 -13l-73 -61q-108 -37 -123 -56q-116 -9 -76 -92l35 -16l74 14h10l17 -2q62 36 79 68q21 24 45 68v2l49 29 q14 -28 25 -54q22 -25 22 -45h-2l2 -2v-2l-2 -7l2 -7l-49 -79q-15 -31 -79 -75q-47 -31 -67 -31h-7l-18 9l-72 20q-49 0 -108 64q-57 44 -57 70zM173 342l87 189q-125 -160 -87 -189zM242 336l18 -14l105 155l28 76zM451 782l3 -40l66 144l-8 9zM611 200l20 102q5 39 48 105 q33 47 51 52l6 2l20 -7l49 31q44 12 117 -47q86 -74 94 -104l10 -27l6 -23q12 -47 -16 -140q-63 -109 -108 -139l-36 -31h-23l-41 -20q-10 -2 -19 -2q-28 0 -44 24l-10 17q-3 11 3 15l27 5l27 20l-1 2l-6 4l-19 -13q-9 -1 -10 2l-5 -4q-39 -10 -45 14l-6 5q-1 4 5 6l2 2 l-1 5q-32 38 -56 76q-27 24 -33 46l2 1l-3 2v11zM738 128l3 -12q14 -23 18 -22q123 94 132 124q38 69 28 141l-8 3l-78 -44l-9 -2l-16 -2q-45 -56 -50 -97q-12 -32 -20 -89z" />
<glyph unicode="&#x26;" horiz-adv-x="1480" d="M33 129l1 55q11 154 447 545q-47 99 -81 286l27 110l-12 41q211 170 331 172l243 6q84 -47 83 -135l-1 -27q-2 -132 -298 -419q145 -238 249 -337h12q135 131 236 280q24 1 23 -40l-13 -42h13l73 57l12 -13h12l49 15l12 -14v-41q-81 -165 -297 -322l-1 -14l167 -202 l-1 -27q-118 -98 -269 -102q1 24 -143 133h-12l95 -107v-14l-25 -28l-119 121l-172 -73l-97 11l-97 -15v-14q73 2 72 -25l-122 -72h-25q-296 -7 -372 251zM252 161q17 -54 36 -54l-22 123h-13zM301 190q61 -136 229 -132l122 58l36 -13l147 58l1 28l-12 -1l-37 -28h-13 q-126 143 -236 365l-12 -1q-173 -122 -225 -334zM563 566q109 -246 236 -364h13v14q1 42 -237 351zM630 952l11 -55l12 1l1 13l-11 82h-12zM668 1049l22 -123q96 70 125 195l-22 109q-123 -80 -125 -181zM726 858h12q186 189 211 266l1 41h-13q0 -46 -211 -293v-14z M1010 1125l24 28l1 28l-11 68h-12l-1 -14l11 -68zM1164 196l71 -80l1 13l-72 81v-14z" />
<glyph unicode="'" horiz-adv-x="472" d="M66 1113l14 153h19l18 -122h-37v-40zM99 961h18v81h-18v-81zM99 1266v80h18l19 -80h-37zM112 1097l26 -17l35 225l-19 -19h-18v60l37 41v-61h19v81l-38 40l57 62l222 -81v-21q-64 -270 -84 -470l-2 1q5 -22 11 -45l-14 -61q-33 0 -40 81h-14v-40h-53l-26 101l-14 -20h-14 q-48 53 -71 143zM162 1053q20 -59 35 -59l-18 49z" />
<glyph unicode="(" horiz-adv-x="1002" d="M402 435q0 46 2 94q7 200 45 442q40 175 182 363q107 203 165 203q8 0 16 -4l-75 -111l-15 -43l15 -9q136 195 191 195h5l16 -9l-69 -89l-6 -22l41 15l-76 -97l-90 -94l-66 -104q-162 -448 -99 -952q91 -352 133 -401q68 -14 77 -92l-34 -67h-6q-29 0 -62 40 q-226 320 -203 384l-41 257l26 -350l-14 9q-58 181 -58 442z" />
<glyph unicode=")" horiz-adv-x="999" d="M100 -254q454 943 209 1518l-124 277l50 28l55 -158l-1 163q52 -162 108 -142l13 32l96 -283l-1 -107l28 -68q38 -460 -193 -1124q-50 -17 -42 -66l-21 18l-16 -6l-92 -85l24 -44l4 -25l-58 -10zM432 -14l32 -7l132 274l1 152l-32 8l-125 -391z" />
<glyph unicode="*" horiz-adv-x="797" />
<glyph unicode="+" horiz-adv-x="1199" d="M118 569v27h40l-27 40q29 68 212 68l93 13l44 3q19 117 41 255l-40 176h13q30 0 53 -135l-13 -135v-14h13v27q40 0 40 27v14l-27 216v14h27l53 -41l13 14h13q53 -117 53 -203l-13 13h-13l26 -94l-39 -14v-41l12 2l-11 -46q-15 -7 -15 -23v-2l9 1l212 27l13 -13h14l79 13 l40 -27l-13 -68l13 -13q0 -68 -159 -68l-212 -8q-55 -212 -109 -396l-12 6q-24 11 -7 48l-13 5q-23 12 -80 -81l-43 35q87 274 109 377h-15l-111 -383l-36 17l5 12l18 7l22 49l-12 5l-17 -6l39 86l18 6l-25 12l6 12l24 -11l11 24l-24 12l11 25l18 6l-25 11l6 13l51 80 l-24 12l18 6l1 4l-308 -12zM208 583h53v13h-53v-13z" />
<glyph unicode="," horiz-adv-x="703" d="M138 49q0 124 55 124l4 4v5l-32 41q8 124 55 124l165 28h45q46 -20 46 -101v-5q0 -44 -14 -106l5 -41q-83 -285 -128 -285q0 -47 -41 -69h-18q-51 10 -51 46q7 111 55 111l5 4v5l-28 41l9 55l-50 -18q-77 12 -77 23zM316 205h5l45 9v14h-4q-23 0 -46 -23z" />
<glyph unicode="-" horiz-adv-x="999" d="M57 819l5 23q11 49 145 54v11l56 14l41 -22l89 6l12 -19l2 17l12 -19l176 -5l87 -11l-18 -15l-3 -17l226 24l-6 -34q-44 6 -50 -28l15 -2l46 11l-3 -17l-17 -15l-3 -17q38 -5 38 -32q0 -3 -1 -8l-260 -53l-3 -17l57 -7l-2 -17l-179 -12l38 47l-15 2q-132 3 -156 -50 l-3 -17l-58 8l-11 19l-4 -17l12 -19l-58 8l4 17l17 14l2 17l-17 -15l-55 7l-1 12l-114 39l6 24h90l5 24q-42 11 -32 56zM554 815l29 -4l61 10l3 16l-29 5l-61 -10zM563 693l5 -53l29 -3l-5 53z" />
<glyph unicode="." horiz-adv-x="627" d="M76 128l60 119l-50 48q5 76 214 76q40 0 85 -3l66 -65l-2 -19l37 -36l-1 -19h-39l-1 -19h39l-2 -17q-112 -29 -114 -65h39q-10 -148 -262 -148l-58 19v80q62 -25 78 2z" />
<glyph unicode="/" horiz-adv-x="1002" d="M-34 -239l43 95l-16 7q-23 7 -23 33q0 13 5 30q48 75 111 189q187 286 323 579l22 41l22 40l109 223l55 118l38 105l88 147l-11 22l39 121l11 -22l17 -6l22 68l-12 24l7 17l50 -17l-429 -909q33 -11 440 885h11q-2 -18 -5 -37l18 -72h18l17 18h2q-3 -58 16 -68v-41l36 22 l15 54q8 2 18 -1l2 -1q0 -18 1 -33q-425 -903 -866 -1650l-17 5l-11 24l22 12l66 154l-17 7l-148 -213l-7 75q-34 11 -65 -50zM226 -46l17 -5l55 115l6 17l-17 5l-44 -80zM252 202l17 -6l22 69l-17 6zM293 313l17 -5l44 80l11 34l-17 6l-50 -98zM414 262l17 -5l20 69l-17 5z M470 396l17 -5l37 64l10 35l-17 5l-42 -82zM539 507l17 -5l20 70l-17 5zM581 589l17 -5l56 135l10 34l-17 5l-56 -134zM669 771l17 -5l35 122l-17 5z" />
<glyph unicode="0" horiz-adv-x="1032" d="M18 456q139 663 238 663q0 50 68 85h17q-136 -167 -136 -221l119 153q0 51 374 187q113 -45 187 -153l-17 -17q27 -119 85 -119l17 17l51 -204l-17 -68l17 -51q-32 -304 -357 -680q-51 0 -51 -34l-17 17h-17l-102 -34l-102 17h-17v-17l136 -34v-17h-119l-153 119v-17 l34 -85h-17q-52 15 -119 204h-17v-34l34 -102q-64 0 -119 425zM69 626l17 -85h17v51l-17 17q44 0 85 221q34 0 34 85v51h-17l-102 -289l17 -51l-17 17h-17v-17zM290 337l17 -170q442 409 442 748v119l17 -17l51 17v17l-17 17v17q-74 0 -374 -204q-136 -297 -136 -459v-85z M477 31h17l68 17v17h-34l-51 -17v-17zM766 779h17l34 136l-17 68h-17l-17 -187v-17z" />
<glyph unicode="1" horiz-adv-x="464" d="M32 1167h17q141 97 222 126h104q86 -4 86 -256v-15q-67 -65 -78 -630l-81 -360v-71q-68 0 -67 -37q-89 0 -155 126h-34l162 774v18q-35 31 -54 72q0 32 -85 55zM178 428h17l16 90v18h-17l-16 -90v-18zM210 663l1 -73h17l-1 73h-17z" />
<glyph unicode="2" horiz-adv-x="978" d="M-50 -33l2 18q87 80 92 146l157 127h-16l-175 -146h-33l2 37q197 95 333 292l-15 19h16l15 -19l136 55l-15 18l1 19q120 0 219 310h-33q-5 -73 -73 -109l1 17q92 146 97 220q2 36 -94 73q-135 -37 -222 -110h-33l-65 19l-67 -19q-83 0 -77 92q179 256 298 256l186 54 q-3 -36 128 -54l1 18q268 -186 253 -420l-7 -92q-65 -170 -311 -457h67l-1 -17l-101 -19l-2 -37h16l84 19l15 -19l1 19l16 -19h49l18 19q103 -24 143 -92h49q-36 -200 -145 -200q-305 0 -586 -110l2 19l-18 -19q-153 0 -258 92h-50zM54 1026l2 36l178 183h16 q-160 -172 -163 -219h-33zM161 405l226 164h16l-2 -36l-207 -128h-33zM336 1300l36 36h17l-36 -36h-17zM508 660l1 18l54 56l-2 -19z" />
<glyph unicode="3" horiz-adv-x="1074" d="M34 232l86 19l-1 -19l18 19h17q82 -97 361 -173q4 46 196 134l19 20l3 38l-54 -38h-17l1 19q94 130 99 192l-66 39l-70 -39l-50 20q-21 -58 -106 -58h-34q-34 0 -28 77l-114 77q-34 0 -30 58q174 404 351 404l4 58l-344 -58h-17l2 19h33l2 20q-204 0 -200 58l2 19l20 58 l-30 38l1 20l120 18h33v-18q-68 0 -71 -39q307 77 735 77q68 -26 95 -96l-4 -58l-171 -269l-21 -58q249 -134 249 -310q0 -9 -1 -18l-2 -39q-21 -303 -267 -423l-10 96h-17q-50 0 -196 -134h-34l-2 -19h68l-36 -38l-50 18l-89 -58l-214 97l16 -19l-3 -38h-16q-84 30 -76 133 q-58 24 -90 174zM254 713l1 19q61 151 206 270l-2 -20q-120 -133 -173 -288h-17z" />
<glyph unicode="4" horiz-adv-x="1179" d="M12 477l22 85h-17q117 199 277 340l-1 -17l-204 -255v-17h17q43 121 330 391l-1 -17l-110 -136h17q204 244 526 527q77 -22 81 -68q-234 -199 -363 -357l-1 -17q192 191 376 306l13 -68q-101 -57 -216 -187l-3 -51l53 34h68l48 -51l-3 -51l-18 -17l-1 -17l15 -17h17 l22 68h34l14 -51l-23 -85l-8 -136h17l85 17l17 -17l17 17l29 -85h34l3 34h51l11 -85l-38 -68l13 -51h-136l-53 -51l-50 17l-3 -34h-17l-15 17h-17l-8 -119l4 -204q-34 0 -38 -68l-19 -17h-17l6 85h-17q-9 -136 -43 -136t-40 170h-17l-9 -153h-17q-34 0 -22 187l-49 51l23 85 l8 119l-531 -51l-115 51l1 17q9 85 39 85q3 51 -48 51zM294 902l1 17l72 68l-1 -17zM385 1004l1 17l127 119l-1 -17zM412 613h17q190 221 286 221l3 51l-32 34q-2 -45 -201 -221zM478 579h51l171 17l12 187q-199 -187 -233 -187zM585 1208l2 17l108 102l-1 -17zM721 664h17 l7 102h-17zM732 834l49 -17l3 34l-48 51z" />
<glyph unicode="5" horiz-adv-x="924" d="M8 121l17 17v17l51 -17q128 0 408 255l17 68h17v-34h17l34 85v17h-17v-34h-17l-34 34v17q-119 -17 -238 -85l-119 51q0 34 -68 34v51h34v-34l17 17h17l-68 119q65 306 102 306v-17l-68 -255q63 0 102 272l-51 34l34 68l-44 94v34h17q163 16 163 76l119 -17l505 37 l-46 -54q0 -57 85 -85v-17l-102 -153l-102 17q-374 0 -374 -119l-34 -136q442 -68 442 -238q0 -257 -323 -577l-306 -68l-102 34v17q109 0 119 50q-125 0 -204 119zM433 1260h119v17h-119v-17zM535 376h17l51 102v17h-17z" />
<glyph unicode="6" horiz-adv-x="1028" d="M17 292l17 85v204q126 431 459 663l136 85h102q102 0 102 -102l-17 -17h17l51 17q0 -26 -136 -85v-17l153 68v-17l-289 -187l-170 -255h17l68 17q260 -43 357 -119h17v-17h-51v-17l153 -68q0 -262 -340 -510l-272 -51q-189 0 -323 272q0 51 -51 51zM289 326 q0 -89 153 -119q208 0 323 204v17l-68 -17l-85 34v-17l-17 17h-17q-146 0 -289 -119zM306 666h17q7 60 323 442h-17q-286 -275 -323 -425v-17zM629 479h119v17h-119v-17zM782 241h17l34 51v17h-17zM884 411l17 -17h17v51z" />
<glyph unicode="7" horiz-adv-x="953" d="M23 1122q0 11 2 23q46 133 119 129l721 30q107 -6 130 -195l-170 -264q-67 -161 -111 -198h17l-132 -232l17 -1l-131 -231l-17 1l2 17l100 250l2 17l-17 1q-164 -292 -310 -698l-70 -13q-87 122 -76 209l409 810l16 -17l17 -1l-16 18l3 17q59 62 70 149l6 51l-70 -13 l-15 17l-433 -44l-30 36l3 16l86 13l16 -18l23 50l-17 1l-73 -31q-71 25 -71 101zM201 1049l34 -1l310 18l2 16l-119 7l-225 -23zM222 -279l2 17q34 -1 40 50l17 -1l-6 -51l-39 -33zM230 61l17 -1l209 431l1 17l-17 1l-48 -117l-17 1l4 34l-17 1l-4 -34l14 -18l-18 -15 l17 -2l-139 -281zM360 1229l34 -3l172 9l15 -18l120 10l3 17l-153 8l-189 -6zM460 525l17 -1l48 117l3 17h-17l-49 -116z" />
<glyph unicode="8" horiz-adv-x="995" d="M0 453l159 220v18h-34l2 37l16 -19h17l1 38l-50 17l20 147l-16 18v19q6 224 316 366h170l18 18q134 -36 133 -73l-188 -36l17 -19v-18l102 37h34q63 -74 135 -74q-1 -37 65 -91q-3 -113 79 -220l-1 -37q-113 -146 -157 -146l-1 -37l50 -73l-18 -19v-18q81 -119 80 -183 l-1 -19q-7 -254 -435 -365v-18l-17 18l-68 -18q-304 0 -418 274l3 109l18 19zM33 435h17l107 183h-17q-105 -124 -106 -165zM186 1076h17l106 147h-17zM285 288q20 -73 151 -73h17q119 0 208 165v18l-33 37h-170l-17 -18l-17 18h-17q-120 -37 -122 -147zM402 856 q16 -92 134 -92q204 19 206 110q-60 0 -133 92h34l150 -92h17q-104 202 -216 202q-165 -88 -192 -202l17 -18h-17zM557 948h17l33 -37h-17zM607 252h17l52 54q-68 -27 -69 -54zM721 709h17q120 19 121 55v19h-34l-103 -55zM876 801l51 -37l19 92h-17z" />
<glyph unicode="9" horiz-adv-x="1020" d="M-35 760v3l78 204q180 374 428 374q204 0 332 -136l-1 -17h-34l160 -204l71 -272q-16 -287 -376 -680q-251 -203 -317 -203l1 17l-88 -51h-34l-32 34l195 153l-224 -68l-16 17l1 17l35 34l-16 17l2 33l244 119q46 0 145 170q66 39 126 136l1 17h-17l-52 -17l-320 68v-17 q-153 25 -263 170l1 17l18 17v17q-48 0 -48 31zM81 66q4 29 176 119l16 -17l-1 -17zM292 865q-10 -204 262 -204h17q75 0 139 68q-39 238 -157 238h-51l-206 -51zM358 168l1 17l90 85l-1 -17l-73 -85h-17z" />
<glyph unicode=":" horiz-adv-x="627" d="M76 128l60 119l-50 48q5 76 214 76q40 0 85 -3l66 -65l-2 -19l37 -36l-1 -19h-39l-1 -19h39l-2 -17q-112 -29 -114 -65h39q-10 -148 -262 -148l-58 19v80q62 -25 78 2zM76 823q0 42 35 70l57 -9l-32 57l-50 48q5 76 214 76q40 0 85 -3l66 -65l-44 -19l37 -36l-1 -19h-39 l-1 -19h39l-2 -17q22 -59 3 -94l-53 -17q-127 28 -72 -69q-75 -100 -211 -23l-20 89q-11 27 -11 50z" />
<glyph unicode=";" horiz-adv-x="702" d="M76 823q0 42 35 70l57 -9l-32 57l-50 48q5 76 214 76q40 0 85 -3l66 -65l-44 -19l37 -36l-1 -19h-39l-1 -19h39l-2 -17q22 -59 3 -94l-53 -17q-127 28 -72 -69q-75 -100 -211 -23l-20 89q-11 27 -11 50zM138 49q0 124 55 124l4 4v5l-32 41q8 124 55 124l165 28h45 q46 -20 46 -101v-5q0 -44 -14 -106l5 -41q-83 -285 -128 -285q0 -47 -41 -69h-18q-51 10 -51 46q7 111 55 111l5 4v5l-28 41l9 55l-50 -18q-77 12 -77 23zM316 205h5l45 9v14h-4q-23 0 -46 -23z" />
<glyph unicode="&#x3c;" horiz-adv-x="1196" />
<glyph unicode="=" horiz-adv-x="1099" d="M119 414l17 34l37 39l-32 7l-5 12q48 48 356 95l164 -48l34 50l101 14l32 -4l100 -35l-14 -198l-26 -3q-444 40 -623 -11v2q-26 -7 -51 -17l-83 1q-6 14 -6 27q0 12 5 23zM139 750q-4 28 45 52l-6 48l-6 56l28 37l82 12q51 4 162 40l-19 -25l315 -5l102 14l21 51l84 -38 l-51 -218l-26 -3q-350 35 -553 -29l-45 23q-28 -7 -56 -17z" />
<glyph unicode="&#x3e;" horiz-adv-x="1196" />
<glyph unicode="?" horiz-adv-x="1371" d="M44 925v6l24 119l-16 17q41 34 120 34q13 212 713 255h17q419 -17 419 -100v-2l-4 -51v-289q-195 -194 -545 -323l-1 -17l16 -17q-3 -51 -123 -68l-1 -17h51l18 17l16 -17l18 17l-5 -68l-137 -34l1 17l-52 -17q-135 31 -133 68q54 40 61 170l73 68h-17l-53 -34l2 51 q185 170 283 170l-1 -17q-2 -28 -106 -68l-125 -85h34q233 61 510 272h17l1 34h-17l-104 -51l1 34h34l3 34h-170l-257 -17q-4 -82 -262 -136l-126 -119h-17l3 68h17l16 -17h17l1 17l-15 17l18 17h-17q-88 -40 -91 -102q-102 0 -97 85l36 34q-48 0 -48 45zM330 1186h17 q264 102 533 102q258 0 388 -68l2 34q-146 51 -337 51h-51q-374 0 -552 -119zM337 438l4 51l69 34h17l-39 -85h-51zM414 -4l41 119l-33 34q5 84 366 136l15 -17l-1 -17l-103 -17v-17h136l-1 -17h-34l-1 -17h34l-2 -17q-161 -137 -162 -170h34q-9 -136 -230 -136l-50 17l4 51 q51 0 52 34zM710 982q1 34 52 34h17l-1 -17zM759 659h51q159 102 210 102l1 17h-34l-227 -102zM854 1118h102l1 17h-102zM973 1118h68l1 17h-68z" />
<glyph unicode="@" horiz-adv-x="815" d="M-815 768l24 24l-24 36v84l24 24h36q367 0 1848 108h72v-48q0 -66 -588 -120l-12 -36h60l408 36v-24q-84 -8 -84 -36h24l120 12l12 -12v-12l-408 -72l-12 12l-60 -12h-12l-120 12l-108 -12h-12v12l12 12v12l-516 -24v-12h156v-24h-12l-780 -48zM-515 768h12l276 24v12 l-96 12l-192 -36v-12zM-263 720h60v12h-60v-12zM-71 804h108l-12 12v12l-96 -12v-12zM85 720v24h192v-24h-192z" />
<glyph unicode="A" d="M-71 152l289 697h17q0 -51 34 -51l17 85l-17 -17h-17v68l17 85l17 -17h17l-17 17v17l34 68h17l17 -17h17v17q0 34 -51 34l85 238h68l-17 -17v-17q118 68 221 68q11 -51 136 -51l136 -595h119v-17l-102 -17v-17q51 0 51 -34h136v-17q0 -38 -170 -68l34 -102l-17 -51 l17 -102l-17 -17h17l-17 -17l17 -204v-102l-17 17h-17l51 -255h-34q0 51 -34 51v-17l17 -51h-17l-17 17h-17q0 -51 -34 -51l-85 289h-17v-68h-17l-34 204l51 -34v17q-14 153 -51 153l17 17v51h-34v-51h-17v68l17 17h-17l-17 -17v68h17l17 -17h17l-17 17v102l-374 -85v-34 l119 34l68 -17l85 17v-34q-357 -64 -357 -170q-45 -187 -102 -238v-34h-51l-17 17h-17v-17l-51 34l34 102h-17q-51 0 -51 -136l-34 34l17 102zM167 611h17l34 68h-34zM218 713h17l17 51h-17l-17 -17v-34zM320 628h17l17 17v51h-17zM354 815l17 -68h17l51 153v17h-17 l-34 -119l-17 17h-17zM439 662h34q170 0 187 102l-68 255h-17zM473 611h34q153 17 153 51h-17l-170 -34v-17zM711 254h34v-102h-17zM779 50l51 17v34l-51 -17v-34zM949 101l17 -68h17v34l-17 68h-17v-34z" />
<glyph unicode="B" d="M10 158l19 15l-16 19l165 718l-15 18l17 -2l-15 18l45 252l1 17l-21 122l17 -1q95 52 149 52q6 0 11 -1l47 -40l156 17l15 -19l17 -2l52 11q286 -30 413 -284q27 -3 27 -56q0 -14 -2 -32l-13 -119l-34 4l2 17l23 49l-15 19l18 15l-15 19l-33 3q-11 -97 -194 -201l-2 -17 l17 -1q6 -1 13 -1q62 0 166 66l-3 -34l-97 -92q94 -10 275 -303q-20 -186 -555 -384q-205 -99 -326 -99q-14 0 -27 1l-30 39l-17 1q-4 -44 -56 -44q-8 0 -17 1q-6 -47 -34 -47h-6q-24 3 -24 63q0 25 4 59l-17 1l-26 -82l-17 2q5 44 5 77q0 93 -38 96zM329 260l15 -19l17 -2 q7 -1 15 0q132 0 538 213l38 30q-3 69 -128 82l-135 16l-309 -18zM444 1000l5 -120l155 17l-3 -34l251 109l-2 -17l-129 -88q211 58 227 197l-34 4q-9 -79 -55 -79h-5l3 34l-17 1l23 50l15 -19l17 -3l2 17q-62 59 -198 73q-33 4 -61 4q-178 0 -194 -146zM688 1349l4 34 l82 -26l-2 -17zM761 606l166 -36l17 -1l2 17l-66 24l-118 12zM763 161q376 150 384 231l-17 2l-14 19l-17 2q-6 -53 -336 -254zM769 1152l134 -32q3 34 -47 39l-85 10zM784 979l56 45l-1 -17l-38 -29zM947 431l73 43l-15 19l-17 3z" />
<glyph unicode="C" horiz-adv-x="1024" d="M16 476q0 426 170 544v-17l-102 -170v-17h17q0 162 425 459l-51 -17h-17v17l153 34h17q247 0 374 -204v-17h-34l17 -17v-17q-102 12 -102 34q-397 0 -595 -408l-34 -119l51 -323h51q212 0 476 306h17v-17q-181 -261 -408 -306v-17h17q178 0 442 306l51 -68v-51 q0 -55 -255 -255l-17 -17h-17v-34q289 141 289 204h34v-17q-214 -255 -493 -255v-17h85l68 17h17v-17l-204 -33q-129 0 -272 186v-17l85 -136v-16h-51q-158 108 -187 271zM67 255l17 -68h17v17l-17 102h-17v-51zM186 1020v17l85 85v-17zM322 1173q0 34 102 68h17v-17z" />
<glyph unicode="D" horiz-adv-x="1141" d="M13 198q51 770 170 1122h17l17 -17l34 34h68l51 -34l119 17q295 0 544 -340l85 -170l-17 -17l17 -85v-85q0 -437 -714 -663l-170 -17q0 43 -68 51v-68h-51v102l-17 17l17 17v17q-102 70 -102 119zM47 -6l34 34h17v-17l-34 -34h-17v17zM98 657h17l85 476v34h-17l-85 -493 v-17zM268 130l17 -51h34l34 34v17h-17l-51 -17zM285 300q99 0 510 170v17h-34q136 139 136 289v51q0 187 -255 221h-187q0 -34 -68 -34q-68 -310 -102 -714zM404 130h68l85 34v17h-17l-136 -34v-17zM795 249q40 6 119 102v17zM795 1031l68 -34v17l-51 34h-17v-17zM863 487 h17l34 68h-17zM931 606h34v51l17 68l-17 85h-17zM982 385h17l85 255v34h-17l-85 -272v-17z" />
<glyph unicode="E" horiz-adv-x="1028" d="M0 12v3l3 51l47 184l-16 18l34 -1l-6 -85l17 -2q10 82 38 82h2l-16 19l12 169l-34 3l-23 -84l19 16l17 -1l-7 -102l-17 2l3 50l-17 1l-2 -34l-17 1l2 34l54 287l-17 1l39 82l-16 18l1 17l37 287l16 -18l17 -1l2 34l-11 86l27 152l3 51l17 -2l16 -18l18 16l17 -2l16 -17 l18 16l51 -4l597 11l82 -57q-35 -145 -123 -145h-7l-444 -20l-2 -34l84 -6l103 10l16 -19l17 -1l120 10l34 -3l-1 -17l-395 -41l-31 -220l17 -1l462 37l15 -18l-1 -17l-34 3v-17l117 -26l-1 -17q-37 -95 -488 -154l-171 -6l16 -17l-82 -216h-17l10 153l-17 1l-33 -236 q422 56 639 57q45 0 80 -3l83 -23l-1 -34l-34 2l15 -18l-3 -51q-42 -55 -167 -55q-19 0 -41 1l-1 -17l136 -9l-3 -34l-791 -116l-17 1q-82 18 -82 53zM82 470l17 -1l8 118l-17 2zM342 538l1 16l154 7l-1 -17l155 23h17l-2 -17l-308 -31z" />
<glyph unicode="F" horiz-adv-x="966" d="M7 45v5q26 43 62 536h34l-16 17l22 136l16 -17h17l24 170l3 68q-85 0 -85 34l36 51q-65 0 -65 47q0 157 56 157q85 0 88 85h17l16 -17l36 34h51l49 -51l293 85l-2 -34h-51l-1 -17h17l324 17h68l-1 -17l-35 -34l16 -17l-1 -34q-3 -88 -55 -102l16 -51l-20 -51l-16 17h-17 q-238 -12 -239 -34l-17 17q-291 -46 -295 -170l-5 -136l409 34l17 -17l-1 -17h-85l-1 -17q85 0 83 -34v-17q-3 -85 -37 -85h-102l-1 -17h119l-1 -34q-1 -29 -430 -119l-24 -187l17 -17v-17l-18 -17l-1 -17l15 -51h-17l15 -51v-7q0 -74 -119 -257l-136 17l23 170 q-65 0 -65 63zM90 246h17l7 187h-17zM119 -120h17l3 68h-17zM548 1096h17l340 34l1 17l-50 17l-18 -17h-17l-16 17l-257 -51v-17zM707 1283h51l188 17v17h-102l-136 -17z" />
<glyph unicode="G" horiz-adv-x="1229" d="M31 487q0 68 8 137l3 34q15 130 122 340h17l-4 -34l-64 -119l-1 -17h17q17 155 331 391h17l2 17h-17l-53 -17q50 85 316 85l15 -17h17l2 17q268 -69 268 -192q0 -6 -1 -12l22 -102h-34q1 12 1 21q0 47 -28 47h-17l9 -85l-3 -17h-34q-29 0 -29 37q0 6 1 14l-19 -17h-17 q-85 68 -163 68q-170 0 -395 -357l-54 -187q-3 -24 -3 -46q0 -190 189 -277l-4 -34h-34l-2 -17h34q121 0 356 306l2 17h-17q-135 -163 -247 -238h-17l211 221h-119q4 34 -47 34l-15 17l2 17q3 34 175 51l4 34l-19 -17h-102l-89 119l19 17l1 17l186 -17l447 51l2 17 q-85 0 -81 34h17l15 -17l19 17h17q181 -52 177 -85l-1 -17l-19 -17l-2 -17h68l-4 -34h-17l-275 -34l-2 -17h17l155 17l-4 -34q-170 0 -185 -136l-81 -272l16 -17l-2 -17l-27 -85l3 -136l-37 -34l14 -17q-70 -22 -76 -85h-51q-23 0 -23 71q0 33 5 82h-17l-13 -119h-51l9 85 l-4 119h-34q-97 -68 -195 -68h-85l-29 34l1 17h34l2 17q-353 0 -382 238q-20 110 -20 220zM181 998l2 17l76 68l-3 -17zM259 1083l2 17l113 102h17zM464 -5h85l1 17h-85zM469 199l37 34h17l-37 -34h-17zM589 63l144 68l4 34h-17zM623 1151h119l1 17h-119zM1011 811h68 l-38 -34z" />
<glyph unicode="H" horiz-adv-x="1124" d="M20 203q68 574 153 833h17l-17 17v51l51 187h-17l17 51h17v-51h17v34h68q34 0 34 -102l51 -17q0 51 34 51l17 -17v-17l-85 -459l255 17h170l17 85l-17 17h34l-17 119v17h34l-17 17v34h34v34h-34v17h34l-17 17v119l17 -17h17v68l-17 17v17h51l-85 -578q34 0 102 561l68 17 q17 -136 51 -136h17q0 51 34 51h17q-85 -588 -255 -1377h-17l-17 17l17 17v136h-17l-51 -170h-51q-34 0 -34 102h-17v-68h-17q-34 0 -34 51q0 123 102 578h-17l-221 -17l-153 17q-51 -408 -102 -544h-51q-34 0 -34 136h-17l-17 -119l-34 34v51l17 17v17l-17 17h-17l-17 -17 h-17zM37 33v85h17v-85h-17zM139 628h17v68h-17v-68zM156 764h17l17 68v34h-17l-17 -85v-17zM190 883h17v68h-17v-68zM207 968h17l17 136v34h-17l-17 -136v-34zM241 1155h17v119h-17v-119zM751 322h17v68h-17v-68zM768 407h17l17 85v34h-17l-17 -102v-17zM853 67h17l17 119 v17h-17l-17 -85v-51z" />
<glyph unicode="I" horiz-adv-x="481" d="M43 85l31 255l17 306l37 51l4 68l-16 17l1 17h34l1 17l-16 17l69 323h-17l18 17l5 102l-16 17l1 17l189 17v-6q0 -45 64 -45l31 -68l-18 -17h17q-122 -360 -149 -833l-6 -102l17 -17l-1 -17l-18 -17h17l-18 -17l10 -119l-2 -34q-91 -110 -95 -170h-68l-82 34l24 119z M137 -68l35 34l4 51h-34zM140 595h17l5 102h-17zM165 748h17l6 102h-17zM191 901h17l6 119h-17z" />
<glyph unicode="J" horiz-adv-x="940" d="M3 55v51l17 -17h51v17q-8 221 -34 221l34 102q46 0 102 51h68l17 -102h34v34l-17 17v17l17 17h34q0 -51 51 -51l-17 -119v-51q11 -102 51 -102l51 153l17 -17h34q76 0 191 967l17 102l17 17h85v-85h51v51h68q-164 -1392 -344 -1392q0 -34 -170 -85l-17 17h-17l-85 -17 l-17 17v-17q-170 0 -170 153zM71 327h17v85h-17v-85zM479 293v17l34 170h17q0 -51 34 -51q0 -34 -51 -34l17 -17v-17l-34 -34h17l17 17v-34zM530 497v68h17v-68h-17z" />
<glyph unicode="K" horiz-adv-x="1103" d="M15 349q28 170 56 170l-17 17q51 468 102 561l-17 51l51 136v17l-17 17v17h34v-119h17l17 51l-17 17v17q17 51 102 51l17 -153q34 0 51 102h17l17 -68l-51 -272l187 136h17l-204 -187v-17l391 289l17 -17q229 187 306 187h17l17 -68l-136 -136h17q34 68 102 68l17 -17v17 l-17 17l17 17h51l17 -51q-128 -60 -595 -442q115 -251 408 -680v-34l-17 -119l-17 17h-17l-17 -68h-68v34h-17v-34h-34q0 60 -374 629l-34 102l-85 -17q-22 -409 -107 -510v-17l-170 17v51l17 119q-51 0 -51 102zM173 995h17l17 153v17h-17l-17 -102v-68zM581 1097l102 85 h17l-102 -85h-17zM615 145h17l51 -51h-17zM683 94q43 0 85 -170v-17h-17zM700 1182l68 68h17l-68 -68h-17zM785 1250q0 45 204 136l17 -17v-17l-17 -17l-17 17h-17l-153 -102h-17zM819 1029h17l68 51l17 17v17h-17l-68 -51l-17 -17v-17z" />
<glyph unicode="L" horiz-adv-x="1062" d="M7 -1v17q0 43 68 51v51l-51 68l68 765h17v-68l-17 -119h34l-34 -221l17 -17l-17 -68v-85h17l68 901q34 0 34 51l17 17h34q34 0 34 -102h34l51 34l17 -17l-85 -952q108 51 578 119h17v-17q-595 -97 -595 -153l187 51v-17l323 68v-17l17 17h17l17 -17l85 17h68l119 -17v-17 q0 -51 -255 -85v-17l17 17h17l119 -17l17 17v-51l-561 -136l-357 -136h-51l-68 85h-17z" />
<glyph unicode="M" horiz-adv-x="1212" d="M-7 -89l25 85l-1 187l7 85l18 17l-15 17l2 17q23 260 100 561h17l-16 17l2 17l23 68l-12 68l2 17h17l-3 -34h17l5 51l-16 17l62 119l4 51l-19 -17h-17l-15 17l4 51h17l16 -17h17l37 34h34l48 -34l1 17q91 -17 129 -85q59 0 122 -357l235 357l18 17h17l-1 -17l-241 -425 h34q267 527 318 527l48 -34l1 17q73 0 173 -170l-5 -51l-18 -17l15 -17l-6 -68h-34l25 -102l-33 -187l-5 -51l16 -17l-2 -17l-36 -34l30 -34l-36 -34l30 -34l-18 -17h-17l16 -17l-42 -476q-51 0 -55 -51q-51 0 -59 -85h-51l-96 68l26 102l-25 102l115 731q-85 -89 -186 -374 q-9 -99 -80 -136h-17l1 17l19 17l2 17l-16 17l37 34l4 51h-34q-7 -93 -80 -136h-17l-77 85q-45 0 -54 153q-81 164 -81 243q0 6 1 12h-17l-35 -204l-12 -136l-21 -51l9 -85l-32 -374q-34 0 -39 -51l-92 -85h-17zM697 574l13 -51h17q7 91 210 459l24 85q-127 -158 -264 -493z M860 1271l41 85h34l-3 -34l-40 -68l-15 17h-17zM877 -89h17l25 85l-13 51h-17zM944 489h17l49 357l-16 17h17l-15 17l1 17l19 17l1 17h-17l-18 -17z" />
<glyph unicode="N" horiz-adv-x="1283" d="M6 185q0 462 204 1122l136 17l119 -102q0 51 34 51h17l238 -612v-34h-17l-34 102h-17v-34l119 -289h17q68 442 196 923l51 -34l51 17l102 -51v-17q-51 0 -51 -68h17l17 -17h17l17 85h34v-17l-17 -17l17 -17v-17q-128 -393 -230 -1127h-34l34 272q-34 0 -102 -323 q-63 -51 -119 -51v-34h-17q0 34 -68 34v119q0 77 -340 850h-17q-68 -303 -119 -816l-17 17q-102 -30 -102 -85h-34q-34 64 -34 221h-17v-153h-34zM108 814h17l17 68l-17 17h-17v-17l17 -17l-17 -17v-34zM754 627q44 0 68 -136v-17h-17z" />
<glyph unicode="O" horiz-adv-x="1250" d="M31 402l17 17l-17 119v34q0 141 272 493v-17q-125 -168 -204 -374v-17h17q62 249 459 629l-119 -68h-17q0 78 323 119q200 0 374 -119l-17 -17v-17l68 -102h-34l-17 17h-17l51 -374h17q0 85 34 85v-68q0 -96 -170 -442h17q-120 -165 -357 -306l-85 -17h-17 q-404 0 -510 323zM82 436h17v136h-17v-136zM252 708h17l51 102h-17zM286 453q0 -136 153 -238h17q186 0 425 391q85 186 85 272v136q0 47 -170 68h-17l-17 -17h-17v17l-68 -34l-17 17v-17l17 -17l-119 -102q-141 0 -272 -476zM337 130l85 -51v17l-85 51v-17zM813 436h17 l68 85h-17zM898 538h51l51 119l-17 51h-17zM1068 555h17l17 68v17h-17l-17 -51v-34zM1170 912v85h34v-85h-34z" />
<glyph unicode="P" horiz-adv-x="1016" d="M8 1095l3 68q223 91 224 119l1 17l-33 34l-17 -17l-16 68l18 17h17l16 -17v-17l17 17h85q32 0 32 -76v-9h17q2 51 36 51q32 0 32 -45v-6l120 17l182 -34l68 17q130 0 200 -136l-18 -119l16 -17v-17l-37 -102h-17l1 34h-17q-132 -320 -372 -442l-276 -119l-9 -289l14 -85 q-34 0 -91 -170l-17 -17h-17l-134 68l22 136l-49 68l42 238l-17 17l62 323l-17 17l18 17h34l-2 -68h17l3 85l-15 51h34l2 85l-33 34l-2 -68h-17v8q0 102 -96 162zM91 534h34l4 85h-34l-1 -17l16 -17l-17 -17zM334 653h34q251 77 435 323h-17q-54 -96 -435 -289l-17 -17v-17z M353 738h34q219 92 384 306h-51q-341 -23 -343 -102z" />
<glyph unicode="Q" horiz-adv-x="1212" d="M26 309q0 491 272 748v17q181 221 255 221v-17l17 -17l153 68v17h17l17 -17l17 17h17q391 -180 391 -442v-119q0 -362 -238 -646v-34q90 -61 170 -187v-17q-112 -170 -153 -170q-105 0 -221 221l-119 -17h-102l-102 17h-17v-17l85 -17v-17l-102 -17q-357 179 -357 425z M60 326l17 -102h17v85l-17 17h-17zM196 139q0 -83 187 -187v17q-154 97 -170 187h-17v-17zM264 394q0 -145 102 -221h51q98 0 204 119l-68 170l17 17h34v-34l17 17h17l119 -34q170 266 170 476v85q-43 85 -136 85q-157 0 -408 -323q-119 -221 -119 -323v-34zM689 1159 l51 -17l136 34v17h-68l-17 -17h-17v17l17 17v17h-34q-56 -17 -68 -68zM774 360q54 24 119 153h-17q-102 -106 -102 -153zM825 1108l102 -17v34l-85 17l-17 -17v-17zM893 224h17l119 170v17q-85 -68 -136 -170v-17zM893 598q85 28 85 255v51h-17q0 -97 -68 -306zM1046 462h17 l68 357l-17 102h-17q0 -235 -51 -442v-17z" />
<glyph unicode="R" horiz-adv-x="1016" d="M18 81l20 155v68l102 476h17v-68h17l85 357q-34 0 -34 -68h-17v34h-102v17q0 34 102 51v17h-34l-102 -34h-17q0 34 68 34v17q-68 0 -68 51l306 153h204q357 -67 357 -306v-102l-170 -238h17l170 153v-34q-87 -194 -221 -255l-102 -34v-68q37 0 357 -442q68 -28 136 -136 v-17l-85 68v-17q85 -90 85 -136h-17l-85 -51h-17l-34 51l-17 -17h-17q-340 278 -476 561l-85 170q-60 0 -68 -204q3 -48 3 -85q0 -95 -20 -122q-30 -25 -30 -49q0 -16 13 -33v-34h-51q-34 0 -34 68h-17q0 -54 -41 -54q-10 0 -23 3zM123 559h17v68h-17v-68zM157 780v68h17 v-68h-17zM174 882v51l17 68h17v-51l-17 -68h-17zM378 729h17q267 128 374 272v34q0 58 -204 119l-102 -34zM633 100l68 -68q-33 77 -68 85v-17zM684 814h17l85 102v17h-17zM718 -2v-17l68 -51v17zM718 1154q34 -77 68 -85v34zM803 967h17l17 17v68h-17zM939 848v51h34 l-17 -51h-17z" />
<glyph unicode="S" horiz-adv-x="986" d="M16 180q0 10 1 21l53 34l49 -34h34q480 75 495 306q-201 102 -266 102l-1 -17l-167 68l16 -17l-1 -34q-212 156 -207 238l133 238l89 68l-2 -34l304 238q45 -34 286 -34l-1 -17h-119l-1 -17q213 0 266 -102l-2 -34h-85l-1 -17l118 -17l-1 -17h-102l-1 -17q51 0 49 -34 q-303 0 -541 -221l-1 -17q329 -88 521 -391l-1 -17q-62 -220 -347 -408l-104 -17l-1 -17h34q-2 -46 -312 -102l2 34h85l2 17q-109 0 -197 119q-76 39 -76 149zM307 -71h68l86 17v17h-17l-136 -17zM313 881l300 187l138 34l2 34h-34q-269 -100 -405 -238zM408 201h17l36 34 h-17zM501 48h17l71 51l-88 -34v-17zM641 116h17l73 85h-17z" />
<glyph unicode="T" horiz-adv-x="919" d="M-84 1142l17 85l-17 17q0 85 204 85l918 34l51 -17v-34h-51l34 -51q-37 -85 -272 -85l-119 -17l-17 -51h17q-51 -121 -204 -1088l51 -221h-17q-38 0 -68 170l17 170v17h-17v-34q-51 0 -51 -34v-17l34 -272v-17h-34l-68 51l-17 -17h-17q-68 147 -68 255l17 -17h17l-34 119 l51 17v85h-34v17q51 0 51 34v17h-34q0 136 51 136v221q27 24 68 357l-119 -17l-238 17v17l85 17v-17l17 17h255v51l-272 -34l-17 17h-17l-102 -17zM273 -14h34l-17 85v34l34 51h-17l17 17v17l-17 17v17l34 68l-17 68h-17zM936 1295h68v17h-68v-17z" />
<glyph unicode="U" horiz-adv-x="1045" d="M16 514q68 765 136 765v17h17v-68h-34v-34l17 -17v-17h-17l17 -51l-51 -85h17l17 17l-51 -306v-68h17q54 663 187 663l34 -51l-17 -85l17 -17h17l17 85h34l17 -51q-136 -490 -136 -765q17 -187 68 -187l391 442l17 85v476l34 34q34 0 34 -68h17q0 68 85 68l34 -68 l-17 -85q34 0 34 85h34l17 -17h17l-85 -1224l-17 -68q-68 0 -68 -68h-68l17 170h-34v-102l-51 -51v17l17 170q-51 0 -51 68h-17l-289 -136l-136 34v-17q-176 0 -238 510zM67 497h17l17 153h-17l-17 -17v-136zM118 208l17 -51h17v34l-17 51h-17v-34zM237 140q0 -59 153 -102 h34v17q-98 1 -187 102v-17zM492 378h17l119 136h-17z" />
<glyph unicode="V" horiz-adv-x="1041" d="M-12 1335q204 0 204 -136h17v51h34q68 -199 119 -544h-17l17 -17v-153h34l-17 -17v-85h17q67 169 272 459l17 -17l34 51h-17l-34 -34v17l187 204h34l68 -68l-85 -102h51q0 53 102 119v-51q-68 -8 -68 -51h34q0 51 51 51v-51q-87 -51 -255 -306l-357 -646h-34l-17 17 q-51 0 -51 -68h-34q-119 0 -119 119l17 51l-34 -34v-51l17 -17v-17l-17 -17h-34l-17 85l17 51h-17l17 17v102q-21 935 -119 935l17 51zM141 740h17v85h-17v-85zM158 502h17v187h-17v-187zM413 196l17 -17h17l34 102q-35 -8 -68 -85zM413 587v17l51 68v-17zM464 672v17l17 51 h17v-51l-17 -17h-17zM498 315l51 51v17l-51 -51v-17zM532 791v17q39 96 153 204v-17zM719 1046q40 74 85 85v-17l-68 -68h-17zM770 825h17l51 68v17h-17z" />
<glyph unicode="W" horiz-adv-x="1342" d="M19 145v68l68 -51l-34 289l17 17l-17 17l17 17h-17l17 17v238l17 85h-17l17 17v442l-17 17v17l51 34h51l17 -85q51 0 51 51h17l34 -34l-17 -102h17l-17 -17v-17l17 -17v-17h-17l17 -17v-17l-17 -561v-17h17l51 170h34l-119 -323h34l204 578h-34l-68 -221h-34v17l119 272 h17v-34l136 34q68 -25 68 -51l17 17h51l68 -408h17q0 76 268 876h17l17 -51h17v34h17q126 0 136 -51v-34l-34 -51v-17h34l17 119h34l34 -34v-17l-387 -1335l-51 -17v34l-17 -17h-17l-17 17q0 -68 -51 -68q-136 12 -136 51h17q-17 85 -68 119l-68 374q-29 -1 -204 -476 l-85 -85h-17l-17 68q260 430 272 663q-45 -45 -221 -510q-21 0 -68 -204h-153l-17 68l-17 -17h-17q0 92 -51 136zM869 468h17l268 893h-34q-251 -781 -251 -876v-17zM954 111h17l34 170v17h-17l-34 -153v-34zM1056 536h17l34 153v17h-17l-34 -153v-17z" />
<glyph unicode="X" horiz-adv-x="1170" d="M-18 16q0 96 408 714q-156 291 -187 442h17l-68 170h17l17 -17l102 34q187 -96 187 -272l102 -153l51 51h17l-68 -102l17 -17h17q380 442 493 442q62 0 102 -85q51 0 51 -34q0 -64 -289 -289l-238 -255v-34q153 -252 255 -561l-17 -51h17l-85 -119h-51v34l-51 -34 l-221 527h-17q-165 -201 -340 -578h-34v34l17 17l-17 17v17q85 207 306 561h17v51q-340 -470 -340 -595l-68 -34q-55 0 -119 119zM16 16l374 595q34 0 34 68h-17q-301 -394 -391 -663zM645 985v17l102 102h17zM747 798h17l34 51h-17zM764 1104v17l255 221h17l-255 -238h-17z M798 -1l17 -68h17v68l-17 17h-17v-17z" />
<glyph unicode="Y" horiz-adv-x="991" d="M1 1175v34h34l-34 85l17 17h34q39 0 51 -85l51 34h51q0 -105 183 -444q98 186 170 221v-17q-170 -216 -170 -255v-17h17l400 542v17l-196 -202v17l213 253h17v-34l17 17h17q119 -40 119 -68l-85 -102h34q68 35 68 85h51v-17l-17 -17l17 -17v-17q-590 -635 -590 -1018v-18 l-34 -169l17 -17v-17l-85 -153l-136 17v136l-51 67v34l17 204l17 -17h17l-17 17v17l17 17v17l-17 17l51 17l-17 -85v-68h17l20 205l-17 51h-17v-51h-17l-17 136l17 17v17zM283 -68v-68h17v68h-17zM473 578h34q147 283 349 542h-17q-366 -469 -366 -542zM575 1054v17l34 34 v-17z" />
<glyph unicode="Z" horiz-adv-x="970" d="M13 3l51 144l-34 36v71q126 215 154 215l17 -18l17 18v18h-17q0 54 68 54l68 90l-17 17l51 36l17 -18q152 239 205 251v-18l-188 -251h17l290 359h-17l-68 -54l-17 18v18l17 18l-171 -18h-204q-81 40 -120 125v18l34 54q-28 90 -85 90l17 18v17l103 -17l341 17l426 -125 v-36l17 -18l-17 -18h-17v-18h34l34 36h17v-71l-665 -807h102l103 19q211 -55 272 -162h18v-71l-35 -37h-17l-85 37l17 -19v-34l-136 34h-51q-165 0 -444 -107zM252 469h17l85 108h-17zM337 380h17l85 107h-17zM439 506h17l103 125h-17z" />
<glyph unicode="[" horiz-adv-x="569" />
<glyph unicode="\" horiz-adv-x="569" />
<glyph unicode="]" horiz-adv-x="569" />
<glyph unicode="^" horiz-adv-x="999" d="M69 900l150 200l32 57l-2 -7q64 64 139 270q6 72 59 99h13l-1 -12l-14 -13l-1 -12l12 -12l-28 -25l-3 -37h25q6 68 60 99h13l57 -62q33 0 40 -111q65 -128 60 -184l83 -206l65 21l-46 -86l-3 -37l14 12h13l11 -12l-3 -37h-13l-12 12h-12l-28 -25h-25l-36 25l-1 -12 q-68 12 -96 61q-44 0 -91 259l-175 -259l-13 -12h-13l1 12l179 308h-25q-199 -382 -237 -382l-36 25v-12q-48 0 -112 95zM235 989q95 115 197 358l-10 37h-13q-5 -66 -156 -333zM254 780l3 25l29 49l12 -12h12l-30 -62h-26zM488 1405l9 -37h13l9 99h-13z" />
<glyph unicode="_" horiz-adv-x="560" d="M4 -101l33 -2l179 27v-4l33 -8l168 23l15 -46l117 26l3 57l-115 15h65l16 17l-6 60h-467l-17 -15l7 -59l-29 -34zM155 -131l4 -26l96 13l12 8l-5 46l-95 -11z" />
<glyph unicode="`" horiz-adv-x="589" d="M110 1804q0 31 42 31l23 5l21 -5l49 10h13q17 0 50 -31q74 -46 137 -143l13 -39l-2 -3l-3 3h-13l3 -13l-3 -18q13 -25 13 -37l-2 -7l2 -16l-5 -8l5 -21v-13h-5l-21 45h-5v-3l5 -18h-2q13 -46 13 -63v-2q0 -4 -19 -13l-7 2l-13 -2h-8q-11 10 -68 161q-65 130 -174 174 q-20 0 -39 24z" />
<glyph unicode="a" d="M-71 152l289 697h17q0 -51 34 -51l17 85l-17 -17h-17v68l17 85l17 -17h17l-17 17v17l34 68h17l17 -17h17v17q0 34 -51 34l85 238h68l-17 -17v-17q118 68 221 68q11 -51 136 -51l136 -595h119v-17l-102 -17v-17q51 0 51 -34h136v-17q0 -38 -170 -68l34 -102l-17 -51 l17 -102l-17 -17h17l-17 -17l17 -204v-102l-17 17h-17l51 -255h-34q0 51 -34 51v-17l17 -51h-17l-17 17h-17q0 -51 -34 -51l-85 289h-17v-68h-17l-34 204l51 -34v17q-14 153 -51 153l17 17v51h-34v-51h-17v68l17 17h-17l-17 -17v68h17l17 -17h17l-17 17v102l-374 -85v-34 l119 34l68 -17l85 17v-34q-357 -64 -357 -170q-45 -187 -102 -238v-34h-51l-17 17h-17v-17l-51 34l34 102h-17q-51 0 -51 -136l-34 34l17 102zM167 611h17l34 68h-34zM218 713h17l17 51h-17l-17 -17v-34zM320 628h17l17 17v51h-17zM354 815l17 -68h17l51 153v17h-17 l-34 -119l-17 17h-17zM439 662h34q170 0 187 102l-68 255h-17zM473 611h34q153 17 153 51h-17l-170 -34v-17zM711 254h34v-102h-17zM779 50l51 17v34l-51 -17v-34zM949 101l17 -68h17v34l-17 68h-17v-34z" />
<glyph unicode="b" d="M10 158l19 15l-16 19l165 718l-15 18l17 -2l-15 18l45 252l1 17l-21 122l17 -1q95 52 149 52q6 0 11 -1l47 -40l156 17l15 -19l17 -2l52 11q286 -30 413 -284q27 -3 27 -56q0 -14 -2 -32l-13 -119l-34 4l2 17l23 49l-15 19l18 15l-15 19l-33 3q-11 -97 -194 -201l-2 -17 l17 -1q6 -1 13 -1q62 0 166 66l-3 -34l-97 -92q94 -10 275 -303q-20 -186 -555 -384q-205 -99 -326 -99q-14 0 -27 1l-30 39l-17 1q-4 -44 -56 -44q-8 0 -17 1q-6 -47 -34 -47h-6q-24 3 -24 63q0 25 4 59l-17 1l-26 -82l-17 2q5 44 5 77q0 93 -38 96zM329 260l15 -19l17 -2 q7 -1 15 0q132 0 538 213l38 30q-3 69 -128 82l-135 16l-309 -18zM444 1000l5 -120l155 17l-3 -34l251 109l-2 -17l-129 -88q211 58 227 197l-34 4q-9 -79 -55 -79h-5l3 34l-17 1l23 50l15 -19l17 -3l2 17q-62 59 -198 73q-33 4 -61 4q-178 0 -194 -146zM688 1349l4 34 l82 -26l-2 -17zM761 606l166 -36l17 -1l2 17l-66 24l-118 12zM763 161q376 150 384 231l-17 2l-14 19l-17 2q-6 -53 -336 -254zM769 1152l134 -32q3 34 -47 39l-85 10zM784 979l56 45l-1 -17l-38 -29zM947 431l73 43l-15 19l-17 3z" />
<glyph unicode="c" horiz-adv-x="1024" d="M16 476q0 426 170 544v-17l-102 -170v-17h17q0 162 425 459l-51 -17h-17v17l153 34h17q247 0 374 -204v-17h-34l17 -17v-17q-102 12 -102 34q-397 0 -595 -408l-34 -119l51 -323h51q212 0 476 306h17v-17q-181 -261 -408 -306v-17h17q178 0 442 306l51 -68v-51 q0 -55 -255 -255l-17 -17h-17v-34q289 141 289 204h34v-17q-214 -255 -493 -255v-17h85l68 17h17v-17l-204 -33q-129 0 -272 186v-17l85 -136v-16h-51q-158 108 -187 271zM67 255l17 -68h17v17l-17 102h-17v-51zM186 1020v17l85 85v-17zM322 1173q0 34 102 68h17v-17z" />
<glyph unicode="d" horiz-adv-x="1141" d="M13 198q51 770 170 1122h17l17 -17l34 34h68l51 -34l119 17q295 0 544 -340l85 -170l-17 -17l17 -85v-85q0 -437 -714 -663l-170 -17q0 43 -68 51v-68h-51v102l-17 17l17 17v17q-102 70 -102 119zM47 -6l34 34h17v-17l-34 -34h-17v17zM98 657h17l85 476v34h-17l-85 -493 v-17zM268 130l17 -51h34l34 34v17h-17l-51 -17zM285 300q99 0 510 170v17h-34q136 139 136 289v51q0 187 -255 221h-187q0 -34 -68 -34q-68 -310 -102 -714zM404 130h68l85 34v17h-17l-136 -34v-17zM795 249q40 6 119 102v17zM795 1031l68 -34v17l-51 34h-17v-17zM863 487 h17l34 68h-17zM931 606h34v51l17 68l-17 85h-17zM982 385h17l85 255v34h-17l-85 -272v-17z" />
<glyph unicode="e" horiz-adv-x="1028" d="M0 12v3l3 51l47 184l-16 18l34 -1l-6 -85l17 -2q10 82 38 82h2l-16 19l12 169l-34 3l-23 -84l19 16l17 -1l-7 -102l-17 2l3 50l-17 1l-2 -34l-17 1l2 34l54 287l-17 1l39 82l-16 18l1 17l37 287l16 -18l17 -1l2 34l-11 86l27 152l3 51l17 -2l16 -18l18 16l17 -2l16 -17 l18 16l51 -4l597 11l82 -57q-35 -145 -123 -145h-7l-444 -20l-2 -34l84 -6l103 10l16 -19l17 -1l120 10l34 -3l-1 -17l-395 -41l-31 -220l17 -1l462 37l15 -18l-1 -17l-34 3v-17l117 -26l-1 -17q-37 -95 -488 -154l-171 -6l16 -17l-82 -216h-17l10 153l-17 1l-33 -236 q422 56 639 57q45 0 80 -3l83 -23l-1 -34l-34 2l15 -18l-3 -51q-42 -55 -167 -55q-19 0 -41 1l-1 -17l136 -9l-3 -34l-791 -116l-17 1q-82 18 -82 53zM82 470l17 -1l8 118l-17 2zM342 538l1 16l154 7l-1 -17l155 23h17l-2 -17l-308 -31z" />
<glyph unicode="f" horiz-adv-x="966" d="M7 45v5q26 43 62 536h34l-16 17l22 136l16 -17h17l24 170l3 68q-85 0 -85 34l36 51q-65 0 -65 47q0 157 56 157q85 0 88 85h17l16 -17l36 34h51l49 -51l293 85l-2 -34h-51l-1 -17h17l324 17h68l-1 -17l-35 -34l16 -17l-1 -34q-3 -88 -55 -102l16 -51l-20 -51l-16 17h-17 q-238 -12 -239 -34l-17 17q-291 -46 -295 -170l-5 -136l409 34l17 -17l-1 -17h-85l-1 -17q85 0 83 -34v-17q-3 -85 -37 -85h-102l-1 -17h119l-1 -34q-1 -29 -430 -119l-24 -187l17 -17v-17l-18 -17l-1 -17l15 -51h-17l15 -51v-7q0 -74 -119 -257l-136 17l23 170 q-65 0 -65 63zM90 246h17l7 187h-17zM119 -120h17l3 68h-17zM548 1096h17l340 34l1 17l-50 17l-18 -17h-17l-16 17l-257 -51v-17zM707 1283h51l188 17v17h-102l-136 -17z" />
<glyph unicode="g" horiz-adv-x="1229" d="M31 487q0 68 8 137l3 34q15 130 122 340h17l-4 -34l-64 -119l-1 -17h17q17 155 331 391h17l2 17h-17l-53 -17q50 85 316 85l15 -17h17l2 17q268 -69 268 -192q0 -6 -1 -12l22 -102h-34q1 12 1 21q0 47 -28 47h-17l9 -85l-3 -17h-34q-29 0 -29 37q0 6 1 14l-19 -17h-17 q-85 68 -163 68q-170 0 -395 -357l-54 -187q-3 -24 -3 -46q0 -190 189 -277l-4 -34h-34l-2 -17h34q121 0 356 306l2 17h-17q-135 -163 -247 -238h-17l211 221h-119q4 34 -47 34l-15 17l2 17q3 34 175 51l4 34l-19 -17h-102l-89 119l19 17l1 17l186 -17l447 51l2 17 q-85 0 -81 34h17l15 -17l19 17h17q181 -52 177 -85l-1 -17l-19 -17l-2 -17h68l-4 -34h-17l-275 -34l-2 -17h17l155 17l-4 -34q-170 0 -185 -136l-81 -272l16 -17l-2 -17l-27 -85l3 -136l-37 -34l14 -17q-70 -22 -76 -85h-51q-23 0 -23 71q0 33 5 82h-17l-13 -119h-51l9 85 l-4 119h-34q-97 -68 -195 -68h-85l-29 34l1 17h34l2 17q-353 0 -382 238q-20 110 -20 220zM181 998l2 17l76 68l-3 -17zM259 1083l2 17l113 102h17zM464 -5h85l1 17h-85zM469 199l37 34h17l-37 -34h-17zM589 63l144 68l4 34h-17zM623 1151h119l1 17h-119zM1011 811h68 l-38 -34z" />
<glyph unicode="h" horiz-adv-x="1124" d="M20 203q68 574 153 833h17l-17 17v51l51 187h-17l17 51h17v-51h17v34h68q34 0 34 -102l51 -17q0 51 34 51l17 -17v-17l-85 -459l255 17h170l17 85l-17 17h34l-17 119v17h34l-17 17v34h34v34h-34v17h34l-17 17v119l17 -17h17v68l-17 17v17h51l-85 -578q34 0 102 561l68 17 q17 -136 51 -136h17q0 51 34 51h17q-85 -588 -255 -1377h-17l-17 17l17 17v136h-17l-51 -170h-51q-34 0 -34 102h-17v-68h-17q-34 0 -34 51q0 123 102 578h-17l-221 -17l-153 17q-51 -408 -102 -544h-51q-34 0 -34 136h-17l-17 -119l-34 34v51l17 17v17l-17 17h-17l-17 -17 h-17zM37 33v85h17v-85h-17zM139 628h17v68h-17v-68zM156 764h17l17 68v34h-17l-17 -85v-17zM190 883h17v68h-17v-68zM207 968h17l17 136v34h-17l-17 -136v-34zM241 1155h17v119h-17v-119zM751 322h17v68h-17v-68zM768 407h17l17 85v34h-17l-17 -102v-17zM853 67h17l17 119 v17h-17l-17 -85v-51z" />
<glyph unicode="i" horiz-adv-x="481" d="M43 85l31 255l17 306l37 51l4 68l-16 17l1 17h34l1 17l-16 17l69 323h-17l18 17l5 102l-16 17l1 17l189 17v-6q0 -45 64 -45l31 -68l-18 -17h17q-122 -360 -149 -833l-6 -102l17 -17l-1 -17l-18 -17h17l-18 -17l10 -119l-2 -34q-91 -110 -95 -170h-68l-82 34l24 119z M137 -68l35 34l4 51h-34zM140 595h17l5 102h-17zM165 748h17l6 102h-17zM191 901h17l6 119h-17z" />
<glyph unicode="j" horiz-adv-x="940" d="M3 55v51l17 -17h51v17q-8 221 -34 221l34 102q46 0 102 51h68l17 -102h34v34l-17 17v17l17 17h34q0 -51 51 -51l-17 -119v-51q11 -102 51 -102l51 153l17 -17h34q76 0 191 967l17 102l17 17h85v-85h51v51h68q-164 -1392 -344 -1392q0 -34 -170 -85l-17 17h-17l-85 -17 l-17 17v-17q-170 0 -170 153zM71 327h17v85h-17v-85zM479 293v17l34 170h17q0 -51 34 -51q0 -34 -51 -34l17 -17v-17l-34 -34h17l17 17v-34zM530 497v68h17v-68h-17z" />
<glyph unicode="k" horiz-adv-x="1103" d="M15 349q28 170 56 170l-17 17q51 468 102 561l-17 51l51 136v17l-17 17v17h34v-119h17l17 51l-17 17v17q17 51 102 51l17 -153q34 0 51 102h17l17 -68l-51 -272l187 136h17l-204 -187v-17l391 289l17 -17q229 187 306 187h17l17 -68l-136 -136h17q34 68 102 68l17 -17v17 l-17 17l17 17h51l17 -51q-128 -60 -595 -442q115 -251 408 -680v-34l-17 -119l-17 17h-17l-17 -68h-68v34h-17v-34h-34q0 60 -374 629l-34 102l-85 -17q-22 -409 -107 -510v-17l-170 17v51l17 119q-51 0 -51 102zM173 995h17l17 153v17h-17l-17 -102v-68zM581 1097l102 85 h17l-102 -85h-17zM615 145h17l51 -51h-17zM683 94q43 0 85 -170v-17h-17zM700 1182l68 68h17l-68 -68h-17zM785 1250q0 45 204 136l17 -17v-17l-17 -17l-17 17h-17l-153 -102h-17zM819 1029h17l68 51l17 17v17h-17l-68 -51l-17 -17v-17z" />
<glyph unicode="l" horiz-adv-x="1062" d="M7 -1v17q0 43 68 51v51l-51 68l68 765h17v-68l-17 -119h34l-34 -221l17 -17l-17 -68v-85h17l68 901q34 0 34 51l17 17h34q34 0 34 -102h34l51 34l17 -17l-85 -952q108 51 578 119h17v-17q-595 -97 -595 -153l187 51v-17l323 68v-17l17 17h17l17 -17l85 17h68l119 -17v-17 q0 -51 -255 -85v-17l17 17h17l119 -17l17 17v-51l-561 -136l-357 -136h-51l-68 85h-17z" />
<glyph unicode="m" horiz-adv-x="1212" d="M-7 -89l25 85l-1 187l7 85l18 17l-15 17l2 17q23 260 100 561h17l-16 17l2 17l23 68l-12 68l2 17h17l-3 -34h17l5 51l-16 17l62 119l4 51l-19 -17h-17l-15 17l4 51h17l16 -17h17l37 34h34l48 -34l1 17q91 -17 129 -85q59 0 122 -357l235 357l18 17h17l-1 -17l-241 -425 h34q267 527 318 527l48 -34l1 17q73 0 173 -170l-5 -51l-18 -17l15 -17l-6 -68h-34l25 -102l-33 -187l-5 -51l16 -17l-2 -17l-36 -34l30 -34l-36 -34l30 -34l-18 -17h-17l16 -17l-42 -476q-51 0 -55 -51q-51 0 -59 -85h-51l-96 68l26 102l-25 102l115 731q-85 -89 -186 -374 q-9 -99 -80 -136h-17l1 17l19 17l2 17l-16 17l37 34l4 51h-34q-7 -93 -80 -136h-17l-77 85q-45 0 -54 153q-81 164 -81 243q0 6 1 12h-17l-35 -204l-12 -136l-21 -51l9 -85l-32 -374q-34 0 -39 -51l-92 -85h-17zM697 574l13 -51h17q7 91 210 459l24 85q-127 -158 -264 -493z M860 1271l41 85h34l-3 -34l-40 -68l-15 17h-17zM877 -89h17l25 85l-13 51h-17zM944 489h17l49 357l-16 17h17l-15 17l1 17l19 17l1 17h-17l-18 -17z" />
<glyph unicode="n" horiz-adv-x="1283" d="M6 185q0 462 204 1122l136 17l119 -102q0 51 34 51h17l238 -612v-34h-17l-34 102h-17v-34l119 -289h17q68 442 196 923l51 -34l51 17l102 -51v-17q-51 0 -51 -68h17l17 -17h17l17 85h34v-17l-17 -17l17 -17v-17q-128 -393 -230 -1127h-34l34 272q-34 0 -102 -323 q-63 -51 -119 -51v-34h-17q0 34 -68 34v119q0 77 -340 850h-17q-68 -303 -119 -816l-17 17q-102 -30 -102 -85h-34q-34 64 -34 221h-17v-153h-34zM108 814h17l17 68l-17 17h-17v-17l17 -17l-17 -17v-34zM754 627q44 0 68 -136v-17h-17z" />
<glyph unicode="o" horiz-adv-x="1250" d="M31 402l17 17l-17 119v34q0 141 272 493v-17q-125 -168 -204 -374v-17h17q62 249 459 629l-119 -68h-17q0 78 323 119q200 0 374 -119l-17 -17v-17l68 -102h-34l-17 17h-17l51 -374h17q0 85 34 85v-68q0 -96 -170 -442h17q-120 -165 -357 -306l-85 -17h-17 q-404 0 -510 323zM82 436h17v136h-17v-136zM252 708h17l51 102h-17zM286 453q0 -136 153 -238h17q186 0 425 391q85 186 85 272v136q0 47 -170 68h-17l-17 -17h-17v17l-68 -34l-17 17v-17l17 -17l-119 -102q-141 0 -272 -476zM337 130l85 -51v17l-85 51v-17zM813 436h17 l68 85h-17zM898 538h51l51 119l-17 51h-17zM1068 555h17l17 68v17h-17l-17 -51v-34zM1170 912v85h34v-85h-34z" />
<glyph unicode="p" horiz-adv-x="1016" d="M8 1095l3 68q223 91 224 119l1 17l-33 34l-17 -17l-16 68l18 17h17l16 -17v-17l17 17h85q32 0 32 -76v-9h17q2 51 36 51q32 0 32 -45v-6l120 17l182 -34l68 17q130 0 200 -136l-18 -119l16 -17v-17l-37 -102h-17l1 34h-17q-132 -320 -372 -442l-276 -119l-9 -289l14 -85 q-34 0 -91 -170l-17 -17h-17l-134 68l22 136l-49 68l42 238l-17 17l62 323l-17 17l18 17h34l-2 -68h17l3 85l-15 51h34l2 85l-33 34l-2 -68h-17v8q0 102 -96 162zM91 534h34l4 85h-34l-1 -17l16 -17l-17 -17zM334 653h34q251 77 435 323h-17q-54 -96 -435 -289l-17 -17v-17z M353 738h34q219 92 384 306h-51q-341 -23 -343 -102z" />
<glyph unicode="q" horiz-adv-x="1212" d="M26 309q0 491 272 748v17q181 221 255 221v-17l17 -17l153 68v17h17l17 -17l17 17h17q391 -180 391 -442v-119q0 -362 -238 -646v-34q90 -61 170 -187v-17q-112 -170 -153 -170q-105 0 -221 221l-119 -17h-102l-102 17h-17v-17l85 -17v-17l-102 -17q-357 179 -357 425z M60 326l17 -102h17v85l-17 17h-17zM196 139q0 -83 187 -187v17q-154 97 -170 187h-17v-17zM264 394q0 -145 102 -221h51q98 0 204 119l-68 170l17 17h34v-34l17 17h17l119 -34q170 266 170 476v85q-43 85 -136 85q-157 0 -408 -323q-119 -221 -119 -323v-34zM689 1159 l51 -17l136 34v17h-68l-17 -17h-17v17l17 17v17h-34q-56 -17 -68 -68zM774 360q54 24 119 153h-17q-102 -106 -102 -153zM825 1108l102 -17v34l-85 17l-17 -17v-17zM893 224h17l119 170v17q-85 -68 -136 -170v-17zM893 598q85 28 85 255v51h-17q0 -97 -68 -306zM1046 462h17 l68 357l-17 102h-17q0 -235 -51 -442v-17z" />
<glyph unicode="r" horiz-adv-x="1016" d="M18 81l20 155v68l102 476h17v-68h17l85 357q-34 0 -34 -68h-17v34h-102v17q0 34 102 51v17h-34l-102 -34h-17q0 34 68 34v17q-68 0 -68 51l306 153h204q357 -67 357 -306v-102l-170 -238h17l170 153v-34q-87 -194 -221 -255l-102 -34v-68q37 0 357 -442q68 -28 136 -136 v-17l-85 68v-17q85 -90 85 -136h-17l-85 -51h-17l-34 51l-17 -17h-17q-340 278 -476 561l-85 170q-60 0 -68 -204q3 -48 3 -85q0 -95 -20 -122q-30 -25 -30 -49q0 -16 13 -33v-34h-51q-34 0 -34 68h-17q0 -54 -41 -54q-10 0 -23 3zM123 559h17v68h-17v-68zM157 780v68h17 v-68h-17zM174 882v51l17 68h17v-51l-17 -68h-17zM378 729h17q267 128 374 272v34q0 58 -204 119l-102 -34zM633 100l68 -68q-33 77 -68 85v-17zM684 814h17l85 102v17h-17zM718 -2v-17l68 -51v17zM718 1154q34 -77 68 -85v34zM803 967h17l17 17v68h-17zM939 848v51h34 l-17 -51h-17z" />
<glyph unicode="s" horiz-adv-x="986" d="M16 180q0 10 1 21l53 34l49 -34h34q480 75 495 306q-201 102 -266 102l-1 -17l-167 68l16 -17l-1 -34q-212 156 -207 238l133 238l89 68l-2 -34l304 238q45 -34 286 -34l-1 -17h-119l-1 -17q213 0 266 -102l-2 -34h-85l-1 -17l118 -17l-1 -17h-102l-1 -17q51 0 49 -34 q-303 0 -541 -221l-1 -17q329 -88 521 -391l-1 -17q-62 -220 -347 -408l-104 -17l-1 -17h34q-2 -46 -312 -102l2 34h85l2 17q-109 0 -197 119q-76 39 -76 149zM307 -71h68l86 17v17h-17l-136 -17zM313 881l300 187l138 34l2 34h-34q-269 -100 -405 -238zM408 201h17l36 34 h-17zM501 48h17l71 51l-88 -34v-17zM641 116h17l73 85h-17z" />
<glyph unicode="t" horiz-adv-x="919" d="M-84 1142l17 85l-17 17q0 85 204 85l918 34l51 -17v-34h-51l34 -51q-37 -85 -272 -85l-119 -17l-17 -51h17q-51 -121 -204 -1088l51 -221h-17q-38 0 -68 170l17 170v17h-17v-34q-51 0 -51 -34v-17l34 -272v-17h-34l-68 51l-17 -17h-17q-68 147 -68 255l17 -17h17l-34 119 l51 17v85h-34v17q51 0 51 34v17h-34q0 136 51 136v221q27 24 68 357l-119 -17l-238 17v17l85 17v-17l17 17h255v51l-272 -34l-17 17h-17l-102 -17zM273 -14h34l-17 85v34l34 51h-17l17 17v17l-17 17v17l34 68l-17 68h-17zM936 1295h68v17h-68v-17z" />
<glyph unicode="u" horiz-adv-x="1045" d="M16 514q68 765 136 765v17h17v-68h-34v-34l17 -17v-17h-17l17 -51l-51 -85h17l17 17l-51 -306v-68h17q54 663 187 663l34 -51l-17 -85l17 -17h17l17 85h34l17 -51q-136 -490 -136 -765q17 -187 68 -187l391 442l17 85v476l34 34q34 0 34 -68h17q0 68 85 68l34 -68 l-17 -85q34 0 34 85h34l17 -17h17l-85 -1224l-17 -68q-68 0 -68 -68h-68l17 170h-34v-102l-51 -51v17l17 170q-51 0 -51 68h-17l-289 -136l-136 34v-17q-176 0 -238 510zM67 497h17l17 153h-17l-17 -17v-136zM118 208l17 -51h17v34l-17 51h-17v-34zM237 140q0 -59 153 -102 h34v17q-98 1 -187 102v-17zM492 378h17l119 136h-17z" />
<glyph unicode="v" horiz-adv-x="1041" d="M-12 1335q204 0 204 -136h17v51h34q68 -199 119 -544h-17l17 -17v-153h34l-17 -17v-85h17q67 169 272 459l17 -17l34 51h-17l-34 -34v17l187 204h34l68 -68l-85 -102h51q0 53 102 119v-51q-68 -8 -68 -51h34q0 51 51 51v-51q-87 -51 -255 -306l-357 -646h-34l-17 17 q-51 0 -51 -68h-34q-119 0 -119 119l17 51l-34 -34v-51l17 -17v-17l-17 -17h-34l-17 85l17 51h-17l17 17v102q-21 935 -119 935l17 51zM141 740h17v85h-17v-85zM158 502h17v187h-17v-187zM413 196l17 -17h17l34 102q-35 -8 -68 -85zM413 587v17l51 68v-17zM464 672v17l17 51 h17v-51l-17 -17h-17zM498 315l51 51v17l-51 -51v-17zM532 791v17q39 96 153 204v-17zM719 1046q40 74 85 85v-17l-68 -68h-17zM770 825h17l51 68v17h-17z" />
<glyph unicode="w" horiz-adv-x="1342" d="M19 145v68l68 -51l-34 289l17 17l-17 17l17 17h-17l17 17v238l17 85h-17l17 17v442l-17 17v17l51 34h51l17 -85q51 0 51 51h17l34 -34l-17 -102h17l-17 -17v-17l17 -17v-17h-17l17 -17v-17l-17 -561v-17h17l51 170h34l-119 -323h34l204 578h-34l-68 -221h-34v17l119 272 h17v-34l136 34q68 -25 68 -51l17 17h51l68 -408h17q0 76 268 876h17l17 -51h17v34h17q126 0 136 -51v-34l-34 -51v-17h34l17 119h34l34 -34v-17l-387 -1335l-51 -17v34l-17 -17h-17l-17 17q0 -68 -51 -68q-136 12 -136 51h17q-17 85 -68 119l-68 374q-29 -1 -204 -476 l-85 -85h-17l-17 68q260 430 272 663q-45 -45 -221 -510q-21 0 -68 -204h-153l-17 68l-17 -17h-17q0 92 -51 136zM869 468h17l268 893h-34q-251 -781 -251 -876v-17zM954 111h17l34 170v17h-17l-34 -153v-34zM1056 536h17l34 153v17h-17l-34 -153v-17z" />
<glyph unicode="x" horiz-adv-x="1170" d="M-18 16q0 96 408 714q-156 291 -187 442h17l-68 170h17l17 -17l102 34q187 -96 187 -272l102 -153l51 51h17l-68 -102l17 -17h17q380 442 493 442q62 0 102 -85q51 0 51 -34q0 -64 -289 -289l-238 -255v-34q153 -252 255 -561l-17 -51h17l-85 -119h-51v34l-51 -34 l-221 527h-17q-165 -201 -340 -578h-34v34l17 17l-17 17v17q85 207 306 561h17v51q-340 -470 -340 -595l-68 -34q-55 0 -119 119zM16 16l374 595q34 0 34 68h-17q-301 -394 -391 -663zM645 985v17l102 102h17zM747 798h17l34 51h-17zM764 1104v17l255 221h17l-255 -238h-17z M798 -1l17 -68h17v68l-17 17h-17v-17z" />
<glyph unicode="y" horiz-adv-x="991" d="M1 1175v34h34l-34 85l17 17h34q39 0 51 -85l51 34h51q0 -105 183 -444q98 186 170 221v-17q-170 -216 -170 -255v-17h17l400 542v17l-196 -202v17l213 253h17v-34l17 17h17q119 -40 119 -68l-85 -102h34q68 35 68 85h51v-17l-17 -17l17 -17v-17q-590 -635 -590 -1018v-18 l-34 -169l17 -17v-17l-85 -153l-136 17v136l-51 67v34l17 204l17 -17h17l-17 17v17l17 17v17l-17 17l51 17l-17 -85v-68h17l20 205l-17 51h-17v-51h-17l-17 136l17 17v17zM283 -68v-68h17v68h-17zM473 578h34q147 283 349 542h-17q-366 -469 -366 -542zM575 1054v17l34 34 v-17z" />
<glyph unicode="z" horiz-adv-x="970" d="M13 3l51 144l-34 36v71q126 215 154 215l17 -18l17 18v18h-17q0 54 68 54l68 90l-17 17l51 36l17 -18q152 239 205 251v-18l-188 -251h17l290 359h-17l-68 -54l-17 18v18l17 18l-171 -18h-204q-81 40 -120 125v18l34 54q-28 90 -85 90l17 18v17l103 -17l341 17l426 -125 v-36l17 -18l-17 -18h-17v-18h34l34 36h17v-71l-665 -807h102l103 19q211 -55 272 -162h18v-71l-35 -37h-17l-85 37l17 -19v-34l-136 34h-51q-165 0 -444 -107zM252 469h17l85 108h-17zM337 380h17l85 107h-17zM439 506h17l103 125h-17z" />
<glyph unicode="{" horiz-adv-x="684" />
<glyph unicode="|" horiz-adv-x="532" />
<glyph unicode="}" horiz-adv-x="684" />
<glyph unicode="~" horiz-adv-x="936" d="M40 859q0 13 47 82l78 111q50 78 112 132h7q24 0 78 -99q53 -55 82 -151l5 -3h7q72 0 225 200q37 37 101 122l61 68l21 -33l-4 -3l4 -4h3l5 4l4 -4v-3q0 -30 -26 -72q0 -16 -28 -58h3l54 62h4v-4l-4 -17q7 0 11 -22q-34 -65 -82 -130l-16 -24l4 -4h7q0 16 26 36h3v-3 q-50 -61 -50 -72l17 14h4v-3q-63 -93 -147 -182l4 -5v-3q0 -33 -86 -64l-17 -3q-67 0 -162 142l-47 53q-51 -64 -78 -135l-14 -7h-7l-12 7h-4q-6 0 -43 -75l-2 -4h-5q-45 0 -75 72q-38 0 -68 82z" />
<glyph unicode="&#xa1;" horiz-adv-x="552" d="M77 1056l1 17l102 17l1 17l-70 21l1 17h34l1 17h-34l2 17q94 116 96 149h-34q8 136 229 136l51 -17l-4 -51q-51 0 -52 -34l65 -34l-41 -119l32 -34q-5 -84 -365 -136zM82 -81q93 387 93 629v20q0 122 -74 344l19 62q45 0 55 -81h19v40h74l37 -101l19 20h18 q130 -103 130 -345v-40l-37 -406h-19l-36 -81l-38 -40v60h-18v-81l37 -40l-56 -61l-49 -49l-7 69l-49 -49l-6 69l-99 -75l90 266l-10 82l-86 -301l-7 69v20zM101 1233l16 -8l35 73l-16 8zM347 127l18 -81h18v81h-36zM370 928l92 -183q-55 183 -92 183zM399 598l19 -141h19 v102l-19 101h-19v-62z" />
<glyph unicode="&#xa2;" horiz-adv-x="1139" />
<glyph unicode="&#xa3;" horiz-adv-x="1139" />
<glyph unicode="&#xa5;" horiz-adv-x="1139" />
<glyph unicode="&#xa6;" horiz-adv-x="532" />
<glyph unicode="&#xa7;" horiz-adv-x="1139" />
<glyph unicode="&#xa8;" horiz-adv-x="866" d="M142 1666q77 105 176 134l19 3q39 -2 39 -9l-4 -4v-3q12 0 29 -19v-10q-9 -10 -41 -22q-62 -35 -71 -51h3q74 54 125 54l13 -25q4 0 6 -23q13 0 13 -29q-106 -66 -118 -96q-13 -2 -32 -60l-35 -10q-55 34 -55 67q-5 0 -9 16q-22 0 -55 58zM519 1650v3q126 132 170 148 l16 6l3 -3l16 3h3l32 -38v-10q-70 -62 -70 -70h3q48 41 77 48l16 -32l-10 -32l4 3h6l10 -10v-3q-4 -22 -90 -109q-25 -32 -32 -61l-13 -9h-3q-14 0 -51 32q-11 0 -16 32q-16 22 -26 22q-45 49 -45 80z" />
<glyph unicode="&#xa9;" horiz-adv-x="1509" />
<glyph unicode="&#xaa;" horiz-adv-x="652" d="M-13 718l159 383h9q0 -28 19 -28l9 47l-9 -9h-9v37l9 47l9 -9h10l-10 9v9l19 38h9l10 -10h9v10q0 18 -28 18l47 131h37l-9 -9v-9q65 37 121 37q6 -28 75 -28l75 -327h65v-10l-56 -9v-9q28 0 28 -19h75v-9q0 -22 -93 -38l18 -56l-9 -28l9 -56l-9 -9h9l-9 -10l9 -112v-56 l-9 9h-9l28 -140h-19q0 28 -19 28v-9l10 -28h-10l-9 9h-9q0 -28 -19 -28l-47 159h-9v-38h-9l-19 113l28 -19v9q-8 84 -28 84l9 10v28h-19v-28h-9v37l9 10h-9l-9 -10v38h9l9 -10h10l-10 10v56l-205 -47v-19l65 19l38 -9l46 9v-19q-196 -35 -196 -93q-25 -103 -56 -131v-19 h-28l-9 10h-10v-10l-28 19l19 56h-10q-28 0 -28 -75l-18 19l9 56zM118 970h9l19 38h-19zM146 1027h9l10 28h-10l-9 -10v-18zM202 980h9l10 9v28h-10zM221 1083l9 -38h9l29 84v10h-10l-19 -66l-9 10h-9zM268 999h18q94 0 103 56l-37 140h-10zM286 970h19q84 10 84 29h-9 l-94 -19v-10zM417 774h19v-56h-10zM455 662l28 9v19l-28 -9v-19zM548 690l9 -37h10v18l-10 38h-9v-19z" />
<glyph unicode="&#xab;" horiz-adv-x="1003" d="M98 389l5 71l-5 8l5 9q13 20 2 50l15 25l38 -3l247 333l5 -7l-20 -33l-41 -48l10 -17l-10 -36v-4l177 260q11 -17 25 8h10l11 -16q10 -16 -20 -64l11 -16l58 38v-16l-347 -451l217 -219l5 -9l-5 -8l-41 15l-4 -8l9 1l6 -8v-16l30 -32l21 -31l31 -63l-5 -8 q-127 171 -160 168l58 -66q47 -68 62 -103l-25 -25l-210 196l-150 101zM454 447l6 10q7 13 19 6q9 5 20 -7l11 18l5 58l246 343l6 -9l-6 -9l13 18l4 -9l-19 -34l-41 -49l8 -13l110 157q4 -6 9 -6l3 5l3 -3q5 4 10 13h11l57 49q2 -3 2 -8l10 8q10 -16 -20 -67l10 -16l26 -7 v-17l-307 -427q47 -26 210 -219l5 -8l-5 -8q-4 4 -7 8l-5 -8q-169 192 -212 211l-1 -1l71 -64l-5 -9l118 -122l-3 -5l-9 6l-4 -6l-1 -2h2l6 -6l21 -31l30 -66l-4 -8q-5 -8 -16 -4q-16 -8 -68 49l23 -47h9l-31 -22l-5 5l-8 -5l-142 148l-90 106l-16 24l-53 73zM611 605l24 35 l-7 -7zM652 674l1 -9l44 63zM706 783l1 -1l15 21z" />
<glyph unicode="&#xac;" horiz-adv-x="1196" />
<glyph unicode="&#xad;" horiz-adv-x="999" d="M57 819l5 23q11 49 145 54v11l56 14l41 -22l89 6l12 -19l2 17l12 -19l176 -5l87 -11l-18 -15l-3 -17l226 24l-6 -34q-44 6 -50 -28l15 -2l46 11l-3 -17l-17 -15l-3 -17q38 -5 38 -32q0 -3 -1 -8l-260 -53l-3 -17l57 -7l-2 -17l-179 -12l38 47l-15 2q-132 3 -156 -50 l-3 -17l-58 8l-11 19l-4 -17l12 -19l-58 8l4 17l17 14l2 17l-17 -15l-55 7l-1 12l-114 39l6 24h90l5 24q-42 11 -32 56zM554 815l29 -4l61 10l3 16l-29 5l-61 -10zM563 693l5 -53l29 -3l-5 53z" />
<glyph unicode="&#xae;" horiz-adv-x="1509" />
<glyph unicode="&#xb0;" horiz-adv-x="819" />
<glyph unicode="&#xb1;" horiz-adv-x="1124" />
<glyph unicode="&#xb2;" horiz-adv-x="682" />
<glyph unicode="&#xb3;" horiz-adv-x="682" />
<glyph unicode="&#xb4;" horiz-adv-x="480" d="M76 1557q25 59 83 120q43 52 156 150l36 30q4 -5 4 -15q11 0 14 -15q0 -17 -108 -114q0 -6 -36 -40q-18 -21 -18 -30q125 130 162 149h2l-2 -10l4 -5q0 -15 -29 -40l11 -4l18 12l2 -2v-4q-6 -6 -9 -21q-89 -83 -126 -129q-74 -80 -81 -126l-4 -6q-36 5 -36 28l-7 6v4l2 7 h-2q-25 0 -36 55zM184 1617l16 17h-2q-14 -6 -14 -17zM258 1645h5v6h-2zM267 1653l7 7v2l-7 -6v-3zM285 1673l5 4v2l-5 -4v-2zM297 1683h2l16 18h-3l-15 -15v-3z" />
<glyph unicode="&#xb5;" horiz-adv-x="1180" />
<glyph unicode="&#xb6;" horiz-adv-x="1100" />
<glyph unicode="&#xb7;" horiz-adv-x="999" d="M289 715l20 102q5 39 48 105q33 47 51 52l6 2l20 -7l49 31q7 2 16 2q40 0 101 -49q86 -74 94 -104l10 -27l6 -23q4 -14 4 -32q0 -43 -20 -108q-63 -109 -108 -139l-36 -31h-23l-41 -20q-10 -2 -19 -2q-28 0 -44 24l-10 17q-3 11 3 15l27 5l27 20l-1 2l-6 4l-19 -13 q-9 -1 -10 2l-5 -4q-39 -10 -45 14l-6 5q-1 4 5 6l2 2l-1 5q-32 38 -56 76q-27 24 -33 46l2 1l-3 2v11z" />
<glyph unicode="&#xb8;" horiz-adv-x="811" d="M197 -157q1 18 24.5 62.5t40.5 44.5l5 6h9l8 -6q0 -22 -31 -76l-3 -9l3 -3h3q28 0 59 85l11 17h6q6 -3 19 -28h3q7 1 14 22l14 3l3 -3v-19l-17 -35v-8l28 -6l53 6q109 0 109 -76q0 -94 -85 -132l-67 -50q-11 -9 -62 -14l-14 5l-28 -8l-31 3h-22l-20 -6q-17 3 -17 8v14 q5 9 90 56q71 33 71 116v8l-5 6l-45 -8q-42 2 -42 14q-18 -9 -39 -9h-11q-20 0 -34 20zM449 -230v-8l3 2h3l8 -2v2q0 12 6 12l2 -3v22l-5 6h-3q-7 0 -8 -20l2 -8zM449 -269l8 8v6q-6 0 -8 -14zM455 -149v-3q0 -12 11 -28v-14h5v31q-6 14 -16 14z" />
<glyph unicode="&#xb9;" horiz-adv-x="682" />
<glyph unicode="&#xba;" horiz-adv-x="698" d="M23 823l9 9l-9 66v18q0 78 150 271v-9q-69 -92 -113 -206v-9h10q34 137 252 346l-65 -37h-10q0 43 178 65q110 0 206 -65l-10 -10v-9l38 -56h-19l-9 9h-10l28 -206h10q0 47 19 47v-37q0 -53 -94 -243h9q-66 -91 -196 -169l-47 -9h-9q-222 0 -281 178zM51 842h9v74h-9v-74 zM145 991h9l28 56h-9zM163 851q0 -75 84 -131h10q102 0 234 215q46 102 46 150v74q0 26 -93 38h-10l-9 -10h-9v10l-38 -19l-9 9v-9l9 -9l-65 -56q-78 0 -150 -262zM191 673l47 -28v10l-47 28v-10zM453 842h9l38 46h-9zM500 898h28l28 65l-9 28h-10zM593 907h10l9 37v10h-9 l-10 -28v-19zM649 1103v47h19v-47h-19z" />
<glyph unicode="&#xbb;" horiz-adv-x="1003" d="M98 126v16l376 385l-246 285l-5 9l5 8l40 -15l5 8l-9 -1l-6 8v16l-30 32l-21 31l-31 63l5 8q127 -171 160 -168l-59 66q-46 68 -61 103l25 25l210 -196l179 -167l15 -24l-5 -71l5 -8l-5 -9q-13 -20 -2 -50l-15 -25l-38 3l-276 -267l-5 7l20 33l41 48l-11 17l11 36v4 l-177 -260q-11 17 -25 -8h-10l-11 16q-10 16 20 64l-11 16zM454 178v17l336 361q-47 26 -239 285l-5 8l5 8q4 -4 7 -8l5 8q198 -258 241 -277l1 1l-71 64l5 9l-147 188l3 5l9 -6l4 6l1 2h-2l-6 6l-21 31l-30 66l4 8q5 8 16 4q16 8 68 -49l-23 47h-9l31 22l5 -5l8 5l142 -148 l119 -172l15 -24l27 -34l6 -7l-6 -10q-7 -13 -19 -6q-9 -5 -21 7l37 -66l-25 -49l-275 -277l-6 9l6 9l-13 -18l-4 9l19 34l41 49l-8 13l-110 -158q-4 7 -9 7l-3 -5l-3 3q-5 -4 -10 -13h-11l-57 -49q-2 3 -2 8l-10 -8q-10 16 20 67l-10 16zM688 270l17 20l-1 1z" />
<glyph unicode="&#xbc;" horiz-adv-x="1708" />
<glyph unicode="&#xbd;" horiz-adv-x="1708" />
<glyph unicode="&#xbe;" horiz-adv-x="1708" />
<glyph unicode="&#xbf;" horiz-adv-x="1417" d="M-25 106q0 85 68 183q196 194 546 323l1 17l-16 17q3 51 123 68l1 17h-51l-18 -17l-16 17l-18 -17l4 68l138 34l-1 -17l52 17q134 -31 133 -68q-54 -40 -62 -170l-72 -68h17l-35 -17q-233 -61 -509 -272h-17l-2 -34h17l105 51l-2 -34h-34l-2 -34h170l214 8q218 7 305 145 l126 119h17q48 -62 51 0q102 0 97 -85l-36 -34q48 0 69 -75l-8 -173q-67 99 -255 -2q101 -182 -599 -226h-17q-419 17 -419 101v1q-65 73 -65 157zM91 -51q145 -51 337 -51h51q374 0 551 119h-17q-263 -102 -533 -102q-257 0 -387 68zM264 521h34l227 102l1 17h-51 q-159 -102 -210 -102zM537 1237l298 111l25 -11l7 -32q-82 -17 -75 -48l4 -16l123 26l22 -95l-17 -20l4 -15l20 4l59 29l3 -16q-36 -123 -263 -171l-3 16l17 20l-4 16l-17 -20l-41 -9l-84 82l-31 43l50 60l-41 -9l-48 23zM581 187l1 17l69 17q-2 -34 -53 -34h-17zM636 632 h32l133 20l6 31h-97zM931 353l1 17q2 28 106 68l124 85h-34l35 17l53 34l-3 -51q-184 -170 -282 -170z" />
<glyph unicode="&#xc0;" d="M-68 152l289 697h17q0 -51 34 -51l17 85l-17 -17h-17v68l17 85l17 -17h17l-17 17v17l34 68h17l17 -17h17v17q0 34 -51 34l85 238h68l-17 -17v-17q118 68 221 68q11 -51 136 -51l136 -595h119v-17l-102 -17v-17q51 0 51 -34h136v-17q0 -38 -170 -68l34 -102l-17 -51 l17 -102l-17 -17h17l-17 -17l17 -204v-102l-17 17h-17l51 -255h-34q0 51 -34 51v-17l17 -51h-17l-17 17h-17q0 -51 -34 -51l-85 289h-17v-68h-17l-34 204l51 -34v17q-14 153 -51 153l17 17v51h-34v-51h-17v68l17 17h-17l-17 -17v68h17l17 -17h17l-17 17v102l-374 -85v-34 l119 34l68 -17l85 17v-34q-357 -64 -357 -170q-45 -187 -102 -238v-34h-51l-17 17h-17v-17l-51 34l34 102h-17q-51 0 -51 -136l-34 34l17 102zM170 611h17l34 68h-34zM221 713h17l17 51h-17l-17 -17v-34zM323 628h17l17 17v51h-17zM357 815l17 -68h17l51 153v17h-17 l-34 -119l-17 17h-17zM394 1804q0 31 42 31l23 5l21 -5l49 10h13q17 0 50 -31q74 -46 138 -143l13 -39l-3 -3l-3 3h-13l3 -13l-3 -18q13 -25 13 -37l-2 -7l2 -16l-5 -8l5 -21v-13h-5l-21 45h-5v-3l5 -18h-2q13 -46 13 -63v-2q0 -4 -18 -13l-8 2l-13 -2h-8q-11 10 -68 161 q-65 130 -174 174q-20 0 -39 24zM442 662h34q170 0 187 102l-68 255h-17zM476 611h34q153 17 153 51h-17l-170 -34v-17zM714 254h34v-102h-17zM782 50l51 17v34l-51 -17v-34zM952 101l17 -68h17v34l-17 68h-17v-34z" />
<glyph unicode="&#xc1;" d="M-71 152l289 697h17q0 -51 34 -51l17 85l-17 -17h-17v68l17 85l17 -17h17l-17 17v17l34 68h17l17 -17h17v17q0 34 -51 34l85 238h68l-17 -17v-17q118 68 221 68q11 -51 136 -51l136 -595h119v-17l-102 -17v-17q51 0 51 -34h136v-17q0 -38 -170 -68l34 -102l-17 -51 l17 -102l-17 -17h17l-17 -17l17 -204v-102l-17 17h-17l51 -255h-34q0 51 -34 51v-17l17 -51h-17l-17 17h-17q0 -51 -34 -51l-85 289h-17v-68h-17l-34 204l51 -34v17q-14 153 -51 153l17 17v51h-34v-51h-17v68l17 17h-17l-17 -17v68h17l17 -17h17l-17 17v102l-374 -85v-34 l119 34l68 -17l85 17v-34q-357 -64 -357 -170q-45 -187 -102 -238v-34h-51l-17 17h-17v-17l-51 34l34 102h-17q-51 0 -51 -136l-34 34l17 102zM167 611h17l34 68h-34zM218 713h17l17 51h-17l-17 -17v-34zM320 628h17l17 17v51h-17zM354 815l17 -68h17l51 153v17h-17 l-34 -119l-17 17h-17zM439 662h34q170 0 187 102l-68 255h-17zM473 611h34q153 17 153 51h-17l-170 -34v-17zM565 1558q25 58 84 119q42 52 155 150l36 30q4 -5 4 -15q11 0 14 -15q0 -17 -108 -113q0 -7 -36 -41q-18 -20 -18 -30q126 130 162 150h2l-2 -11l4 -4 q0 -15 -29 -41l11 -4l18 13l3 -2v-5q-7 -6 -9 -21q-89 -83 -126 -128q-75 -81 -81 -126l-5 -7q-36 5 -36 28l-7 6v5l3 6h-3q-25 0 -36 56zM673 1617l16 18h-2q-14 -6 -14 -18zM711 254h34v-102h-17zM748 1645h4v7h-2zM757 1654l6 6v2l-6 -6v-2zM775 1673l4 4v2l-4 -4v-2z M779 50l51 17v34l-51 -17v-34zM786 1684h2l16 17h-2l-16 -15v-2zM949 101l17 -68h17v34l-17 68h-17v-34z" />
<glyph unicode="&#xc2;" d="M-71 152l289 697h17q0 -51 34 -51l17 85l-17 -17h-17v68l17 85l17 -17h17l-17 17v17l34 68h17l17 -17h17v17q0 34 -51 34l85 238h68l-17 -17v-17q118 68 221 68q11 -51 136 -51l136 -595h119v-17l-102 -17v-17q51 0 51 -34h136v-17q0 -38 -170 -68l34 -102l-17 -51 l17 -102l-17 -17h17l-17 -17l17 -204v-102l-17 17h-17l51 -255h-34q0 51 -34 51v-17l17 -51h-17l-17 17h-17q0 -51 -34 -51l-85 289h-17v-68h-17l-34 204l51 -34v17q-14 153 -51 153l17 17v51h-34v-51h-17v68l17 17h-17l-17 -17v68h17l17 -17h17l-17 17v102l-374 -85v-34 l119 34l68 -17l85 17v-34q-357 -64 -357 -170q-45 -187 -102 -238v-34h-51l-17 17h-17v-17l-51 34l34 102h-17q-51 0 -51 -136l-34 34l17 102zM167 611h17l34 68h-34zM218 713h17l17 51h-17l-17 -17v-34zM320 628h17l17 17v51h-17zM354 815l17 -68h17l51 153v17h-17 l-34 -119l-17 17h-17zM380 1488v3q11 49 163 225q102 95 170 95l14 -4q59 34 109 34q49 0 61 -210v-51q0 -65 -41 -65q0 -7 -17 -7h-24q-8 0 -10 31l-3 3h-7q0 -22 -17 -30l-10 3q-15 -24 -34 -24h-4q-6 7 -30 7q-21 5 -21 24v17l-13 102h-7q0 -26 -75 -75q-55 -95 -102 -95 h-3l-24 7v-4q0 -17 -48 -20q-27 17 -27 34zM439 662h34q170 0 187 102l-68 255h-17zM473 611h34q153 17 153 51h-17l-170 -34v-17zM711 254h34v-102h-17zM779 50l51 17v34l-51 -17v-34zM949 101l17 -68h17v34l-17 68h-17v-34z" />
<glyph unicode="&#xc3;" d="M-71 152l289 697h17q0 -51 34 -51l17 85l-17 -17h-17v68l17 85l17 -17h17l-17 17v17l34 68h17l17 -17h17v17q0 34 -51 34l85 238h68l-17 -17v-17q118 68 221 68q11 -51 136 -51l136 -595h119v-17l-102 -17v-17q51 0 51 -34h136v-17q0 -38 -170 -68l34 -102l-17 -51 l17 -102l-17 -17h17l-17 -17l17 -204v-102l-17 17h-17l51 -255h-34q0 51 -34 51v-17l17 -51h-17l-17 17h-17q0 -51 -34 -51l-85 289h-17v-68h-17l-34 204l51 -34v17q-14 153 -51 153l17 17v51h-34v-51h-17v68l17 17h-17l-17 -17v68h17l17 -17h17l-17 17v102l-374 -85v-34 l119 34l68 -17l85 17v-34q-357 -64 -357 -170q-45 -187 -102 -238v-34h-51l-17 17h-17v-17l-51 34l34 102h-17q-51 0 -51 -136l-34 34l17 102zM167 611h17l34 68h-34zM218 713h17l17 51h-17l-17 -17v-34zM320 628h17l17 17v51h-17zM354 815l17 -68h17l51 153v17h-17 l-34 -119l-17 17h-17zM383 1530q0 8 33 57l55 77q35 54 79 92h5q17 0 55 -69q37 -38 58 -105l3 -2h5q51 0 159 139q26 26 71 84l43 48l15 -23l-3 -2l3 -3h2l3 3l2 -3v-2q0 -21 -17 -50q0 -11 -20 -40h2l38 43h2v-3l-2 -12q5 0 8 -15q-24 -46 -59 -90l-10 -17l3 -3h5 q0 11 18 25h2v-2q-35 -42 -35 -50l12 10h3v-3q-45 -64 -104 -126l3 -3v-2q0 -23 -61 -45l-12 -3q-48 0 -114 100l-33 37q-36 -45 -55 -94l-11 -5h-5l-7 5h-3q-4 -1 -30 -52l-3 -3h-2q-32 0 -53 50q-27 0 -48 57zM439 662h34q170 0 187 102l-68 255h-17zM473 611h34 q153 17 153 51h-17l-170 -34v-17zM711 254h34v-102h-17zM779 50l51 17v34l-51 -17v-34zM949 101l17 -68h17v34l-17 68h-17v-34z" />
<glyph unicode="&#xc4;" d="M-71 152l289 697h17q0 -51 34 -51l17 85l-17 -17h-17v68l17 85l17 -17h17l-17 17v17l34 68h17l17 -17h17v17q0 34 -51 34l85 238h68l-17 -17v-17q118 68 221 68q11 -51 136 -51l136 -595h119v-17l-102 -17v-17q51 0 51 -34h136v-17q0 -38 -170 -68l34 -102l-17 -51 l17 -102l-17 -17h17l-17 -17l17 -204v-102l-17 17h-17l51 -255h-34q0 51 -34 51v-17l17 -51h-17l-17 17h-17q0 -51 -34 -51l-85 289h-17v-68h-17l-34 204l51 -34v17q-14 153 -51 153l17 17v51h-34v-51h-17v68l17 17h-17l-17 -17v68h17l17 -17h17l-17 17v102l-374 -85v-34 l119 34l68 -17l85 17v-34q-357 -64 -357 -170q-45 -187 -102 -238v-34h-51l-17 17h-17v-17l-51 34l34 102h-17q-51 0 -51 -136l-34 34l17 102zM167 611h17l34 68h-34zM218 713h17l17 51h-17l-17 -17v-34zM297 1666q77 105 176 134l19 4q39 -3 39 -10l-3 -3v-3q11 0 28 -20 v-9q-9 -11 -41 -23q-61 -35 -71 -51h4q73 55 124 55l13 -26q4 0 7 -22q12 0 12 -29q-106 -67 -118 -96q-13 -2 -32 -61l-35 -10q-55 34 -55 68q-5 0 -9 16q-22 0 -55 57zM320 628h17l17 17v51h-17zM354 815l17 -68h17l51 153v17h-17l-34 -119l-17 17h-17zM439 662h34 q170 0 187 102l-68 255h-17zM473 611h34q153 17 153 51h-17l-170 -34v-17zM675 1651v3q126 131 169 147l16 6l3 -3l16 3h4l32 -38v-10q-71 -62 -71 -70h3q48 41 77 48l16 -32l-9 -32l3 3h6l10 -9v-4q-3 -21 -90 -108q-25 -32 -32 -61l-13 -10h-3q-14 0 -51 32q-10 0 -16 32 q-16 23 -26 23q-44 48 -44 80zM711 254h34v-102h-17zM779 50l51 17v34l-51 -17v-34zM949 101l17 -68h17v34l-17 68h-17v-34z" />
<glyph unicode="&#xc5;" d="M-71 152l289 697h17q0 -51 34 -51l17 85l-17 -17h-17v68l17 85l17 -17h17l-17 17v17l34 68h17l17 -17h17v17q0 34 -51 34l85 238h68l-17 -17v-17q118 68 221 68q11 -51 136 -51l136 -595h119v-17l-102 -17v-17q51 0 51 -34h136v-17q0 -38 -170 -68l34 -102l-17 -51 l17 -102l-17 -17h17l-17 -17l17 -204v-102l-17 17h-17l51 -255h-34q0 51 -34 51v-17l17 -51h-17l-17 17h-17q0 -51 -34 -51l-85 289h-17v-68h-17l-34 204l51 -34v17q-14 153 -51 153l17 17v51h-34v-51h-17v68l17 17h-17l-17 -17v68h17l17 -17h17l-17 17v102l-374 -85v-34 l119 34l68 -17l85 17v-34q-357 -64 -357 -170q-45 -187 -102 -238v-34h-51l-17 17h-17v-17l-51 34l34 102h-17q-51 0 -51 -136l-34 34l17 102zM167 611h17l34 68h-34zM218 713h17l17 51h-17l-17 -17v-34zM320 628h17l17 17v51h-17zM354 815l17 -68h17l51 153v17h-17 l-34 -119l-17 17h-17zM439 662h34q170 0 187 102l-68 255h-17zM473 611h34q153 17 153 51h-17l-170 -34v-17zM483 1617v20q0 39 45 106q79 73 124 87l38 17l19 -5l40 7q37 0 49 -30l4 -16q0 -9 -6 -11l-24 2l-27 -10v-2l4 -4l19 6q8 -1 8 -4l6 2q34 0 34 -20l4 -5 q0 -4 -6 -4l-2 -1v-4q19 -37 31 -72q18 -24 18 -43h-2l2 -2v-2l-2 -7l2 -7l-41 -76q-12 -30 -65 -73q-38 -30 -55 -30h-6l-14 9l-49 -14q-40 0 -89 62q-57 76 -57 101zM574 1555l6 -4l78 18h8l14 -2q51 35 65 66q16 23 37 66v10q-6 21 -10 21q-127 -48 -141 -70 q-48 -46 -57 -105zM711 254h34v-102h-17zM779 50l51 17v34l-51 -17v-34zM949 101l17 -68h17v34l-17 68h-17v-34z" />
<glyph unicode="&#xc6;" horiz-adv-x="1688" d="M-15 169l406 697h17q-9 -51 25 -51l31 85l-20 -17h-17l12 68l31 85l14 -17h17l-14 17l3 17l45 68h17l14 -17h17l3 17q6 34 -45 34l84 221h68l-20 -17l-3 -17q129 68 232 68q2 -51 127 -51l2 -35l44 -3l509 3l82 -57q-36 -151 -130 -145l-406 -12l-2 -34l84 -6l65 2 l16 -19l17 -1l120 10l34 -3l-1 -17l-357 -33l-7 -220l43 -1l374 29l15 -18l-1 -17l-34 3v-17l117 -26l-1 -17q-37 -95 -400 -146l-138 -5l14 -82l-25 -51v-102l-20 -17h17l-20 -17l-3 -32q328 43 512 31l83 -23l-1 -34l-34 2l15 -18l-3 -51q-49 -64 -208 -54l-1 -17l136 -9 l-3 -34l-557 -86l7 -65h-34q9 51 -25 51l-3 -17l8 -51h-17l-14 17h-17q-8 -51 -42 -51l-32 97q-15 3 -27 8l-6 -38h-17v47q-26 15 -26 34v3l3 51l20 358h17l13 -15l15 82l6 35l-347 -68l-5 -34l124 34l24 -34l88 17l-5 -34q-327 -47 -345 -153q-76 -187 -142 -238l-5 -34 h-51l-14 17h-17l-3 -17l-46 34l51 102h-17q-51 0 -73 -136l-29 34l34 102zM580 679h34q128 -17 167 85l-13 255h-17zM598 611q156 17 162 51h-17l-135 -17l-3 -17zM776 50l54 17l6 34l-54 -17zM793 182l15 -2q0 53 -15 2zM799 407h3l-2 2zM813 470l17 -1l8 118l-17 2z M955 101l6 -68h17l5 34l-5 68h-17zM1073 538l1 16l154 7l-1 -17l67 15h17l-2 -17l-220 -23z" />
<glyph unicode="&#xc7;" horiz-adv-x="1024" d="M16 476q0 426 170 544v-17l-102 -170v-17h17q0 162 425 459l-51 -17h-17v17l153 34h17q247 0 374 -204v-17h-34l17 -17v-17q-102 12 -102 34q-397 0 -595 -408l-34 -119l51 -323h51q212 0 476 306h17v-17q-181 -261 -408 -306v-17h17q178 0 442 306l51 -68v-51 q0 -55 -255 -255l-17 -17h-17v-34q289 141 289 204h34v-17q-214 -255 -493 -255v-17h85l68 17h17v-17l-204 -33q-129 0 -272 186v-17l85 -136v-16h-51q-158 108 -187 271zM67 255l17 -68h17v17l-17 102h-17v-51zM186 1020v17l85 85v-17zM322 1173q0 34 102 68h17v-17z M337 -183q1 17 24.5 62t40.5 45l5 5h9l8 -5q0 -22 -31 -77l-3 -8l3 -3h3q28 0 59 85l11 17h6q6 -3 19 -28h3q6 1 14 22l14 3l3 -3v-19l-17 -35v-8l28 -6l53 6q109 0 109 -76q0 -95 -85 -132l-67 -51q-11 -9 -62 -14l-14 6l-28 -8l-31 2h-22l-20 -5q-17 3 -17 8v14q5 9 90 56 q71 33 71 116v8l-5 6l-45 -9q-42 3 -42 14q-19 -8 -39 -8h-11q-20 0 -34 20zM589 -256v-9l3 3h3l8 -3v3q0 11 6 11l2 -2v22l-5 6h-3q-7 0 -8 -20l2 -8zM589 -295l8 8v6q-6 0 -8 -14zM595 -175v-3q0 -13 11 -28v-14h5v31q-6 14 -16 14z" />
<glyph unicode="&#xc8;" horiz-adv-x="1028" d="M0 12v3l3 51l47 184l-16 18l34 -1l-6 -85l17 -2q10 85 40 82l-16 19l12 169l-34 3l-23 -84l19 16l17 -1l-7 -102l-17 2l3 50l-17 1l-2 -34l-17 1l2 34l54 287l-17 1l39 82l-16 18l1 17l37 287l16 -18l17 -1l2 34l-11 86l27 152l3 51l17 -2l16 -18l18 16l17 -2l16 -17 l18 16l51 -4l597 11l82 -57q-36 -151 -130 -145l-444 -20l-2 -34l84 -6l103 10l16 -19l17 -1l120 10l34 -3l-1 -17l-395 -41l-31 -220l17 -1l462 37l15 -18l-1 -17l-34 3v-17l117 -26l-1 -17q-37 -95 -488 -154l-171 -6l16 -17l-82 -216h-17l10 153l-17 1l-33 -236 q509 68 719 54l83 -23l-1 -34l-34 2l15 -18l-3 -51q-49 -64 -208 -54l-1 -17l136 -9l-3 -34l-791 -116l-17 1q-82 18 -82 53zM82 470l17 -1l8 118l-17 2zM342 538l1 16l154 7l-1 -17l155 23h17l-2 -17l-308 -31zM391 1803q0 31 42 31l23 6l21 -6l50 11h13q17 0 49 -31 q74 -47 138 -143l13 -39l-3 -3l-2 3h-13l2 -13l-2 -19q13 -25 13 -36l-3 -8l3 -15l-6 -8l6 -21v-13h-6l-20 44h-6v-2l6 -19h-3q13 -45 13 -62v-3q0 -4 -18 -13l-8 3l-13 -3h-8q-11 10 -67 162q-66 130 -175 174q-19 0 -39 23z" />
<glyph unicode="&#xc9;" horiz-adv-x="1028" d="M0 12v3l3 51l47 184l-16 18l34 -1l-6 -85l17 -2q10 85 40 82l-16 19l12 169l-34 3l-23 -84l19 16l17 -1l-7 -102l-17 2l3 50l-17 1l-2 -34l-17 1l2 34l54 287l-17 1l39 82l-16 18l1 17l37 287l16 -18l17 -1l2 34l-11 86l27 152l3 51l17 -2l16 -18l18 16l17 -2l16 -17 l18 16l51 -4l597 11l82 -57q-36 -151 -130 -145l-444 -20l-2 -34l84 -6l103 10l16 -19l17 -1l120 10l34 -3l-1 -17l-395 -41l-31 -220l17 -1l462 37l15 -18l-1 -17l-34 3v-17l117 -26l-1 -17q-37 -95 -488 -154l-171 -6l16 -17l-82 -216h-17l10 153l-17 1l-33 -236 q509 68 719 54l83 -23l-1 -34l-34 2l15 -18l-3 -51q-49 -64 -208 -54l-1 -17l136 -9l-3 -34l-791 -116l-17 1q-82 18 -82 53zM82 470l17 -1l8 118l-17 2zM342 538l1 16l154 7l-1 -17l155 23h17l-2 -17l-308 -31zM511 1557q25 59 83 120q43 52 155 150l36 29q5 -5 5 -15 q10 0 13 -14q0 -17 -108 -114q0 -7 -36 -40q-18 -21 -18 -30q126 130 162 149h3l-3 -10l5 -5q0 -15 -29 -40l11 -5l18 13l2 -2v-4q-6 -6 -9 -21q-89 -83 -126 -129q-74 -80 -81 -126l-4 -6q-36 5 -36 28l-7 6v4l2 7h-2q-25 0 -36 55zM619 1617l16 17h-3q-13 -6 -13 -17z M693 1645h5v6h-3zM702 1653l7 7v2l-7 -6v-3zM720 1673l5 4v2l-5 -4v-2zM731 1683h3l15 17h-2l-16 -15v-2z" />
<glyph unicode="&#xca;" horiz-adv-x="1028" d="M0 12v3l3 51l47 184l-16 18l34 -1l-6 -85l17 -2q10 85 40 82l-16 19l12 169l-34 3l-23 -84l19 16l17 -1l-7 -102l-17 2l3 50l-17 1l-2 -34l-17 1l2 34l54 287l-17 1l39 82l-16 18l1 17l37 287l16 -18l17 -1l2 34l-11 86l27 152l3 51l17 -2l16 -18l18 16l17 -2l16 -17 l18 16l51 -4l597 11l82 -57q-36 -151 -130 -145l-444 -20l-2 -34l84 -6l103 10l16 -19l17 -1l120 10l34 -3l-1 -17l-395 -41l-31 -220l17 -1l462 37l15 -18l-1 -17l-34 3v-17l117 -26l-1 -17q-37 -95 -488 -154l-171 -6l16 -17l-82 -216h-17l10 153l-17 1l-33 -236 q509 68 719 54l83 -23l-1 -34l-34 2l15 -18l-3 -51q-49 -64 -208 -54l-1 -17l136 -9l-3 -34l-791 -116l-17 1q-82 18 -82 53zM82 470l17 -1l8 118l-17 2zM342 538l1 16l154 7l-1 -17l155 23h17l-2 -17l-308 -31zM367 1489v3q11 48 163 224q102 96 170 96l14 -4q59 34 108 34 q50 0 62 -211v-51q0 -64 -41 -64q0 -7 -17 -7h-24q-8 0 -10 31l-4 3h-6q0 -22 -17 -31l-11 4q-15 -24 -34 -24h-3q-7 7 -31 7q-20 4 -20 24v17l-14 102h-6q0 -26 -75 -75q-55 -95 -102 -95h-4l-23 6v-3q0 -17 -48 -20q-27 17 -27 34z" />
<glyph unicode="&#xcb;" horiz-adv-x="1028" d="M0 12v3l3 51l47 184l-16 18l34 -1l-6 -85l17 -2q10 85 40 82l-16 19l12 169l-34 3l-23 -84l19 16l17 -1l-7 -102l-17 2l3 50l-17 1l-2 -34l-17 1l2 34l54 287l-17 1l39 82l-16 18l1 17l37 287l16 -18l17 -1l2 34l-11 86l27 152l3 51l17 -2l16 -18l18 16l17 -2l16 -17 l18 16l51 -4l597 11l82 -57q-36 -151 -130 -145l-444 -20l-2 -34l84 -6l103 10l16 -19l17 -1l120 10l34 -3l-1 -17l-395 -41l-31 -220l17 -1l462 37l15 -18l-1 -17l-34 3v-17l117 -26l-1 -17q-37 -95 -488 -154l-171 -6l16 -17l-82 -216h-17l10 153l-17 1l-33 -236 q509 68 719 54l83 -23l-1 -34l-34 2l15 -18l-3 -51q-49 -64 -208 -54l-1 -17l136 -9l-3 -34l-791 -116l-17 1q-82 18 -82 53zM82 470l17 -1l8 118l-17 2zM308 1666q77 105 176 134l19 3q39 -2 39 -9l-3 -3v-4q11 0 28 -19v-9q-9 -11 -41 -23q-61 -35 -71 -51h4q73 54 124 54 l13 -25q4 0 7 -23q12 0 12 -28q-106 -67 -118 -96q-13 -2 -32 -61l-35 -10q-55 34 -55 67q-5 0 -9 16q-22 0 -55 58zM342 538l1 16l154 7l-1 -17l155 23h17l-2 -17l-308 -31zM686 1650v4q126 131 169 147l16 6l3 -3l16 3h4l32 -38v-10q-71 -62 -71 -70h3q48 41 77 48l16 -32 l-9 -32l3 3h6l10 -10v-3q-3 -21 -90 -109q-25 -31 -32 -60l-13 -10h-3q-14 0 -51 32q-10 0 -16 32q-16 22 -26 22q-44 49 -44 80z" />
<glyph unicode="&#xcc;" horiz-adv-x="481" d="M43 85l31 255l17 306l37 51l4 68l-16 17l1 17h34l1 17l-16 17l69 323h-17l18 17l5 102l-16 17l1 17l189 17q-4 -51 64 -51l31 -68l-18 -17h17q-122 -360 -149 -833l-6 -102l17 -17l-1 -17l-18 -17h17l-18 -17l10 -119l-2 -34q-91 -110 -95 -170h-68l-82 34l24 119z M57 1803q0 32 41 32l24 5l20 -5l50 10h13q17 0 49 -31q74 -47 138 -143l13 -39l-3 -3l-2 3h-13l2 -13l-2 -18q13 -25 13 -37l-3 -8l3 -15l-5 -8l5 -21v-13h-5l-21 44h-5v-2l5 -18h-3q13 -46 13 -63v-2q0 -4 -18 -13l-8 2l-13 -2h-8q-11 10 -67 161q-66 130 -174 174 q-20 0 -39 23zM137 -68l35 34l4 51h-34zM140 595h17l5 102h-17zM165 748h17l6 102h-17zM191 901h17l6 119h-17z" />
<glyph unicode="&#xcd;" horiz-adv-x="481" d="M43 85l31 255l17 306l37 51l4 68l-16 17l1 17h34l1 17l-16 17l69 323h-17l18 17l5 102l-16 17l1 17l189 17q-4 -51 64 -51l31 -68l-18 -17h17q-122 -360 -149 -833l-6 -102l17 -17l-1 -17l-18 -17h17l-18 -17l10 -119l-2 -34q-91 -110 -95 -170h-68l-82 34l24 119z M137 -68l35 34l4 51h-34zM140 595h17l5 102h-17zM165 748h17l6 102h-17zM191 901h17l6 119h-17zM290 1557q25 59 83 120q43 52 156 150l36 30q4 -5 4 -15q11 0 14 -15q0 -17 -108 -114q0 -6 -36 -40q-18 -21 -18 -30q126 130 162 149h2l-2 -10l4 -4q0 -15 -29 -41l11 -4 l18 12l2 -2v-4q-6 -6 -9 -21q-89 -83 -126 -129q-74 -80 -81 -126l-4 -6q-36 5 -36 28l-7 6v4l2 7h-2q-25 0 -36 55zM398 1617l16 17h-2q-14 -6 -14 -17zM472 1645h5v6h-2zM481 1654l7 6v2l-7 -6v-2zM499 1673l5 4v2l-5 -4v-2zM511 1683h2l16 18h-3l-15 -15v-3z" />
<glyph unicode="&#xce;" horiz-adv-x="481" d="M43 85l31 255l17 306l37 51l4 68l-16 17l1 17h34l1 17l-16 17l69 323h-17l18 17l5 102l-16 17l1 17l189 17q-4 -51 64 -51l31 -68l-18 -17h17q-122 -360 -149 -833l-6 -102l17 -17l-1 -17l-18 -17h17l-18 -17l10 -119l-2 -34q-91 -110 -95 -170h-68l-82 34l24 119z M137 -68l35 34l4 51h-34zM140 595h17l5 102h-17zM147 1488v4q9 48 130 224q82 95 136 95l11 -3q47 34 87 34t49 -211v-51q0 -65 -32 -65q0 -6 -14 -6h-19q-7 0 -8 30l-3 4h-5q0 -22 -14 -31l-8 3q-12 -23 -27 -23h-3q-6 6 -25 6q-16 5 -16 24v17l-11 102h-5q0 -26 -60 -75 q-44 -95 -82 -95h-2l-19 7v-3q0 -17 -39 -21q-21 17 -21 34zM165 748h17l6 102h-17zM191 901h17l6 119h-17z" />
<glyph unicode="&#xcf;" horiz-adv-x="481" d="M29 1666q77 106 176 134l19 4q39 -3 39 -10l-4 -3v-3q12 0 29 -20v-9q-9 -11 -41 -23q-62 -35 -71 -51h3q74 55 125 55l13 -26q4 0 6 -22q13 0 13 -29q-106 -67 -118 -96q-13 -2 -32 -61l-35 -10q-55 34 -55 68q-5 0 -9 16q-22 0 -55 57zM43 85l31 255l17 306l37 51l4 68 l-16 17l1 17h34l1 17l-16 17l69 323h-17l18 17l5 102l-16 17l1 17l189 17q-4 -51 64 -51l31 -68l-18 -17h17q-122 -360 -149 -833l-6 -102l17 -17l-1 -17l-18 -17h17l-18 -17l10 -119l-2 -34q-91 -110 -95 -170h-68l-82 34l24 119zM137 -68l35 34l4 51h-34zM140 595h17 l5 102h-17zM165 748h17l6 102h-17zM191 901h17l6 119h-17zM406 1651v3q126 131 170 147l16 6l3 -3l16 3h3l32 -38v-10q-70 -62 -70 -70h3q48 41 77 48l16 -32l-10 -32l4 3h6l10 -9v-4q-4 -21 -90 -108q-25 -32 -32 -61l-13 -10h-3q-14 0 -51 32q-11 0 -16 32q-16 23 -26 23 q-45 48 -45 80z" />
<glyph unicode="&#xd0;" horiz-adv-x="1479" />
<glyph unicode="&#xd1;" horiz-adv-x="1283" d="M6 185q0 462 204 1122l136 17l119 -102q0 51 34 51h17l238 -612v-34h-17l-34 102h-17v-34l119 -289h17q68 442 196 923l51 -34l51 17l102 -51v-17q-51 0 -51 -68h17l17 -17h17l17 85h34v-17l-17 -17l17 -17v-17q-128 -393 -230 -1127h-34l34 272q-34 0 -102 -323 q-63 -51 -119 -51v-34h-17q0 34 -68 34v119q0 77 -340 850h-17q-68 -303 -119 -816l-17 17q-102 -30 -102 -85h-34q-34 64 -34 221h-17v-153h-34zM108 814h17l17 68l-17 17h-17v-17l17 -17l-17 -17v-34zM468 1531q0 8 33 57l56 77q34 54 78 92h5q18 0 56 -70q36 -37 58 -104 l2 -3h5q52 0 159 140q26 26 71 84l43 47l15 -22l-2 -3l2 -2h3l2 2l3 -2v-3q0 -21 -18 -49q0 -11 -20 -40h2l38 42h3v-2l-3 -13q5 0 8 -15q-23 -45 -58 -89l-10 -18l2 -2h5q0 11 18 25h3v-3q-36 -42 -36 -49l13 10h2v-3q-45 -64 -103 -127l2 -2v-3q0 -22 -60 -44l-13 -3 q-47 0 -114 100l-32 37q-36 -46 -56 -95l-10 -5h-5l-8 5h-2q-5 0 -31 -52l-2 -2h-3q-32 0 -53 49q-27 0 -48 58zM754 627q44 0 68 -136v-17h-17z" />
<glyph unicode="&#xd2;" horiz-adv-x="1250" d="M31 402l17 17l-17 119v34q0 141 272 493v-17q-125 -168 -204 -374v-17h17q62 249 459 629l-119 -68h-17q0 78 323 119q200 0 374 -119l-17 -17v-17l68 -102h-34l-17 17h-17l51 -374h17q0 85 34 85v-68q0 -96 -170 -442h17q-120 -165 -357 -306l-85 -17h-17 q-404 0 -510 323zM82 436h17v136h-17v-136zM252 708h17l51 102h-17zM286 453q0 -136 153 -238h17q186 0 425 391q85 186 85 272v136q0 47 -170 68h-17l-17 -17h-17v17l-68 -34l-17 17v-17l17 -17l-119 -102q-141 0 -272 -476zM337 130l85 -51v17l-85 51v-17zM596 1804 q0 31 42 31l23 5l21 -5l49 10h13q17 0 50 -31q74 -46 137 -143l13 -39l-2 -2l-3 2h-13l3 -13l-3 -18q13 -25 13 -36l-2 -8l2 -16l-5 -8l5 -20v-13h-5l-21 44h-5v-3l5 -18h-2q13 -46 13 -62v-3q0 -4 -19 -13l-7 3l-13 -3h-8q-11 10 -68 161q-65 130 -174 174q-20 0 -39 24z M813 436h17l68 85h-17zM898 538h51l51 119l-17 51h-17zM1068 555h17l17 68v17h-17l-17 -51v-34zM1170 912v85h34v-85h-34z" />
<glyph unicode="&#xd3;" horiz-adv-x="1250" d="M31 402l17 17l-17 119v34q0 141 272 493v-17q-125 -168 -204 -374v-17h17q62 249 459 629l-119 -68h-17q0 78 323 119q200 0 374 -119l-17 -17v-17l68 -102h-34l-17 17h-17l51 -374h17q0 85 34 85v-68q0 -96 -170 -442h17q-120 -165 -357 -306l-85 -17h-17 q-404 0 -510 323zM82 436h17v136h-17v-136zM252 708h17l51 102h-17zM286 453q0 -136 153 -238h17q186 0 425 391q85 186 85 272v136q0 47 -170 68h-17l-17 -17h-17v17l-68 -34l-17 17v-17l17 -17l-119 -102q-141 0 -272 -476zM337 130l85 -51v17l-85 51v-17zM795 1557 q25 59 83 120q43 51 155 149l36 30q5 -5 5 -15q10 0 13 -15q0 -16 -108 -113q0 -7 -36 -41q-18 -20 -18 -29q126 130 162 149h3l-3 -11l5 -4q0 -15 -29 -40l11 -5l18 13l2 -2v-4q-6 -6 -9 -22q-89 -83 -126 -128q-74 -80 -81 -126l-4 -6q-36 4 -36 27l-7 7v4l2 6h-2 q-25 0 -36 56zM813 436h17l68 85h-17zM898 538h51l51 119l-17 51h-17zM903 1617l16 17h-3q-13 -6 -13 -17zM977 1645h5v6h-3zM986 1653l7 7v2l-7 -7v-2zM1004 1672l5 5v2l-5 -4v-3zM1015 1683h3l15 17h-2l-16 -15v-2zM1068 555h17l17 68v17h-17l-17 -51v-34zM1170 912v85h34 v-85h-34z" />
<glyph unicode="&#xd4;" horiz-adv-x="1250" d="M31 402l17 17l-17 119v34q0 141 272 493v-17q-125 -168 -204 -374v-17h17q62 249 459 629l-119 -68h-17q0 78 323 119q200 0 374 -119l-17 -17v-17l68 -102h-34l-17 17h-17l51 -374h17q0 85 34 85v-68q0 -96 -170 -442h17q-120 -165 -357 -306l-85 -17h-17 q-404 0 -510 323zM82 436h17v136h-17v-136zM252 708h17l51 102h-17zM286 453q0 -136 153 -238h17q186 0 425 391q85 186 85 272v136q0 47 -170 68h-17l-17 -17h-17v17l-68 -34l-17 17v-17l17 -17l-119 -102q-141 0 -272 -476zM337 130l85 -51v17l-85 51v-17zM585 1488v4 q11 48 163 224q101 95 170 95l13 -3q59 34 109 34t61 -211v-51q0 -64 -40 -64q0 -7 -17 -7h-24q-8 0 -10 30l-4 4h-7q0 -22 -17 -31l-10 4q-15 -24 -34 -24h-3q-7 7 -31 7q-20 4 -20 23v17l-14 102h-7q0 -26 -74 -74q-56 -96 -102 -96h-4l-24 7v-3q0 -17 -47 -21 q-27 17 -27 34zM813 436h17l68 85h-17zM898 538h51l51 119l-17 51h-17zM1068 555h17l17 68v17h-17l-17 -51v-34zM1170 912v85h34v-85h-34z" />
<glyph unicode="&#xd5;" horiz-adv-x="1250" d="M31 402l17 17l-17 119v34q0 141 272 493v-17q-125 -168 -204 -374v-17h17q62 249 459 629l-119 -68h-17q0 78 323 119q200 0 374 -119l-17 -17v-17l68 -102h-34l-17 17h-17l51 -374h17q0 85 34 85v-68q0 -96 -170 -442h17q-120 -165 -357 -306l-85 -17h-17 q-404 0 -510 323zM82 436h17v136h-17v-136zM252 708h17l51 102h-17zM286 453q0 -136 153 -238h17q186 0 425 391q85 186 85 272v136q0 47 -170 68h-17l-17 -17h-17v17l-68 -34l-17 17v-17l17 -17l-119 -102q-141 0 -272 -476zM337 130l85 -51v17l-85 51v-17zM579 1530 q0 9 33 58l55 77q35 54 78 92h5q18 0 56 -70q37 -37 58 -104l3 -3h5q51 0 159 139q26 27 71 85l43 47l15 -22l-3 -3l3 -2h2l3 2l2 -2v-3q0 -21 -17 -49q0 -11 -21 -40h3l38 42h2v-2l-2 -13q5 0 7 -15q-23 -45 -58 -89l-10 -18l3 -2h5q0 11 17 25h3v-3q-35 -42 -35 -49l12 10 h3v-3q-45 -64 -104 -127l3 -2v-3q0 -22 -61 -45l-13 -2q-47 0 -113 99l-33 38q-36 -46 -56 -95l-10 -5h-5l-7 5h-3q-4 0 -30 -52l-3 -2h-2q-32 0 -53 49q-27 0 -48 57zM813 436h17l68 85h-17zM898 538h51l51 119l-17 51h-17zM1068 555h17l17 68v17h-17l-17 -51v-34z M1170 912v85h34v-85h-34z" />
<glyph unicode="&#xd6;" horiz-adv-x="1250" d="M31 402l17 17l-17 119v34q0 141 272 493v-17q-125 -168 -204 -374v-17h17q62 249 459 629l-119 -68h-17q0 78 323 119q200 0 374 -119l-17 -17v-17l68 -102h-34l-17 17h-17l51 -374h17q0 85 34 85v-68q0 -96 -170 -442h17q-120 -165 -357 -306l-85 -17h-17 q-404 0 -510 323zM82 436h17v136h-17v-136zM252 708h17l51 102h-17zM286 453q0 -136 153 -238h17q186 0 425 391q85 186 85 272v136q0 47 -170 68h-17l-17 -17h-17v17l-68 -34l-17 17v-17l17 -17l-119 -102q-141 0 -272 -476zM337 130l85 -51v17l-85 51v-17zM547 1666 q77 106 176 134l19 4q39 -3 39 -10l-4 -3v-3q12 0 29 -20v-9q-9 -11 -41 -23q-62 -35 -71 -51h3q74 55 125 55l13 -26q4 0 6 -22q13 0 13 -29q-106 -67 -118 -96q-13 -2 -32 -61l-35 -10q-55 34 -55 68q-5 0 -9 16q-22 0 -55 57zM813 436h17l68 85h-17zM898 538h51l51 119 l-17 51h-17zM924 1651v3q126 131 170 147l16 6l3 -3l16 3h3l32 -38v-10q-70 -62 -70 -70h3q48 41 77 48l16 -32l-10 -32l4 3h6l10 -9v-4q-4 -21 -90 -108q-25 -32 -32 -61l-13 -10h-3q-14 0 -51 32q-11 0 -16 32q-16 23 -26 23q-45 48 -45 80zM1068 555h17l17 68v17h-17 l-17 -51v-34zM1170 912v85h34v-85h-34z" />
<glyph unicode="&#xd7;" horiz-adv-x="1196" />
<glyph unicode="&#xd8;" horiz-adv-x="1250" d="M39 402l17 17l-17 119v34q0 141 272 493v-17q-125 -168 -204 -374v-17h17q62 249 459 629l-119 -68h-17q0 78 323 119q38 0 76 -4q8 18 13 38l12 -12q10 -7 16 55q59 42 98 42h7l23 -34l28 -7l-7 -2l-25 -83l13 -10l46 12l25 69l49 -12l-51 -80q-11 -25 -21 -48 q37 -19 72 -43l-17 -17v-17l68 -102h-34l-17 17h-17l51 -374h17q0 85 34 85v-68q0 -96 -170 -442h17q-120 -165 -357 -306l-85 -17h-17q-126 0 -223 31q-29 -73 -53 -141l-70 -13q-87 122 -76 209l24 49q-75 74 -112 188zM90 436h17v136h-17v-136zM260 708h17l51 102h-17z M265 474q29 -85 63 -142l335 680h-68q-128 21 -330 -538zM326 157l17 -1l381 799l1 17l-189 -367l-48 -117l-17 1l4 34l-17 1l-4 -34l14 -18l-18 -15l17 -2l-139 -281zM481 216q184 -79 408 390q85 186 85 272v136q0 14 -15 26l-92 -161l17 -1l-303 -599l-17 1l-61 -63 l63 113l2 17l-17 1zM668 1048l9 -9l5 12l-14 14v-17zM728 989l17 -1l48 117l3 17h-17l-49 -116zM816 390h17l73 131h-17zM906 538h51l51 119l-17 51h-17zM1076 555h17l17 68v17h-17l-17 -51v-34zM1178 912v85h34v-85h-34z" />
<glyph unicode="&#xd9;" horiz-adv-x="1045" d="M16 514q68 765 136 765v17h17v-68h-34v-34l17 -17v-17h-17l17 -51l-51 -85h17l17 17l-51 -306v-68h17q54 663 187 663l34 -51l-17 -85l17 -17h17l17 85h34l17 -51q-136 -490 -136 -765q17 -187 68 -187l391 442l17 85v476l34 34q34 0 34 -68h17q0 68 85 68l34 -68 l-17 -85q34 0 34 85h34l17 -17h17l-85 -1224l-17 -68q-68 0 -68 -68h-68l17 170h-34v-102l-51 -51v17l17 170q-51 0 -51 68h-17l-289 -136l-136 34v-17q-176 0 -238 510zM67 497h17l17 153h-17l-17 -17v-136zM118 208l17 -51h17v34l-17 51h-17v-34zM237 140q0 -59 153 -102 h34v17q-98 1 -187 102v-17zM371 1803q0 32 41 32l24 5l21 -5l49 10h13q17 0 49 -31q75 -47 138 -143l13 -39l-2 -3l-3 3h-13l3 -13l-3 -18q13 -25 13 -37l-3 -8l3 -15l-5 -8l5 -21v-13h-5l-21 44h-5v-2l5 -18h-3q13 -46 13 -63v-2q0 -4 -18 -13l-8 2l-13 -2h-7 q-11 10 -68 161q-66 130 -174 174q-20 0 -39 23zM492 378h17l119 136h-17z" />
<glyph unicode="&#xda;" horiz-adv-x="1045" d="M16 514q68 765 136 765v17h17v-68h-34v-34l17 -17v-17h-17l17 -51l-51 -85h17l17 17l-51 -306v-68h17q54 663 187 663l34 -51l-17 -85l17 -17h17l17 85h34l17 -51q-136 -490 -136 -765q17 -187 68 -187l391 442l17 85v476l34 34q34 0 34 -68h17q0 68 85 68l34 -68 l-17 -85q34 0 34 85h34l17 -17h17l-85 -1224l-17 -68q-68 0 -68 -68h-68l17 170h-34v-102l-51 -51v17l17 170q-51 0 -51 68h-17l-289 -136l-136 34v-17q-176 0 -238 510zM67 497h17l17 153h-17l-17 -17v-136zM118 208l17 -51h17v34l-17 51h-17v-34zM237 140q0 -59 153 -102 h34v17q-98 1 -187 102v-17zM492 378h17l119 136h-17zM554 1557q25 59 83 120q43 51 155 149l36 30q5 -5 5 -15q10 0 13 -15q0 -16 -108 -113q0 -7 -36 -41q-18 -20 -18 -29q126 130 162 149h2l-2 -11l5 -4q0 -15 -30 -40l12 -5l18 13l2 -2v-4q-6 -6 -9 -22 q-89 -83 -126 -128q-75 -80 -81 -126l-5 -6q-36 4 -36 27l-6 7v4l2 6h-2q-25 0 -36 56zM662 1617l15 17h-2q-13 -6 -13 -17zM736 1645h4v6h-2zM745 1653l7 7v2l-7 -7v-2zM763 1672l4 5v2l-4 -4v-3zM774 1683h2l16 17h-2l-16 -15v-2z" />
<glyph unicode="&#xdb;" horiz-adv-x="1045" d="M16 514q68 765 136 765v17h17v-68h-34v-34l17 -17v-17h-17l17 -51l-51 -85h17l17 17l-51 -306v-68h17q54 663 187 663l34 -51l-17 -85l17 -17h17l17 85h34l17 -51q-136 -490 -136 -765q17 -187 68 -187l391 442l17 85v476l34 34q34 0 34 -68h17q0 68 85 68l34 -68 l-17 -85q34 0 34 85h34l17 -17h17l-85 -1224l-17 -68q-68 0 -68 -68h-68l17 170h-34v-102l-51 -51v17l17 170q-51 0 -51 68h-17l-289 -136l-136 34v-17q-176 0 -238 510zM67 497h17l17 153h-17l-17 -17v-136zM118 208l17 -51h17v34l-17 51h-17v-34zM237 140q0 -59 153 -102 h34v17q-98 1 -187 102v-17zM385 1489v3q11 48 163 224q102 96 170 96l14 -4q59 34 109 34q49 0 61 -211v-51q0 -64 -41 -64q0 -7 -17 -7h-24q-8 0 -10 31l-3 3h-7q0 -22 -17 -31l-10 4q-15 -24 -34 -24h-4q-6 7 -30 7q-21 4 -21 24v17l-13 102h-7q0 -26 -75 -75 q-55 -95 -102 -95h-3l-24 6v-3q0 -17 -48 -20q-27 17 -27 34zM492 378h17l119 136h-17z" />
<glyph unicode="&#xdc;" horiz-adv-x="1045" d="M16 514q68 765 136 765v17h17v-68h-34v-34l17 -17v-17h-17l17 -51l-51 -85h17l17 17l-51 -306v-68h17q54 663 187 663l34 -51l-17 -85l17 -17h17l17 85h34l17 -51q-136 -490 -136 -765q17 -187 68 -187l391 442l17 85v476l34 34q34 0 34 -68h17q0 68 85 68l34 -68 l-17 -85q34 0 34 85h34l17 -17h17l-85 -1224l-17 -68q-68 0 -68 -68h-68l17 170h-34v-102l-51 -51v17l17 170q-51 0 -51 68h-17l-289 -136l-136 34v-17q-176 0 -238 510zM67 497h17l17 153h-17l-17 -17v-136zM118 208l17 -51h17v34l-17 51h-17v-34zM237 140q0 -59 153 -102 h34v17q-98 1 -187 102v-17zM288 1666q77 105 176 134l19 3q39 -2 39 -9l-3 -3v-4q11 0 28 -19v-9q-9 -11 -41 -23q-61 -35 -71 -51h4q73 54 124 54l13 -25q4 0 7 -23q12 0 12 -28q-106 -67 -118 -96q-13 -2 -32 -61l-35 -10q-55 34 -55 67q-5 0 -9 16q-22 0 -55 58zM492 378 h17l119 136h-17zM666 1650v4q125 131 169 147l16 6l3 -3l16 3h4l32 -38v-10q-71 -62 -71 -70h3q48 41 77 48l16 -32l-9 -32l3 3h6l10 -10v-3q-4 -22 -90 -109q-25 -31 -32 -60l-13 -10h-3q-14 0 -51 32q-10 0 -16 32q-16 22 -26 22q-44 49 -44 80z" />
<glyph unicode="&#xdd;" horiz-adv-x="1366" />
<glyph unicode="&#xde;" horiz-adv-x="1366" />
<glyph unicode="&#xdf;" horiz-adv-x="1185" d="M15 160v9q0 25 83 350q27 213 69 354q26 34 46 83q66 103 165 212q275 225 345 225q9 12 33 18l50 -4l28 9q78 -42 78 -74l-144 -34l91 -22l76 -8q39 0 60 -120l4 -13l-13 -46h4q10 -2 42 -69v-14q0 -28 -125 -198l-105 -166h4l55 14h120q108 0 147 -142q0 -53 19 -83 l-5 -32l14 -56q0 -168 -313 -390q-149 -74 -184 -74h-32q-112 0 -147 161l-5 4v5l5 14q-65 74 -65 147v18q0 37 51 46h32q19 -12 60 -69l27 -4q103 -75 335 152l17 72l-302 -100h-14l-28 23v4l5 33q-23 0 10 -23q0 32 42 55v5l-37 -10q-26 0 -60 51v9q0 17 19 42v4h-10 q-70 0 -63 95v4q0 42 299 413l-42 46q-294 -208 -401 -457q-49 -172 -119 -607l4 -36q-6 0 -13 -18l4 -28q0 -25 -18 -32h-32q-20 9 -33 46q-41 20 -41 64v27h-23q-22 0 -69 115zM319 832q9 0 18 32q-12 0 -18 -32zM342 869q94 123 147 170l9 14h-5q-122 -106 -151 -184z M682 455l5 -14h9q201 64 239 64v5h-60q-52 0 -193 -51v-4z" />
<glyph unicode="&#xe0;" d="M-68 152l289 697h17q0 -51 34 -51l17 85l-17 -17h-17v68l17 85l17 -17h17l-17 17v17l34 68h17l17 -17h17v17q0 34 -51 34l85 238h68l-17 -17v-17q118 68 221 68q11 -51 136 -51l136 -595h119v-17l-102 -17v-17q51 0 51 -34h136v-17q0 -38 -170 -68l34 -102l-17 -51 l17 -102l-17 -17h17l-17 -17l17 -204v-102l-17 17h-17l51 -255h-34q0 51 -34 51v-17l17 -51h-17l-17 17h-17q0 -51 -34 -51l-85 289h-17v-68h-17l-34 204l51 -34v17q-14 153 -51 153l17 17v51h-34v-51h-17v68l17 17h-17l-17 -17v68h17l17 -17h17l-17 17v102l-374 -85v-34 l119 34l68 -17l85 17v-34q-357 -64 -357 -170q-45 -187 -102 -238v-34h-51l-17 17h-17v-17l-51 34l34 102h-17q-51 0 -51 -136l-34 34l17 102zM170 611h17l34 68h-34zM221 713h17l17 51h-17l-17 -17v-34zM323 628h17l17 17v51h-17zM357 815l17 -68h17l51 153v17h-17 l-34 -119l-17 17h-17zM394 1804q0 31 42 31l23 5l21 -5l49 10h13q17 0 50 -31q74 -46 137 -143l13 -39l-2 -3l-3 3h-13l3 -13l-3 -18q13 -25 13 -37l-2 -7l2 -16l-5 -8l5 -21v-13h-5l-21 45h-5v-3l5 -18h-2q13 -46 13 -63v-2q0 -4 -19 -13l-7 2l-13 -2h-8q-11 10 -68 161 q-65 130 -174 174q-20 0 -39 24zM442 662h34q170 0 187 102l-68 255h-17zM476 611h34q153 17 153 51h-17l-170 -34v-17zM714 254h34v-102h-17zM782 50l51 17v34l-51 -17v-34zM952 101l17 -68h17v34l-17 68h-17v-34z" />
<glyph unicode="&#xe1;" d="M-71 152l289 697h17q0 -51 34 -51l17 85l-17 -17h-17v68l17 85l17 -17h17l-17 17v17l34 68h17l17 -17h17v17q0 34 -51 34l85 238h68l-17 -17v-17q118 68 221 68q11 -51 136 -51l136 -595h119v-17l-102 -17v-17q51 0 51 -34h136v-17q0 -38 -170 -68l34 -102l-17 -51 l17 -102l-17 -17h17l-17 -17l17 -204v-102l-17 17h-17l51 -255h-34q0 51 -34 51v-17l17 -51h-17l-17 17h-17q0 -51 -34 -51l-85 289h-17v-68h-17l-34 204l51 -34v17q-14 153 -51 153l17 17v51h-34v-51h-17v68l17 17h-17l-17 -17v68h17l17 -17h17l-17 17v102l-374 -85v-34 l119 34l68 -17l85 17v-34q-357 -64 -357 -170q-45 -187 -102 -238v-34h-51l-17 17h-17v-17l-51 34l34 102h-17q-51 0 -51 -136l-34 34l17 102zM167 611h17l34 68h-34zM218 713h17l17 51h-17l-17 -17v-34zM320 628h17l17 17v51h-17zM354 815l17 -68h17l51 153v17h-17 l-34 -119l-17 17h-17zM439 662h34q170 0 187 102l-68 255h-17zM473 611h34q153 17 153 51h-17l-170 -34v-17zM565 1557q25 59 83 120q43 52 156 150l36 30q4 -5 4 -15q11 0 14 -15q0 -17 -108 -114q0 -6 -36 -40q-18 -21 -18 -30q125 130 162 149h2l-2 -10l4 -5 q0 -15 -29 -40l11 -4l18 12l2 -2v-4q-6 -6 -9 -21q-89 -83 -126 -129q-74 -80 -81 -126l-4 -6q-36 5 -36 28l-7 6v4l2 7h-2q-25 0 -36 55zM673 1617l16 17h-2q-14 -6 -14 -17zM711 254h34v-102h-17zM747 1645h5v6h-2zM756 1653l7 7v2l-7 -6v-3zM774 1673l5 4v2l-5 -4v-2z M779 50l51 17v34l-51 -17v-34zM786 1683h2l16 18h-3l-15 -15v-3zM949 101l17 -68h17v34l-17 68h-17v-34z" />
<glyph unicode="&#xe2;" d="M-71 152l289 697h17q0 -51 34 -51l17 85l-17 -17h-17v68l17 85l17 -17h17l-17 17v17l34 68h17l17 -17h17v17q0 34 -51 34l85 238h68l-17 -17v-17q118 68 221 68q11 -51 136 -51l136 -595h119v-17l-102 -17v-17q51 0 51 -34h136v-17q0 -38 -170 -68l34 -102l-17 -51 l17 -102l-17 -17h17l-17 -17l17 -204v-102l-17 17h-17l51 -255h-34q0 51 -34 51v-17l17 -51h-17l-17 17h-17q0 -51 -34 -51l-85 289h-17v-68h-17l-34 204l51 -34v17q-14 153 -51 153l17 17v51h-34v-51h-17v68l17 17h-17l-17 -17v68h17l17 -17h17l-17 17v102l-374 -85v-34 l119 34l68 -17l85 17v-34q-357 -64 -357 -170q-45 -187 -102 -238v-34h-51l-17 17h-17v-17l-51 34l34 102h-17q-51 0 -51 -136l-34 34l17 102zM167 611h17l34 68h-34zM218 713h17l17 51h-17l-17 -17v-34zM320 628h17l17 17v51h-17zM354 815l17 -68h17l51 153v17h-17 l-34 -119l-17 17h-17zM380 1488v4q11 48 163 224q102 95 170 95l14 -3q59 34 109 34q49 0 61 -211v-51q0 -65 -41 -65q0 -6 -17 -6h-24q-8 0 -10 30l-3 4h-7q0 -22 -17 -31l-10 3q-15 -23 -34 -23h-4q-7 6 -30 6q-21 5 -21 24v17l-13 102h-7q0 -26 -75 -75q-55 -95 -102 -95 h-3l-24 7v-3q0 -17 -48 -21q-27 17 -27 34zM439 662h34q170 0 187 102l-68 255h-17zM473 611h34q153 17 153 51h-17l-170 -34v-17zM711 254h34v-102h-17zM779 50l51 17v34l-51 -17v-34zM949 101l17 -68h17v34l-17 68h-17v-34z" />
<glyph unicode="&#xe3;" d="M-71 152l289 697h17q0 -51 34 -51l17 85l-17 -17h-17v68l17 85l17 -17h17l-17 17v17l34 68h17l17 -17h17v17q0 34 -51 34l85 238h68l-17 -17v-17q118 68 221 68q11 -51 136 -51l136 -595h119v-17l-102 -17v-17q51 0 51 -34h136v-17q0 -38 -170 -68l34 -102l-17 -51 l17 -102l-17 -17h17l-17 -17l17 -204v-102l-17 17h-17l51 -255h-34q0 51 -34 51v-17l17 -51h-17l-17 17h-17q0 -51 -34 -51l-85 289h-17v-68h-17l-34 204l51 -34v17q-14 153 -51 153l17 17v51h-34v-51h-17v68l17 17h-17l-17 -17v68h17l17 -17h17l-17 17v102l-374 -85v-34 l119 34l68 -17l85 17v-34q-357 -64 -357 -170q-45 -187 -102 -238v-34h-51l-17 17h-17v-17l-51 34l34 102h-17q-51 0 -51 -136l-34 34l17 102zM167 611h17l34 68h-34zM218 713h17l17 51h-17l-17 -17v-34zM320 628h17l17 17v51h-17zM354 815l17 -68h17l51 153v17h-17 l-34 -119l-17 17h-17zM383 1530q0 9 33 57l55 77q35 54 79 92h5q17 0 55 -69q37 -38 58 -105l3 -2h5q51 0 159 139q26 26 71 85l43 47l15 -23l-3 -2l3 -3h2l3 3l3 -3v-2q0 -21 -18 -50q0 -11 -20 -40h2l38 43h3v-3l-3 -12q5 0 8 -15q-24 -45 -58 -90l-11 -17l3 -3h5 q0 11 18 25h2v-2q-35 -42 -35 -50l12 10h3v-2q-45 -65 -104 -127l3 -3v-2q0 -23 -61 -45l-12 -2q-47 0 -114 99l-33 37q-36 -45 -55 -94l-10 -5h-5l-8 5h-3q-4 0 -30 -52l-2 -3h-3q-32 0 -53 50q-27 0 -48 57zM439 662h34q170 0 187 102l-68 255h-17zM473 611h34 q153 17 153 51h-17l-170 -34v-17zM711 254h34v-102h-17zM779 50l51 17v34l-51 -17v-34zM949 101l17 -68h17v34l-17 68h-17v-34z" />
<glyph unicode="&#xe4;" d="M-71 152l289 697h17q0 -51 34 -51l17 85l-17 -17h-17v68l17 85l17 -17h17l-17 17v17l34 68h17l17 -17h17v17q0 34 -51 34l85 238h68l-17 -17v-17q118 68 221 68q11 -51 136 -51l136 -595h119v-17l-102 -17v-17q51 0 51 -34h136v-17q0 -38 -170 -68l34 -102l-17 -51 l17 -102l-17 -17h17l-17 -17l17 -204v-102l-17 17h-17l51 -255h-34q0 51 -34 51v-17l17 -51h-17l-17 17h-17q0 -51 -34 -51l-85 289h-17v-68h-17l-34 204l51 -34v17q-14 153 -51 153l17 17v51h-34v-51h-17v68l17 17h-17l-17 -17v68h17l17 -17h17l-17 17v102l-374 -85v-34 l119 34l68 -17l85 17v-34q-357 -64 -357 -170q-45 -187 -102 -238v-34h-51l-17 17h-17v-17l-51 34l34 102h-17q-51 0 -51 -136l-34 34l17 102zM167 611h17l34 68h-34zM218 713h17l17 51h-17l-17 -17v-34zM297 1666q77 105 176 134l19 3q39 -2 39 -9l-4 -4v-3q12 0 29 -19 v-10q-9 -10 -41 -22q-62 -35 -71 -51h3q74 54 125 54l13 -25q4 0 6 -23q13 0 13 -29q-106 -66 -118 -96q-13 -2 -32 -60l-35 -10q-55 34 -55 67q-5 0 -9 16q-22 0 -55 58zM320 628h17l17 17v51h-17zM354 815l17 -68h17l51 153v17h-17l-34 -119l-17 17h-17zM439 662h34 q170 0 187 102l-68 255h-17zM473 611h34q153 17 153 51h-17l-170 -34v-17zM674 1650v3q126 132 170 148l16 6l3 -3l16 3h3l32 -38v-10q-70 -62 -70 -70h3q48 41 77 48l16 -32l-10 -32l4 3h6l10 -10v-3q-4 -22 -90 -109q-25 -32 -32 -61l-13 -9h-3q-14 0 -51 32q-11 0 -16 32 q-16 22 -26 22q-45 49 -45 80zM711 254h34v-102h-17zM779 50l51 17v34l-51 -17v-34zM949 101l17 -68h17v34l-17 68h-17v-34z" />
<glyph unicode="&#xe5;" d="M-71 152l289 697h17q0 -51 34 -51l17 85l-17 -17h-17v68l17 85l17 -17h17l-17 17v17l34 68h17l17 -17h17v17q0 34 -51 34l85 238h68l-17 -17v-17q118 68 221 68q11 -51 136 -51l136 -595h119v-17l-102 -17v-17q51 0 51 -34h136v-17q0 -38 -170 -68l34 -102l-17 -51 l17 -102l-17 -17h17l-17 -17l17 -204v-102l-17 17h-17l51 -255h-34q0 51 -34 51v-17l17 -51h-17l-17 17h-17q0 -51 -34 -51l-85 289h-17v-68h-17l-34 204l51 -34v17q-14 153 -51 153l17 17v51h-34v-51h-17v68l17 17h-17l-17 -17v68h17l17 -17h17l-17 17v102l-374 -85v-34 l119 34l68 -17l85 17v-34q-357 -64 -357 -170q-45 -187 -102 -238v-34h-51l-17 17h-17v-17l-51 34l34 102h-17q-51 0 -51 -136l-34 34l17 102zM167 611h17l34 68h-34zM218 713h17l17 51h-17l-17 -17v-34zM320 628h17l17 17v51h-17zM354 815l17 -68h17l51 153v17h-17 l-34 -119l-17 17h-17zM439 662h34q170 0 187 102l-68 255h-17zM473 611h34q153 17 153 51h-17l-170 -34v-17zM483 1617v20q0 39 45 106q79 73 124 87l38 17l19 -5l40 7q38 0 49 -30l4 -16q0 -9 -6 -11l-24 2l-27 -10v-2l4 -4l19 6q8 -1 8 -4l6 2q35 0 35 -20l4 -5 q0 -4 -6 -4l-2 -1v-4q18 -37 30 -72q18 -24 18 -43h-2l2 -2v-2l-2 -7l2 -7l-40 -76q-13 -30 -65 -73q-39 -30 -55 -30h-6l-15 9l-49 -14q-40 0 -89 62q-57 76 -57 101zM575 1555l6 -4l77 18h8l14 -2q51 35 65 66q17 23 37 66v10q-6 21 -10 21q-126 -48 -141 -70 q-48 -46 -56 -105zM711 254h34v-102h-17zM779 50l51 17v34l-51 -17v-34zM949 101l17 -68h17v34l-17 68h-17v-34z" />
<glyph unicode="&#xe6;" horiz-adv-x="1688" d="M-15 169l406 697h17q-9 -51 25 -51l31 85l-20 -17h-17l12 68l31 85l14 -17h17l-14 17l3 17l45 68h17l14 -17h17l3 17q6 34 -45 34l84 221h68l-20 -17l-3 -17q129 68 232 68q2 -51 127 -51l2 -35l44 -3l509 3l82 -57q-36 -151 -130 -145l-406 -12l-2 -34l84 -6l65 2 l16 -19l17 -1l120 10l34 -3l-1 -17l-357 -33l-7 -220l43 -1l374 29l15 -18l-1 -17l-34 3v-17l117 -26l-1 -17q-37 -95 -400 -146l-138 -5l14 -82l-25 -51v-102l-20 -17h17l-20 -17l-3 -32q328 43 512 31l83 -23l-1 -34l-34 2l15 -18l-3 -51q-49 -64 -208 -54l-1 -17l136 -9 l-3 -34l-557 -86l7 -65h-34q9 51 -25 51l-3 -17l8 -51h-17l-14 17h-17q-8 -51 -42 -51l-32 97q-15 3 -27 8l-6 -38h-17v47q-26 15 -26 34v3l3 51l20 358h17l13 -15l15 82l6 35l-347 -68l-5 -34l124 34l24 -34l88 17l-5 -34q-327 -47 -345 -153q-76 -187 -142 -238l-5 -34 h-51l-14 17h-17l-3 -17l-46 34l51 102h-17q-51 0 -73 -136l-29 34l34 102zM580 679h34q128 -17 167 85l-13 255h-17zM598 611q156 17 162 51h-17l-135 -17l-3 -17zM776 50l54 17l6 34l-54 -17zM793 182l15 -2q0 53 -15 2zM799 407h3l-2 2zM813 470l17 -1l8 118l-17 2z M955 101l6 -68h17l5 34l-5 68h-17zM1073 538l1 16l154 7l-1 -17l67 15h17l-2 -17l-220 -23z" />
<glyph unicode="&#xe7;" horiz-adv-x="1024" d="M16 476q0 426 170 544v-17l-102 -170v-17h17q0 162 425 459l-51 -17h-17v17l153 34h17q247 0 374 -204v-17h-34l17 -17v-17q-102 12 -102 34q-397 0 -595 -408l-34 -119l51 -323h51q212 0 476 306h17v-17q-181 -261 -408 -306v-17h17q178 0 442 306l51 -68v-51 q0 -55 -255 -255l-17 -17h-17v-34q289 141 289 204h34v-17q-214 -255 -493 -255v-17h85l68 17h17v-17l-204 -33q-129 0 -272 186v-17l85 -136v-16h-51q-158 108 -187 271zM67 255l17 -68h17v17l-17 102h-17v-51zM186 1020v17l85 85v-17zM322 1173q0 34 102 68h17v-17z M337 -183q1 18 24.5 62.5t40.5 44.5l5 6h9l8 -6q0 -22 -31 -76l-3 -9l3 -3h3q28 0 59 85l11 17h6q6 -3 19 -28h3q7 1 14 22l14 3l3 -3v-19l-17 -35v-8l28 -6l53 6q109 0 109 -76q0 -94 -85 -132l-67 -50q-11 -9 -62 -14l-14 5l-28 -8l-31 3h-22l-20 -6q-17 3 -17 8v14 q5 9 90 56q71 33 71 116v8l-5 6l-45 -8q-42 2 -42 14q-18 -9 -39 -9h-11q-20 0 -34 20zM589 -256v-8l3 2h3l8 -2v2q0 12 6 12l2 -3v22l-5 6h-3q-7 0 -8 -20l2 -8zM589 -295l8 8v6q-6 0 -8 -14zM595 -175v-3q0 -12 11 -28v-14h5v31q-6 14 -16 14z" />
<glyph unicode="&#xe8;" horiz-adv-x="1028" d="M0 12v3l3 51l47 184l-16 18l34 -1l-6 -85l17 -2q10 85 40 82l-16 19l12 169l-34 3l-23 -84l19 16l17 -1l-7 -102l-17 2l3 50l-17 1l-2 -34l-17 1l2 34l54 287l-17 1l39 82l-16 18l1 17l37 287l16 -18l17 -1l2 34l-11 86l27 152l3 51l17 -2l16 -18l18 16l17 -2l16 -17 l18 16l51 -4l597 11l82 -57q-36 -151 -130 -145l-444 -20l-2 -34l84 -6l103 10l16 -19l17 -1l120 10l34 -3l-1 -17l-395 -41l-31 -220l17 -1l462 37l15 -18l-1 -17l-34 3v-17l117 -26l-1 -17q-37 -95 -488 -154l-171 -6l16 -17l-82 -216h-17l10 153l-17 1l-33 -236 q509 68 719 54l83 -23l-1 -34l-34 2l15 -18l-3 -51q-49 -64 -208 -54l-1 -17l136 -9l-3 -34l-791 -116l-17 1q-82 18 -82 53zM82 470l17 -1l8 118l-17 2zM342 538l1 16l154 7l-1 -17l155 23h17l-2 -17l-308 -31zM391 1804q0 31 42 31l23 5l21 -5l49 10h13q17 0 50 -31 q74 -46 137 -143l13 -39l-2 -3l-3 3h-13l3 -13l-3 -18q13 -25 13 -37l-2 -7l2 -16l-5 -8l5 -21v-13h-5l-21 45h-5v-3l5 -18h-2q13 -46 13 -63v-2q0 -4 -19 -13l-7 2l-13 -2h-8q-11 10 -68 161q-65 130 -174 174q-20 0 -39 24z" />
<glyph unicode="&#xe9;" horiz-adv-x="1028" d="M0 12v3l3 51l47 184l-16 18l34 -1l-6 -85l17 -2q10 85 40 82l-16 19l12 169l-34 3l-23 -84l19 16l17 -1l-7 -102l-17 2l3 50l-17 1l-2 -34l-17 1l2 34l54 287l-17 1l39 82l-16 18l1 17l37 287l16 -18l17 -1l2 34l-11 86l27 152l3 51l17 -2l16 -18l18 16l17 -2l16 -17 l18 16l51 -4l597 11l82 -57q-36 -151 -130 -145l-444 -20l-2 -34l84 -6l103 10l16 -19l17 -1l120 10l34 -3l-1 -17l-395 -41l-31 -220l17 -1l462 37l15 -18l-1 -17l-34 3v-17l117 -26l-1 -17q-37 -95 -488 -154l-171 -6l16 -17l-82 -216h-17l10 153l-17 1l-33 -236 q509 68 719 54l83 -23l-1 -34l-34 2l15 -18l-3 -51q-49 -64 -208 -54l-1 -17l136 -9l-3 -34l-791 -116l-17 1q-82 18 -82 53zM82 470l17 -1l8 118l-17 2zM342 538l1 16l154 7l-1 -17l155 23h17l-2 -17l-308 -31zM511 1557q25 59 83 120q43 52 156 150l36 30q4 -5 4 -15 q11 0 14 -15q0 -17 -108 -114q0 -6 -36 -40q-18 -21 -18 -30q125 130 162 149h2l-2 -10l4 -5q0 -15 -29 -40l11 -4l18 12l2 -2v-4q-6 -6 -9 -21q-89 -83 -126 -129q-74 -80 -81 -126l-4 -6q-36 5 -36 28l-7 6v4l2 7h-2q-25 0 -36 55zM619 1617l16 17h-2q-14 -6 -14 -17z M693 1645h5v6h-2zM702 1653l7 7v2l-7 -6v-3zM720 1673l5 4v2l-5 -4v-2zM732 1683h2l16 18h-3l-15 -15v-3z" />
<glyph unicode="&#xea;" horiz-adv-x="1028" d="M0 12v3l3 51l47 184l-16 18l34 -1l-6 -85l17 -2q10 85 40 82l-16 19l12 169l-34 3l-23 -84l19 16l17 -1l-7 -102l-17 2l3 50l-17 1l-2 -34l-17 1l2 34l54 287l-17 1l39 82l-16 18l1 17l37 287l16 -18l17 -1l2 34l-11 86l27 152l3 51l17 -2l16 -18l18 16l17 -2l16 -17 l18 16l51 -4l597 11l82 -57q-36 -151 -130 -145l-444 -20l-2 -34l84 -6l103 10l16 -19l17 -1l120 10l34 -3l-1 -17l-395 -41l-31 -220l17 -1l462 37l15 -18l-1 -17l-34 3v-17l117 -26l-1 -17q-37 -95 -488 -154l-171 -6l16 -17l-82 -216h-17l10 153l-17 1l-33 -236 q509 68 719 54l83 -23l-1 -34l-34 2l15 -18l-3 -51q-49 -64 -208 -54l-1 -17l136 -9l-3 -34l-791 -116l-17 1q-82 18 -82 53zM82 470l17 -1l8 118l-17 2zM342 538l1 16l154 7l-1 -17l155 23h17l-2 -17l-308 -31zM367 1488v4q11 48 163 224q102 95 170 95l14 -3q59 34 109 34 q49 0 61 -211v-51q0 -65 -41 -65q0 -6 -17 -6h-24q-8 0 -10 30l-3 4h-7q0 -22 -17 -31l-10 3q-15 -23 -34 -23h-4q-7 6 -30 6q-21 5 -21 24v17l-13 102h-7q0 -26 -75 -75q-55 -95 -102 -95h-3l-24 7v-3q0 -17 -48 -21q-27 17 -27 34z" />
<glyph unicode="&#xeb;" horiz-adv-x="1028" d="M0 12v3l3 51l47 184l-16 18l34 -1l-6 -85l17 -2q10 85 40 82l-16 19l12 169l-34 3l-23 -84l19 16l17 -1l-7 -102l-17 2l3 50l-17 1l-2 -34l-17 1l2 34l54 287l-17 1l39 82l-16 18l1 17l37 287l16 -18l17 -1l2 34l-11 86l27 152l3 51l17 -2l16 -18l18 16l17 -2l16 -17 l18 16l51 -4l597 11l82 -57q-36 -151 -130 -145l-444 -20l-2 -34l84 -6l103 10l16 -19l17 -1l120 10l34 -3l-1 -17l-395 -41l-31 -220l17 -1l462 37l15 -18l-1 -17l-34 3v-17l117 -26l-1 -17q-37 -95 -488 -154l-171 -6l16 -17l-82 -216h-17l10 153l-17 1l-33 -236 q509 68 719 54l83 -23l-1 -34l-34 2l15 -18l-3 -51q-49 -64 -208 -54l-1 -17l136 -9l-3 -34l-791 -116l-17 1q-82 18 -82 53zM82 470l17 -1l8 118l-17 2zM308 1666q77 105 176 134l19 3q39 -2 39 -9l-4 -4v-3q12 0 29 -19v-10q-9 -10 -41 -22q-62 -35 -71 -51h3 q74 54 125 54l13 -25q4 0 6 -23q13 0 13 -29q-106 -66 -118 -96q-13 -2 -32 -60l-35 -10q-55 34 -55 67q-5 0 -9 16q-22 0 -55 58zM342 538l1 16l154 7l-1 -17l155 23h17l-2 -17l-308 -31zM685 1650v3q126 132 170 148l16 6l3 -3l16 3h3l32 -38v-10q-70 -62 -70 -70h3 q48 41 77 48l16 -32l-10 -32l4 3h6l10 -10v-3q-4 -22 -90 -109q-25 -32 -32 -61l-13 -9h-3q-14 0 -51 32q-11 0 -16 32q-16 22 -26 22q-45 49 -45 80z" />
<glyph unicode="&#xec;" horiz-adv-x="481" d="M43 85l31 255l17 306l37 51l4 68l-16 17l1 17h34l1 17l-16 17l69 323h-17l18 17l5 102l-16 17l1 17l189 17q-4 -51 64 -51l31 -68l-18 -17h17q-122 -360 -149 -833l-6 -102l17 -17l-1 -17l-18 -17h17l-18 -17l10 -119l-2 -34q-91 -110 -95 -170h-68l-82 34l24 119z M57 1804q0 31 42 31l23 5l21 -5l49 10h13q17 0 50 -31q74 -46 137 -143l13 -39l-2 -3l-3 3h-13l3 -13l-3 -18q13 -25 13 -37l-2 -7l2 -16l-5 -8l5 -21v-13h-5l-21 45h-5v-3l5 -18h-2q13 -46 13 -63v-2q0 -4 -19 -13l-7 2l-13 -2h-8q-11 10 -68 161q-65 130 -174 174 q-20 0 -39 24zM137 -68l35 34l4 51h-34zM140 595h17l5 102h-17zM165 748h17l6 102h-17zM191 901h17l6 119h-17z" />
<glyph unicode="&#xed;" horiz-adv-x="481" d="M43 85l31 255l17 306l37 51l4 68l-16 17l1 17h34l1 17l-16 17l69 323h-17l18 17l5 102l-16 17l1 17l189 17q-4 -51 64 -51l31 -68l-18 -17h17q-122 -360 -149 -833l-6 -102l17 -17l-1 -17l-18 -17h17l-18 -17l10 -119l-2 -34q-91 -110 -95 -170h-68l-82 34l24 119z M137 -68l35 34l4 51h-34zM140 595h17l5 102h-17zM165 748h17l6 102h-17zM191 901h17l6 119h-17zM290 1557q25 59 83 120q43 52 156 150l36 30q4 -5 4 -15q11 0 14 -15q0 -17 -108 -114q0 -6 -36 -40q-18 -21 -18 -30q125 130 162 149h2l-2 -10l4 -5q0 -15 -29 -40l11 -4 l18 12l2 -2v-4q-6 -6 -9 -21q-89 -83 -126 -129q-74 -80 -81 -126l-4 -6q-36 5 -36 28l-7 6v4l2 7h-2q-25 0 -36 55zM398 1617l16 17h-2q-14 -6 -14 -17zM472 1645h5v6h-2zM481 1653l7 7v2l-7 -6v-3zM499 1673l5 4v2l-5 -4v-2zM511 1683h2l16 18h-3l-15 -15v-3z" />
<glyph unicode="&#xee;" horiz-adv-x="481" d="M43 85l31 255l17 306l37 51l4 68l-16 17l1 17h34l1 17l-16 17l69 323h-17l18 17l5 102l-16 17l1 17l189 17q-4 -51 64 -51l31 -68l-18 -17h17q-122 -360 -149 -833l-6 -102l17 -17l-1 -17l-18 -17h17l-18 -17l10 -119l-2 -34q-91 -110 -95 -170h-68l-82 34l24 119z M137 -68l35 34l4 51h-34zM140 595h17l5 102h-17zM149 1488v4q9 48 130 224q82 95 136 95l12 -3q47 34 87 34q39 0 49 -211v-51q0 -65 -33 -65q0 -6 -14 -6h-19q-6 0 -8 30l-2 4h-6q0 -22 -14 -31l-8 3q-12 -23 -27 -23h-3q-6 6 -24 6q-17 5 -17 24v17l-10 102h-6 q0 -26 -60 -75q-44 -95 -81 -95h-3l-19 7v-3q0 -17 -38 -21q-22 17 -22 34zM165 748h17l6 102h-17zM191 901h17l6 119h-17z" />
<glyph unicode="&#xef;" horiz-adv-x="481" d="M29 1666q77 105 176 134l19 3q39 -2 39 -9l-4 -4v-3q12 0 29 -19v-10q-9 -10 -41 -22q-62 -35 -71 -51h3q74 54 125 54l13 -25q4 0 6 -23q13 0 13 -29q-106 -66 -118 -96q-13 -2 -32 -60l-35 -10q-55 34 -55 67q-5 0 -9 16q-22 0 -55 58zM43 85l31 255l17 306l37 51l4 68 l-16 17l1 17h34l1 17l-16 17l69 323h-17l18 17l5 102l-16 17l1 17l189 17q-4 -51 64 -51l31 -68l-18 -17h17q-122 -360 -149 -833l-6 -102l17 -17l-1 -17l-18 -17h17l-18 -17l10 -119l-2 -34q-91 -110 -95 -170h-68l-82 34l24 119zM137 -68l35 34l4 51h-34zM140 595h17 l5 102h-17zM165 748h17l6 102h-17zM191 901h17l6 119h-17zM406 1650v3q126 132 170 148l16 6l3 -3l16 3h3l32 -38v-10q-70 -62 -70 -70h3q48 41 77 48l16 -32l-10 -32l4 3h6l10 -10v-3q-4 -22 -90 -109q-25 -32 -32 -61l-13 -9h-3q-14 0 -51 32q-11 0 -16 32q-16 22 -26 22 q-45 49 -45 80z" />
<glyph unicode="&#xf0;" horiz-adv-x="1139" />
<glyph unicode="&#xf1;" horiz-adv-x="1283" d="M6 185q0 462 204 1122l136 17l119 -102q0 51 34 51h17l238 -612v-34h-17l-34 102h-17v-34l119 -289h17q68 442 196 923l51 -34l51 17l102 -51v-17q-51 0 -51 -68h17l17 -17h17l17 85h34v-17l-17 -17l17 -17v-17q-128 -393 -230 -1127h-34l34 272q-34 0 -102 -323 q-63 -51 -119 -51v-34h-17q0 34 -68 34v119q0 77 -340 850h-17q-68 -303 -119 -816l-17 17q-102 -30 -102 -85h-34q-34 64 -34 221h-17v-153h-34zM108 814h17l17 68l-17 17h-17v-17l17 -17l-17 -17v-34zM468 1530q0 9 33 57l55 77q35 54 79 92h5q17 0 55 -69q37 -38 58 -105 l3 -2h5q51 0 159 139q26 26 71 85l43 47l15 -23l-3 -2l3 -3h2l3 3l3 -3v-2q0 -21 -18 -50q0 -11 -20 -40h2l38 43h3v-3l-3 -12q5 0 8 -15q-24 -45 -58 -90l-11 -17l3 -3h5q0 11 18 25h2v-2q-35 -42 -35 -50l12 10h3v-2q-45 -65 -104 -127l3 -3v-2q0 -23 -61 -45l-12 -2 q-47 0 -114 99l-33 37q-36 -45 -55 -94l-10 -5h-5l-8 5h-3q-4 0 -30 -52l-2 -3h-3q-32 0 -53 50q-27 0 -48 57zM754 627q44 0 68 -136v-17h-17z" />
<glyph unicode="&#xf2;" horiz-adv-x="1250" d="M31 402l17 17l-17 119v34q0 141 272 493v-17q-125 -168 -204 -374v-17h17q62 249 459 629l-119 -68h-17q0 78 323 119q200 0 374 -119l-17 -17v-17l68 -102h-34l-17 17h-17l51 -374h17q0 85 34 85v-68q0 -96 -170 -442h17q-120 -165 -357 -306l-85 -17h-17 q-404 0 -510 323zM82 436h17v136h-17v-136zM252 708h17l51 102h-17zM286 453q0 -136 153 -238h17q186 0 425 391q85 186 85 272v136q0 47 -170 68h-17l-17 -17h-17v17l-68 -34l-17 17v-17l17 -17l-119 -102q-141 0 -272 -476zM337 130l85 -51v17l-85 51v-17zM596 1804 q0 31 42 31l23 5l21 -5l49 10h13q17 0 50 -31q74 -46 137 -143l13 -39l-2 -3l-3 3h-13l3 -13l-3 -18q13 -25 13 -37l-2 -7l2 -16l-5 -8l5 -21v-13h-5l-21 45h-5v-3l5 -18h-2q13 -46 13 -63v-2q0 -4 -19 -13l-7 2l-13 -2h-8q-11 10 -68 161q-65 130 -174 174q-20 0 -39 24z M813 436h17l68 85h-17zM898 538h51l51 119l-17 51h-17zM1068 555h17l17 68v17h-17l-17 -51v-34zM1170 912v85h34v-85h-34z" />
<glyph unicode="&#xf3;" horiz-adv-x="1250" d="M31 402l17 17l-17 119v34q0 141 272 493v-17q-125 -168 -204 -374v-17h17q62 249 459 629l-119 -68h-17q0 78 323 119q200 0 374 -119l-17 -17v-17l68 -102h-34l-17 17h-17l51 -374h17q0 85 34 85v-68q0 -96 -170 -442h17q-120 -165 -357 -306l-85 -17h-17 q-404 0 -510 323zM82 436h17v136h-17v-136zM252 708h17l51 102h-17zM286 453q0 -136 153 -238h17q186 0 425 391q85 186 85 272v136q0 47 -170 68h-17l-17 -17h-17v17l-68 -34l-17 17v-17l17 -17l-119 -102q-141 0 -272 -476zM337 130l85 -51v17l-85 51v-17zM795 1557 q25 59 83 120q43 52 156 150l36 30q4 -5 4 -15q11 0 14 -15q0 -17 -108 -114q0 -6 -36 -40q-18 -21 -18 -30q125 130 162 149h2l-2 -10l4 -5q0 -15 -29 -40l11 -4l18 12l2 -2v-4q-6 -6 -9 -21q-89 -83 -126 -129q-74 -80 -81 -126l-4 -6q-36 5 -36 28l-7 6v4l2 7h-2 q-25 0 -36 55zM813 436h17l68 85h-17zM898 538h51l51 119l-17 51h-17zM903 1617l16 17h-2q-14 -6 -14 -17zM977 1645h5v6h-2zM986 1653l7 7v2l-7 -6v-3zM1004 1673l5 4v2l-5 -4v-2zM1016 1683h2l16 18h-3l-15 -15v-3zM1068 555h17l17 68v17h-17l-17 -51v-34zM1170 912v85h34 v-85h-34z" />
<glyph unicode="&#xf4;" horiz-adv-x="1250" d="M31 402l17 17l-17 119v34q0 141 272 493v-17q-125 -168 -204 -374v-17h17q62 249 459 629l-119 -68h-17q0 78 323 119q200 0 374 -119l-17 -17v-17l68 -102h-34l-17 17h-17l51 -374h17q0 85 34 85v-68q0 -96 -170 -442h17q-120 -165 -357 -306l-85 -17h-17 q-404 0 -510 323zM82 436h17v136h-17v-136zM252 708h17l51 102h-17zM286 453q0 -136 153 -238h17q186 0 425 391q85 186 85 272v136q0 47 -170 68h-17l-17 -17h-17v17l-68 -34l-17 17v-17l17 -17l-119 -102q-141 0 -272 -476zM337 130l85 -51v17l-85 51v-17zM585 1488v4 q11 48 163 224q102 95 170 95l14 -3q59 34 109 34q49 0 61 -211v-51q0 -65 -41 -65q0 -6 -17 -6h-24q-8 0 -10 30l-3 4h-7q0 -22 -17 -31l-10 3q-15 -23 -34 -23h-4q-7 6 -30 6q-21 5 -21 24v17l-13 102h-7q0 -26 -75 -75q-55 -95 -102 -95h-3l-24 7v-3q0 -17 -48 -21 q-27 17 -27 34zM813 436h17l68 85h-17zM898 538h51l51 119l-17 51h-17zM1068 555h17l17 68v17h-17l-17 -51v-34zM1170 912v85h34v-85h-34z" />
<glyph unicode="&#xf5;" horiz-adv-x="1250" d="M31 402l17 17l-17 119v34q0 141 272 493v-17q-125 -168 -204 -374v-17h17q62 249 459 629l-119 -68h-17q0 78 323 119q200 0 374 -119l-17 -17v-17l68 -102h-34l-17 17h-17l51 -374h17q0 85 34 85v-68q0 -96 -170 -442h17q-120 -165 -357 -306l-85 -17h-17 q-404 0 -510 323zM82 436h17v136h-17v-136zM252 708h17l51 102h-17zM286 453q0 -136 153 -238h17q186 0 425 391q85 186 85 272v136q0 47 -170 68h-17l-17 -17h-17v17l-68 -34l-17 17v-17l17 -17l-119 -102q-141 0 -272 -476zM337 130l85 -51v17l-85 51v-17zM579 1530 q0 9 33 57l55 77q35 54 79 92h5q17 0 55 -69q37 -38 58 -105l3 -2h5q51 0 159 139q26 26 71 85l43 47l15 -23l-3 -2l3 -3h2l3 3l3 -3v-2q0 -21 -18 -50q0 -11 -20 -40h2l38 43h3v-3l-3 -12q5 0 8 -15q-24 -45 -58 -90l-11 -17l3 -3h5q0 11 18 25h2v-2q-35 -42 -35 -50l12 10 h3v-2q-45 -65 -104 -127l3 -3v-2q0 -23 -61 -45l-12 -2q-47 0 -114 99l-33 37q-36 -45 -55 -94l-10 -5h-5l-8 5h-3q-4 0 -30 -52l-2 -3h-3q-32 0 -53 50q-27 0 -48 57zM813 436h17l68 85h-17zM898 538h51l51 119l-17 51h-17zM1068 555h17l17 68v17h-17l-17 -51v-34z M1170 912v85h34v-85h-34z" />
<glyph unicode="&#xf6;" horiz-adv-x="1250" d="M31 402l17 17l-17 119v34q0 141 272 493v-17q-125 -168 -204 -374v-17h17q62 249 459 629l-119 -68h-17q0 78 323 119q200 0 374 -119l-17 -17v-17l68 -102h-34l-17 17h-17l51 -374h17q0 85 34 85v-68q0 -96 -170 -442h17q-120 -165 -357 -306l-85 -17h-17 q-404 0 -510 323zM82 436h17v136h-17v-136zM252 708h17l51 102h-17zM286 453q0 -136 153 -238h17q186 0 425 391q85 186 85 272v136q0 47 -170 68h-17l-17 -17h-17v17l-68 -34l-17 17v-17l17 -17l-119 -102q-141 0 -272 -476zM337 130l85 -51v17l-85 51v-17zM547 1666 q77 105 176 134l19 3q39 -2 39 -9l-4 -4v-3q12 0 29 -19v-10q-9 -10 -41 -22q-62 -35 -71 -51h3q74 54 125 54l13 -25q4 0 6 -23q13 0 13 -29q-106 -66 -118 -96q-13 -2 -32 -60l-35 -10q-55 34 -55 67q-5 0 -9 16q-22 0 -55 58zM813 436h17l68 85h-17zM898 538h51l51 119 l-17 51h-17zM924 1650v3q126 132 170 148l16 6l3 -3l16 3h3l32 -38v-10q-70 -62 -70 -70h3q48 41 77 48l16 -32l-10 -32l4 3h6l10 -10v-3q-4 -22 -90 -109q-25 -32 -32 -61l-13 -9h-3q-14 0 -51 32q-11 0 -16 32q-16 22 -26 22q-45 49 -45 80zM1068 555h17l17 68v17h-17 l-17 -51v-34zM1170 912v85h34v-85h-34z" />
<glyph unicode="&#xf7;" horiz-adv-x="1124" />
<glyph unicode="&#xf8;" horiz-adv-x="1250" d="M39 402l17 17l-17 119v34q0 141 272 493v-17q-125 -168 -204 -374v-17h17q62 249 459 629l-119 -68h-17q0 78 323 119q38 0 76 -4q8 18 13 38l12 -12q10 -7 16 55q59 42 98 42h7l23 -34l28 -7l-7 -2l-25 -83l13 -10l46 12l25 69l49 -12l-51 -80q-11 -25 -21 -48 q37 -19 72 -43l-17 -17v-17l68 -102h-34l-17 17h-17l51 -374h17q0 85 34 85v-68q0 -96 -170 -442h17q-120 -165 -357 -306l-85 -17h-17q-126 0 -223 31q-29 -73 -53 -141l-70 -13q-87 122 -76 209l24 49q-75 74 -112 188zM90 436h17v136h-17v-136zM260 708h17l51 102h-17z M265 474q29 -85 63 -142l335 680h-68q-128 21 -330 -538zM326 157l17 -1l381 799l1 17l-189 -367l-48 -117l-17 1l4 34l-17 1l-4 -34l14 -18l-18 -15l17 -2l-139 -281zM481 216q184 -79 408 390q85 186 85 272v136q0 14 -15 26l-92 -161l17 -1l-303 -599l-17 1l-61 -63 l63 113l2 17l-17 1zM668 1048l9 -9l5 12l-14 14v-17zM728 989l17 -1l48 117l3 17h-17l-49 -116zM816 390h17l73 131h-17zM906 538h51l51 119l-17 51h-17zM1076 555h17l17 68v17h-17l-17 -51v-34zM1178 912v85h34v-85h-34z" />
<glyph unicode="&#xf9;" horiz-adv-x="1045" d="M16 514q68 765 136 765v17h17v-68h-34v-34l17 -17v-17h-17l17 -51l-51 -85h17l17 17l-51 -306v-68h17q54 663 187 663l34 -51l-17 -85l17 -17h17l17 85h34l17 -51q-136 -490 -136 -765q17 -187 68 -187l391 442l17 85v476l34 34q34 0 34 -68h17q0 68 85 68l34 -68 l-17 -85q34 0 34 85h34l17 -17h17l-85 -1224l-17 -68q-68 0 -68 -68h-68l17 170h-34v-102l-51 -51v17l17 170q-51 0 -51 68h-17l-289 -136l-136 34v-17q-176 0 -238 510zM67 497h17l17 153h-17l-17 -17v-136zM118 208l17 -51h17v34l-17 51h-17v-34zM237 140q0 -59 153 -102 h34v17q-98 1 -187 102v-17zM371 1804q0 31 42 31l23 5l21 -5l49 10h13q17 0 50 -31q74 -46 137 -143l13 -39l-2 -3l-3 3h-13l3 -13l-3 -18q13 -25 13 -37l-2 -7l2 -16l-5 -8l5 -21v-13h-5l-21 45h-5v-3l5 -18h-2q13 -46 13 -63v-2q0 -4 -19 -13l-7 2l-13 -2h-8 q-11 10 -68 161q-65 130 -174 174q-20 0 -39 24zM492 378h17l119 136h-17z" />
<glyph unicode="&#xfa;" horiz-adv-x="1045" d="M16 514q68 765 136 765v17h17v-68h-34v-34l17 -17v-17h-17l17 -51l-51 -85h17l17 17l-51 -306v-68h17q54 663 187 663l34 -51l-17 -85l17 -17h17l17 85h34l17 -51q-136 -490 -136 -765q17 -187 68 -187l391 442l17 85v476l34 34q34 0 34 -68h17q0 68 85 68l34 -68 l-17 -85q34 0 34 85h34l17 -17h17l-85 -1224l-17 -68q-68 0 -68 -68h-68l17 170h-34v-102l-51 -51v17l17 170q-51 0 -51 68h-17l-289 -136l-136 34v-17q-176 0 -238 510zM67 497h17l17 153h-17l-17 -17v-136zM118 208l17 -51h17v34l-17 51h-17v-34zM237 140q0 -59 153 -102 h34v17q-98 1 -187 102v-17zM492 378h17l119 136h-17zM554 1557q25 59 83 120q43 52 156 150l36 30q4 -5 4 -15q11 0 14 -15q0 -17 -108 -114q0 -6 -36 -40q-18 -21 -18 -30q125 130 162 149h2l-2 -10l4 -5q0 -15 -29 -40l11 -4l18 12l2 -2v-4q-6 -6 -9 -21 q-89 -83 -126 -129q-74 -80 -81 -126l-4 -6q-36 5 -36 28l-7 6v4l2 7h-2q-25 0 -36 55zM662 1617l16 17h-2q-14 -6 -14 -17zM736 1645h5v6h-2zM745 1653l7 7v2l-7 -6v-3zM763 1673l5 4v2l-5 -4v-2zM775 1683h2l16 18h-3l-15 -15v-3z" />
<glyph unicode="&#xfb;" horiz-adv-x="1045" d="M16 514q68 765 136 765v17h17v-68h-34v-34l17 -17v-17h-17l17 -51l-51 -85h17l17 17l-51 -306v-68h17q54 663 187 663l34 -51l-17 -85l17 -17h17l17 85h34l17 -51q-136 -490 -136 -765q17 -187 68 -187l391 442l17 85v476l34 34q34 0 34 -68h17q0 68 85 68l34 -68 l-17 -85q34 0 34 85h34l17 -17h17l-85 -1224l-17 -68q-68 0 -68 -68h-68l17 170h-34v-102l-51 -51v17l17 170q-51 0 -51 68h-17l-289 -136l-136 34v-17q-176 0 -238 510zM67 497h17l17 153h-17l-17 -17v-136zM118 208l17 -51h17v34l-17 51h-17v-34zM237 140q0 -59 153 -102 h34v17q-98 1 -187 102v-17zM385 1488v4q11 48 163 224q102 95 170 95l14 -3q59 34 109 34q49 0 61 -211v-51q0 -65 -41 -65q0 -6 -17 -6h-24q-8 0 -10 30l-3 4h-7q0 -22 -17 -31l-10 3q-15 -23 -34 -23h-4q-7 6 -30 6q-21 5 -21 24v17l-13 102h-7q0 -26 -75 -75 q-55 -95 -102 -95h-3l-24 7v-3q0 -17 -48 -21q-27 17 -27 34zM492 378h17l119 136h-17z" />
<glyph unicode="&#xfc;" horiz-adv-x="1045" d="M16 514q68 765 136 765v17h17v-68h-34v-34l17 -17v-17h-17l17 -51l-51 -85h17l17 17l-51 -306v-68h17q54 663 187 663l34 -51l-17 -85l17 -17h17l17 85h34l17 -51q-136 -490 -136 -765q17 -187 68 -187l391 442l17 85v476l34 34q34 0 34 -68h17q0 68 85 68l34 -68 l-17 -85q34 0 34 85h34l17 -17h17l-85 -1224l-17 -68q-68 0 -68 -68h-68l17 170h-34v-102l-51 -51v17l17 170q-51 0 -51 68h-17l-289 -136l-136 34v-17q-176 0 -238 510zM67 497h17l17 153h-17l-17 -17v-136zM118 208l17 -51h17v34l-17 51h-17v-34zM237 140q0 -59 153 -102 h34v17q-98 1 -187 102v-17zM288 1666q77 105 176 134l19 3q39 -2 39 -9l-4 -4v-3q12 0 29 -19v-10q-9 -10 -41 -22q-62 -35 -71 -51h3q74 54 125 54l13 -25q4 0 6 -23q13 0 13 -29q-106 -66 -118 -96q-13 -2 -32 -60l-35 -10q-55 34 -55 67q-5 0 -9 16q-22 0 -55 58z M492 378h17l119 136h-17zM665 1650v3q126 132 170 148l16 6l3 -3l16 3h3l32 -38v-10q-70 -62 -70 -70h3q48 41 77 48l16 -32l-10 -32l4 3h6l10 -10v-3q-4 -22 -90 -109q-25 -32 -32 -61l-13 -9h-3q-14 0 -51 32q-11 0 -16 32q-16 22 -26 22q-45 49 -45 80z" />
<glyph unicode="&#xfd;" horiz-adv-x="1024" />
<glyph unicode="&#xfe;" horiz-adv-x="1139" />
<glyph unicode="&#xff;" horiz-adv-x="991" d="M1 1175v34h34l-34 85l17 17h34q39 0 51 -85l51 34h51q0 -105 183 -444q98 186 170 221v-17q-170 -216 -170 -255v-17h17l400 542v17l-196 -202v17l213 253h17v-34l17 17h17q119 -40 119 -68l-85 -102h34q68 35 68 85h51v-17l-17 -17l17 -17v-17q-604 -650 -590 -1036 l-34 -169l17 -17v-17l-85 -153l-136 17v136l-51 67v34l17 204l17 -17h17l-17 17v17l17 17v17l-17 17l51 17l-17 -85v-68h17l20 205l-17 51h-17v-51h-17l-17 136l17 17v17zM190 1666q77 105 176 134l19 3q39 -2 39 -9l-4 -4v-3q12 0 29 -19v-10q-9 -10 -41 -22 q-62 -35 -71 -51h3q74 54 125 54l13 -25q4 0 6 -23q13 0 13 -29q-106 -66 -118 -96q-13 -2 -32 -60l-35 -10q-55 34 -55 67q-5 0 -9 16q-22 0 -55 58zM283 -68v-68h17v68h-17zM473 578h34q147 283 349 542h-17q-366 -469 -366 -542zM567 1650v3q126 132 170 148l16 6l3 -3 l16 3h3l32 -38v-10q-70 -62 -70 -70h3q48 41 77 48l16 -32l-10 -32l4 3h6l10 -10v-3q-4 -22 -90 -109q-25 -32 -32 -61l-13 -9h-3q-14 0 -51 32q-11 0 -16 32q-16 22 -26 22q-45 49 -45 80zM575 1054v17l34 34v-17z" />
<glyph unicode="&#x152;" horiz-adv-x="1644" d="M23 402l15 17l-15 119v34q0 141 249 493v-17q-115 -168 -187 -374v-17h16q56 249 420 629l-109 -68h-15q0 78 296 119q121 0 232 -52l4 47l17 -2l16 -18l18 16l17 -1l16 -18l18 16l51 -4l479 3l82 -57q-36 -151 -129 -145l-328 -12l-2 -34l71 -5l16 -17l17 -1l119 9 l34 -3v-17l-279 -33l-31 -219l17 -1l345 28l16 -18l-1 -17l-34 3l-1 -17l117 -26l-1 -17q-37 -95 -371 -145l-146 -5q-19 -54 -48 -123l-43 -112h-5q-9 -19 -18 -40h15q-13 -20 -28 -39q377 57 581 43l84 -23l-2 -34l-34 2l15 -17l-3 -51q-49 -65 -208 -55l-1 -17l136 -8 l-3 -34l-674 -108l-17 1q-82 17 -82 53v2l4 45q-45 -33 -95 -66l-78 -17h-15q-371 0 -468 323zM225 708h16l47 102h-16zM256 453q0 -136 141 -238h15q171 0 390 391q78 186 78 272v136q0 47 -156 68h-16l-15 -17h-16v17l-62 -34l-16 17v-17l16 -17l-109 -102 q-130 0 -250 -476zM303 130l78 -51v17l-78 51v-17zM714 436h17l68 85h-17zM799 538h51l51 119l-17 51h-17zM969 555h17l17 68v17h-17l-17 -51v-34zM1254 1072l1 -1l14 -1z" />
<glyph unicode="&#x153;" horiz-adv-x="1644" d="M23 402l15 17l-15 119v34q0 141 249 493v-17q-115 -168 -187 -374v-17h16q56 249 420 629l-109 -68h-15q0 78 296 119q121 0 232 -52l4 47l17 -2l16 -18l18 16l17 -1l16 -18l18 16l51 -4l479 3l82 -57q-36 -151 -129 -145l-328 -12l-2 -34l71 -5l16 -17l17 -1l119 9 l34 -3v-17l-279 -33l-31 -219l17 -1l345 28l16 -18l-1 -17l-34 3l-1 -17l117 -26l-1 -17q-37 -95 -371 -145l-146 -5q-19 -54 -48 -123l-43 -112h-5q-9 -19 -18 -40h15q-13 -20 -28 -39q377 57 581 43l84 -23l-2 -34l-34 2l15 -17l-3 -51q-49 -65 -208 -55l-1 -17l136 -8 l-3 -34l-674 -108l-17 1q-82 17 -82 53v2l4 45q-45 -33 -95 -66l-78 -17h-15q-371 0 -468 323zM225 708h16l47 102h-16zM256 453q0 -136 141 -238h15q171 0 390 391q78 186 78 272v136q0 47 -156 68h-16l-15 -17h-16v17l-62 -34l-16 17v-17l16 -17l-109 -102 q-130 0 -250 -476zM303 130l78 -51v17l-78 51v-17zM714 436h17l68 85h-17zM799 538h51l51 119l-17 51h-17zM969 555h17l17 68v17h-17l-17 -51v-34zM1254 1072l1 -1l14 -1z" />
<glyph unicode="&#x178;" horiz-adv-x="991" d="M1 1175v34h34l-34 85l17 17h34q39 0 51 -85l51 34h51q0 -105 183 -444q98 186 170 221v-17q-170 -216 -170 -255v-17h17l400 542v17l-196 -202v17l213 253h17v-34l17 17h17q119 -40 119 -68l-85 -102h34q68 35 68 85h51v-17l-17 -17l17 -17v-17q-604 -650 -590 -1036 l-34 -169l17 -17v-17l-85 -153l-136 17v136l-51 67v34l17 204l17 -17h17l-17 17v17l17 17v17l-17 17l51 17l-17 -85v-68h17l20 205l-17 51h-17v-51h-17l-17 136l17 17v17zM190 1666q77 105 176 134l19 3q39 -2 39 -9l-3 -4v-3q11 0 28 -19v-10q-9 -10 -41 -22 q-61 -35 -71 -51h4q73 54 124 54l13 -25q4 0 7 -23q12 0 12 -29q-106 -66 -118 -96q-13 -2 -32 -60l-35 -10q-55 34 -55 67q-5 0 -9 16q-22 0 -55 58zM283 -68v-68h17v68h-17zM473 578h34q147 283 349 542h-17q-366 -469 -366 -542zM568 1650v3q125 132 169 148l16 6l3 -3 l16 3h4l32 -38v-10q-71 -62 -71 -70h3q48 41 77 48l16 -32l-9 -32l3 3h6l10 -10v-3q-3 -22 -90 -109q-25 -32 -32 -61l-13 -9h-3q-14 0 -51 32q-10 0 -16 32q-16 22 -26 22q-44 49 -44 80zM575 1054v17l34 34v-17z" />
<glyph unicode="&#x2c6;" horiz-adv-x="794" d="M145 1488v4q11 48 163 224q102 95 170 95l14 -3q59 34 109 34q49 0 61 -211v-51q0 -65 -41 -65q0 -6 -17 -6h-24q-8 0 -10 30l-3 4h-7q0 -22 -17 -31l-10 3q-15 -23 -34 -23h-4q-7 6 -30 6q-21 5 -21 24v17l-13 102h-7q0 -26 -75 -75q-55 -95 -102 -95h-3l-24 7v-3 q0 -17 -48 -21q-27 17 -27 34z" />
<glyph unicode="&#x2dc;" horiz-adv-x="840" d="M170 1530q0 9 33 57l55 77q35 54 79 92h5q17 0 55 -69q37 -38 58 -105l3 -2h5q51 0 159 139q26 26 71 85l43 47l15 -23l-3 -2l3 -3h2l3 3l3 -3v-2q0 -21 -18 -50q0 -11 -20 -40h2l38 43h3v-3l-3 -12q5 0 8 -15q-24 -45 -58 -90l-11 -17l3 -3h5q0 11 18 25h2v-2 q-35 -42 -35 -50l12 10h3v-2q-45 -65 -104 -127l3 -3v-2q0 -23 -61 -45l-12 -2q-47 0 -114 99l-33 37q-36 -45 -55 -94l-10 -5h-5l-8 5h-3q-4 0 -30 -52l-2 -3h-3q-32 0 -53 50q-27 0 -48 57z" />
<glyph unicode="&#x2000;" horiz-adv-x="928" />
<glyph unicode="&#x2001;" horiz-adv-x="1857" />
<glyph unicode="&#x2002;" horiz-adv-x="928" />
<glyph unicode="&#x2003;" horiz-adv-x="1857" />
<glyph unicode="&#x2004;" horiz-adv-x="619" />
<glyph unicode="&#x2005;" horiz-adv-x="464" />
<glyph unicode="&#x2006;" horiz-adv-x="309" />
<glyph unicode="&#x2007;" horiz-adv-x="309" />
<glyph unicode="&#x2008;" horiz-adv-x="232" />
<glyph unicode="&#x2009;" horiz-adv-x="371" />
<glyph unicode="&#x200a;" horiz-adv-x="103" />
<glyph unicode="&#x2010;" horiz-adv-x="999" d="M57 819l5 23q11 49 145 54v11l56 14l41 -22l89 6l12 -19l2 17l12 -19l176 -5l87 -11l-18 -15l-3 -17l226 24l-6 -34q-44 6 -50 -28l15 -2l46 11l-3 -17l-17 -15l-3 -17q38 -5 38 -32q0 -3 -1 -8l-260 -53l-3 -17l57 -7l-2 -17l-179 -12l38 47l-15 2q-132 3 -156 -50 l-3 -17l-58 8l-11 19l-4 -17l12 -19l-58 8l4 17l17 14l2 17l-17 -15l-55 7l-1 12l-114 39l6 24h90l5 24q-42 11 -32 56zM554 815l29 -4l61 10l3 16l-29 5l-61 -10zM563 693l5 -53l29 -3l-5 53z" />
<glyph unicode="&#x2011;" horiz-adv-x="999" d="M57 819l5 23q11 49 145 54v11l56 14l41 -22l89 6l12 -19l2 17l12 -19l176 -5l87 -11l-18 -15l-3 -17l226 24l-6 -34q-44 6 -50 -28l15 -2l46 11l-3 -17l-17 -15l-3 -17q38 -5 38 -32q0 -3 -1 -8l-260 -53l-3 -17l57 -7l-2 -17l-179 -12l38 47l-15 2q-132 3 -156 -50 l-3 -17l-58 8l-11 19l-4 -17l12 -19l-58 8l4 17l17 14l2 17l-17 -15l-55 7l-1 12l-114 39l6 24h90l5 24q-42 11 -32 56zM554 815l29 -4l61 10l3 16l-29 5l-61 -10zM563 693l5 -53l29 -3l-5 53z" />
<glyph unicode="&#x2012;" horiz-adv-x="999" d="M57 819l5 23q11 49 145 54v11l56 14l41 -22l89 6l12 -19l2 17l12 -19l176 -5l87 -11l-18 -15l-3 -17l226 24l-6 -34q-44 6 -50 -28l15 -2l46 11l-3 -17l-17 -15l-3 -17q38 -5 38 -32q0 -3 -1 -8l-260 -53l-3 -17l57 -7l-2 -17l-179 -12l38 47l-15 2q-132 3 -156 -50 l-3 -17l-58 8l-11 19l-4 -17l12 -19l-58 8l4 17l17 14l2 17l-17 -15l-55 7l-1 12l-114 39l6 24h90l5 24q-42 11 -32 56zM554 815l29 -4l61 10l3 16l-29 5l-61 -10zM563 693l5 -53l29 -3l-5 53z" />
<glyph unicode="&#x2013;" horiz-adv-x="1475" d="M74 787v4l4 72l26 22l48 -3q510 25 807 25q145 0 240 -6l132 -9l-1 -11l-13 -12l-1 -12q107 -6 107 -30h-12l11 -12l-2 -24q-1 -28 -194 -36l-35 14l-37 -10l-1 -12l156 -9l11 -13l12 -1l-13 -11l-1 -24l24 -2l-2 -24q-87 -30 -723 -26l-472 -43q-59 4 -52 124l26 22v12 q-45 3 -45 35zM673 704l104 -4l273 4l-65 25l-292 -8z" />
<glyph unicode="&#x2014;" horiz-adv-x="2097" d="M66 736l25 23l-22 37l3 84l25 23l36 -2q367 -16 1851 28l72 -3l-2 -48q-3 -66 -593 -94l-13 -36l60 -3l409 19l-1 -24q-84 -4 -86 -33l24 -1l121 7l11 -12v-12l-411 -55l-11 13l-61 -9h-12l-119 17l-109 -7l-12 1l1 12l12 11l1 12l-517 -2v-12l156 -6l-1 -24h-12 l-782 -14zM366 723h12l276 12l1 11l-95 17l-194 -28v-12zM615 664l60 -2l1 12l-60 2zM811 740l108 -5l-12 13l1 12l-97 -8v-12zM963 649l1 24l192 -8l-1 -24z" />
<glyph unicode="&#x2018;" horiz-adv-x="472" d="M66 1113l14 153h19l18 -122h-37v-40zM99 961h18v81h-18v-81zM99 1266v80h18l19 -80h-37zM112 1097l26 -17l35 225l-19 -19h-18v60l37 41v-61h19v81l-38 40l57 62l222 -81v-21q-64 -270 -84 -470l-2 1q5 -22 11 -45l-14 -61q-33 0 -40 81h-14v-40h-53l-26 101l-14 -20h-14 q-48 53 -71 143zM162 1053q20 -59 35 -59l-18 49z" />
<glyph unicode="&#x2019;" horiz-adv-x="472" d="M66 1113l14 153h19l18 -122h-37v-40zM99 961h18v81h-18v-81zM99 1266v80h18l19 -80h-37zM112 1097l26 -17l35 225l-19 -19h-18v60l37 41v-61h19v81l-38 40l57 62l222 -81v-21q-64 -270 -84 -470l-2 1q5 -22 11 -45l-14 -61q-33 0 -40 81h-14v-40h-53l-26 101l-14 -20h-14 q-48 53 -71 143zM162 1053q20 -59 35 -59l-18 49z" />
<glyph unicode="&#x201a;" horiz-adv-x="703" d="M138 49q0 124 55 124l4 4v5l-32 41q8 124 55 124l165 28h45q46 -20 46 -101v-5q0 -44 -14 -106l5 -41q-83 -285 -128 -285q0 -47 -41 -69h-18q-51 10 -51 46q7 111 55 111l5 4v5l-28 41l9 55l-50 -18q-77 12 -77 23zM316 205h5l45 9v14h-4q-23 0 -46 -23z" />
<glyph unicode="&#x201c;" horiz-adv-x="577" d="M45 1097l19 -17l39 246v81l-27 40l41 62l163 -81v-21q-47 -270 -61 -470l-2 1q3 -22 8 -45l-10 -61q-24 0 -29 81h-10v-40h-40l-19 101l-10 -20h-10q-35 53 -52 143zM296 1064l15 236l43 11v81l-27 32l41 74l163 -32v-20q-84 -344 -61 -489h-2q3 -21 8 -42l-10 -65 q-24 -7 -29 72l-10 -3v-40l-40 -11l-28 33l-10 -24l-10 -3q-35 43 -43 190z" />
<glyph unicode="&#x201d;" horiz-adv-x="577" d="M45 1097l19 -17l39 246v81l-27 40l41 62l163 -81v-21q-47 -270 -61 -470l-2 1q3 -22 8 -45l-10 -61q-24 0 -29 81h-10v-40h-40l-19 101l-10 -20h-10q-35 53 -52 143zM296 1064l15 236l43 11v81l-27 32l41 74l163 -32v-20q-84 -344 -61 -489h-2q3 -21 8 -42l-10 -65 q-24 -7 -29 72l-10 -3v-40l-40 -11l-28 33l-10 -24l-10 -3q-35 43 -43 190z" />
<glyph unicode="&#x201e;" horiz-adv-x="1024" d="M138 49q0 124 55 124l4 4v5l-32 41q8 124 55 124l165 28h45q46 -20 46 -101v-5q0 -44 -14 -106l5 -41q-83 -285 -128 -285q0 -47 -41 -69h-18q-51 10 -51 46q7 111 55 111l5 4v5l-28 41l9 55l-50 -18q-77 12 -77 23zM316 205h5l45 9v14h-4q-23 0 -46 -23zM574 34l16 18 q0 124 34 120l4 4v5l-32 41q8 124 55 124l165 28h45q46 -20 46 -101v-5q0 -44 -14 -106l5 -41q-83 -284 -111 -234q0 -47 -41 -69h-18q-51 10 -51 46q-10 61 38 61l5 4v5l-28 41l85 88l-126 -52q-77 12 -77 23zM693 211h13l117 21v33h-10q-60 0 -120 -54z" />
<glyph unicode="&#x2022;" horiz-adv-x="717" />
<glyph unicode="&#x2026;" horiz-adv-x="2048" />
<glyph unicode="&#x202f;" horiz-adv-x="371" />
<glyph unicode="&#x2039;" horiz-adv-x="682" />
<glyph unicode="&#x203a;" horiz-adv-x="682" />
<glyph unicode="&#x205f;" horiz-adv-x="464" />
<glyph unicode="&#x20ac;" horiz-adv-x="1236" d="M16 401l48 154l26 5q31 2 61 3q2 15 4 29l-103 17l-15 143l26 5q67 1 127 3q11 38 25 73v-7l17 21l5 -39l38 98l20 24l-47 -108l16 21l5 6q63 137 115 213l5 7q26 38 90 98l6 15q76 54 169 93l-51 -17h-17v17l153 34h17q247 0 374 -204v-17h-34l17 -17v-17 q-102 12 -102 34q-86 0 -163 -19l-13 14l-35 -17l3 9l-4 3q-51 1 -123 -59l-11 -10l-113 -108l3 -3l-16 -25q-12 -15 -24 -31h-4l-3 -8q-21 -28 -40 -59q161 14 250 39v-1q26 7 52 15l87 6q18 -18 -83 -40l7 -8l52 9l29 -30l-33 -31l33 -3l8 -8q-44 -39 -232 -78l-241 -31 l-10 -34q184 14 334 33l-1 -2q28 8 56 17l83 5q8 -20 -95 -43l3 -8l52 9l14 -33l-125 -38l30 -4l4 -8q-58 -42 -169 -76l16 20l-203 -13q26 -190 183 -238q203 -63 483 285h17v-17q-13 -81 51 -17l51 -68v-51q0 -55 -67 -80l-17 -17h-17v-34q101 -34 101 29h34v-17 q-243 -237 -482 -238l-137 -9q-129 0 -213 110v-17l26 -60v-16h-51q-158 108 -187 271l-12 156l-40 -31zM287 129l17 -68h17v17l-17 102h-17v-51zM630 1194l119 51v17h-17q-102 -34 -102 -68z" />
<glyph unicode="&#x2122;" horiz-adv-x="2048" />
<glyph unicode="&#x25fc;" horiz-adv-x="1360" d="M0 0v1360h1360v-1360h-1360z" />
</font>
</defs>
</svg>
